<svg width="0" height="0" style="display: none;">
  <symbol xmlns="http://www.w3.org/2000/svg" viewBox="0 0 512 512" id="bell">
    <path d="M450.201 407.453c-1.505-.977-12.832-8.912-24.174-32.917-20.829-44.082-25.201-106.18-25.201-150.511 0-.193-.004-.384-.011-.576-.227-58.589-35.31-109.095-85.514-131.756V57.036C315.301 25.586 289.757 0 258.359 0h-4.719c-31.398 0-56.942 25.586-56.942 57.036v34.655c-50.372 22.734-85.525 73.498-85.525 132.334 0 44.331-4.372 106.428-25.201 150.511-11.341 24.004-22.668 31.939-24.174 32.917-6.342 2.935-9.469 9.715-8.01 16.586 1.473 6.939 7.959 11.723 15.042 11.723h109.947C179.391 477.903 213.785 512 256 512s76.609-34.097 77.223-76.238H443.17c7.082 0 13.569-4.784 15.042-11.723 1.457-6.871-1.669-13.652-8.011-16.586zM226.699 57.036c0-14.881 12.086-26.987 26.942-26.987h4.719c14.856 0 26.942 12.106 26.942 26.987v24.917a144.658 144.658 0 00-29.306-2.987A144.695 144.695 0 00226.7 81.95V57.036zM256 481.951c-25.673 0-46.614-20.617-47.223-46.188h94.445c-.608 25.57-21.549 46.188-47.222 46.188zm60.4-76.239H103.015c2.595-4.044 5.236-8.623 7.861-13.798 20.104-39.643 30.298-96.129 30.298-167.889 0-63.417 51.509-115.01 114.821-115.01s114.821 51.593 114.821 115.06c0 .185.003.369.01.553.057 71.472 10.25 127.755 30.298 167.286 2.625 5.176 5.267 9.754 7.861 13.798z"></path>
  </symbol>
  <symbol xmlns="http://www.w3.org/2000/svg" viewBox="0 0 502.664 502.664" id="code">
    <path d="M153.821 358.226L0 274.337v-46.463l153.821-83.414v54.574L46.636 250.523l107.185 53.431v54.272zm26.273 29.358L282.103 115.08h32.227L212.084 387.584h-31.99zm168.749-29.358v-54.272l107.164-52.999-107.164-52.59v-53.927l153.821 83.522v46.183l-153.821 84.083z"></path>
  </symbol>
  <symbol xmlns="http://www.w3.org/2000/svg" viewBox="0 0 24 24" id="help-1">
    <path d="M12 2c5.514 0 10 4.486 10 10s-4.486 10-10 10S2 17.514 2 12 6.486 2 12 2zm0-2C5.373 0 0 5.373 0 12s5.373 12 12 12 12-5.373 12-12S18.627 0 12 0zm1.25 17a1.25 1.25 0 11-2.5 0 1.25 1.25 0 012.5 0zm1.393-9.998c-.608-.616-1.515-.955-2.551-.955-2.18 0-3.59 1.55-3.59 3.95h2.011c0-1.486.829-2.013 1.538-2.013.634 0 1.307.421 1.364 1.226.062.847-.39 1.277-.962 1.821-1.412 1.343-1.438 1.993-1.432 3.468h2.005c-.013-.664.03-1.203.935-2.178.677-.73 1.519-1.638 1.536-3.022.011-.924-.284-1.719-.854-2.297z"></path>
  </symbol>
  <symbol xmlns="http://www.w3.org/2000/svg" viewBox="0 0 24 24" id="help-2">
    <path d="M12 3c5.514 0 10 3.592 10 8.007 0 4.917-5.145 7.961-9.91 7.961-1.937 0-3.383-.397-4.394-.644-1 .613-1.595 1.037-4.272 1.82.535-1.373.723-2.748.602-4.265-.838-1-2.025-2.4-2.025-4.872C2 6.592 6.486 3 12 3zm0-2C5.662 1 0 5.226 0 11.007c0 2.05.738 4.063 2.047 5.625.055 1.83-1.023 4.456-1.993 6.368 2.602-.47 6.301-1.508 7.978-2.536 1.418.345 2.775.503 4.059.503 7.084 0 11.91-4.837 11.91-9.961C24 5.195 18.299 1 12 1zm1.024 13.975a1.024 1.024 0 11-2.049.001 1.024 1.024 0 012.049-.001zm1.141-8.192C13.667 6.278 12.924 6 12.075 6c-1.786 0-2.941 1.271-2.941 3.237h1.647c0-1.217.68-1.649 1.261-1.649.519 0 1.07.345 1.117 1.004.052.694-.319 1.046-.788 1.493-1.157 1.1-1.179 1.633-1.173 2.842h1.643c-.01-.544.025-.986.766-1.785.555-.598 1.245-1.342 1.259-2.477.008-.758-.233-1.409-.701-1.882z"></path>
  </symbol>
  <symbol xmlns="http://www.w3.org/2000/svg" viewBox="0 0 24 24" id="i18n">
    <g>
      <path d="M23.964 23.964h-2.77L20.13 20.98h-4.85l-1.07 2.984h-2.684l4.916-12.932h2.59l.617 1.617.616 1.616 2.466 6.466 1.233 3.233zm-4.549-5.042l-1.696-4.878-1.703 4.878h3.4zm-4.671-12.23l-2.065-5.504L18.065.089l-.97 1.859c2.983 2.405 4.094 5.615 4.508 8.09-1.727-2.899-3.806-4.455-5.855-5.294l-1.004 1.948zM6.89 17.417l1.974 5.537-5.401 1.01 1-1.842C1.52 19.67.463 16.497.09 14.016c1.68 2.925 3.73 4.46 5.764 5.332l1.037-1.931z"></path><text font-family="Sans-serif" font-size="24" font-weight="bold" stroke-width="0" text-anchor="middle" transform="matrix(.50823 0 0 .57108 -1.324 -4.203)" x="13.684" y="27.952">文</text>
    </g>
  </symbol>
  <symbol xmlns="http://www.w3.org/2000/svg" viewBox="0 0 24 24" id="i18n2">
    <path d="M24 24h-2.784l-1.07-3h-4.875l-1.077 3h-2.697l4.941-13h2.604L24 24zm-4.573-5.069l-1.705-4.903-1.712 4.903h3.417zM10.175 6.127c.126-.486.201-.852.271-1.212l-2.199-.428c-.036.185-.102.533-.22 1a9.527 9.527 0 00-2.332-.041c.019-.537.052-1.063.098-1.569h2.456V1.794H6.088c.106-.531.198-.849.288-1.149L4.229 0c-.158.526-.29 1.042-.422 1.794H1.356v2.083H3.54a29.083 29.083 0 00-.103 2.077C1.024 6.84 0 8.529 0 10.061c0 1.809 1.427 3.399 3.684 3.194 2.802-.255 4.673-2.371 5.77-4.974 1.134.654 1.608 1.753 1.181 2.771-.396.941-1.561 1.838-3.785 1.792v2.242c2.469.038 4.898-.899 5.85-3.166.93-2.214-.132-4.635-2.525-5.793zM7.283 7.658c-.349.774-.809 1.544-1.395 2.15A22.506 22.506 0 015.704 7.7a7.561 7.561 0 011.579-.042zm-3.788.724c.062.947.169 1.818.317 2.596-1.996.365-2.076-1.603-.317-2.596zm11.236-1.745l-2.075-5.533L18.07 0l-.976 1.868C20.093 4.286 21.21 7.513 21.626 10 19.89 7.087 17.8 5.522 15.741 4.679l-1.01 1.958zM6.836 17.418l1.985 5.566L3.391 24l1.006-1.852C1.437 19.683.376 16.494 0 14c1.689 2.94 3.749 4.483 5.794 5.36l1.042-1.942zm10.795-6.029"></path>
  </symbol>
  <symbol xmlns="http://www.w3.org/2000/svg" viewBox="0 0 24 24" id="i18n3">
    <g fill="#fff"><text font-family="Sans-serif" font-size="238" font-weight="bold" stroke="#fff" stroke-width="0" text-anchor="middle" transform="matrix(.05719 0 0 .05826 -119.936 -81.73)" x="2219.239" y="1632.772">文</text><text font-family="Sans-serif" font-size="196" font-weight="bold" stroke="#d822c3" stroke-width="0" text-anchor="middle" transform="matrix(.08414 0 0 .08083 66.625 8.956)" x="-586.091" y="162.541">A</text>
      <path d="M17.472 1.571l-.307.536.802.449c2.03 1.136 3.683 3.061 4.258 4.962.104.34.142.644.085.673-.13.067-2.597.009-2.777-.066-.073-.03-.187-.255-.251-.5-.277-1.041-1.5-2.516-2.559-3.083l-.428-.23-.127.52c-.13.541-.197.638-.384.56-.12-.049-2.873-3.478-2.925-3.641-.039-.124.593-.26 2.794-.605.956-.15 1.825-.235 1.932-.19.17.07.157.144-.113.615zM6.767 22.258l.256-.568-.81-.366c-2.052-.928-3.798-2.684-4.5-4.526-.126-.33-.186-.63-.133-.665.12-.08 2.514-.275 2.694-.219.073.023.2.236.281.474.347 1.014 1.644 2.363 2.711 2.822l.433.186.082-.534c.086-.554.144-.658.33-.6.12.038 3.046 3.185 3.108 3.343.048.12-.553.321-2.658.891-.915.248-1.75.423-1.856.39-.171-.054-.164-.129.062-.628z"></path>
    </g>
  </symbol>
  <symbol xmlns="http://www.w3.org/2000/svg" viewBox="0 0 24 24" id="info">
    <path d="M12 2c5.514 0 10 4.486 10 10s-4.486 10-10 10S2 17.514 2 12 6.486 2 12 2zm0-2C5.373 0 0 5.373 0 12s5.373 12 12 12 12-5.373 12-12S18.627 0 12 0zm-.001 5.75c.69 0 1.251.56 1.251 1.25s-.561 1.25-1.251 1.25a1.25 1.25 0 010-2.5zM14 18h-4v-1c.484-.179 1-.201 1-.735v-4.467c0-.534-.516-.618-1-.797v-1h3v6.265c0 .535.517.558 1 .735V18z"></path>
  </symbol>
  <symbol xmlns="http://www.w3.org/2000/svg" viewBox="0 0 24 24" id="install">
    <path fill="none" d="M0 0h24v24H0V0z"></path>
    <path d="M18 1.01L8 1c-1.1 0-2 .9-2 2v3h2V5h10v14H8v-1H6v3c0 1.1.9 2 2 2h10c1.1 0 2-.9 2-2V3c0-1.1-.9-1.99-2-1.99zM10 15h2V8H5v2h3.59L3 15.59 4.41 17 10 11.41z"></path>
    <path fill="none" d="M0 0h24v24H0V0z"></path>
  </symbol>
  <symbol xmlns="http://www.w3.org/2000/svg" viewBox="0 0 24 24" id="map">
    <path d="M17.492 15.432c-.433 0-.855-.087-1.253-.259l.467-1.082a1.986 1.986 0 001.437.052l.388 1.112a3.108 3.108 0 01-1.039.177zM6.57 15.41c-.373 0-.741-.066-1.093-.195l.407-1.105a1.984 1.984 0 001.44-.026l.447 1.09a3.143 3.143 0 01-1.201.236zm8.67-.783l-1.659-.945.583-1.024 1.66.945-.584 1.024zm-6.455-.02l-.605-1.011 1.639-.981.605 1.011-1.639.981zm3.918-1.408a1.981 1.981 0 00-1.438-.034l-.401-1.108a3.156 3.156 0 012.292.056l-.453 1.086zm7.327-.163a.968.968 0 100 1.936.968.968 0 000-1.936zm-16.061 0a.968.968 0 10-.001 1.937.968.968 0 00.001-1.937zM22 12.204v6.683l-4 2.479V17h-1v4.141l-4-2.885V15h-2v3.255L7 21.14V17H6v4.365l-4-2.479V5.592l4 2.479V12h1V8.073l4-2.886V10h2V5.187l1.577 1.138A5.66 5.66 0 0114 3.801l.019-.345L12 2 6.455 6 0 2v18l6.455 4L12 20l5.545 4L24 20V8.382l-.039.047c-.831.982-1.614 1.918-1.961 3.775zm2-8.403C24 1.702 22.1 0 20 0s-4 1.702-4 3.801c0 3.121 3.188 3.451 4 8.199.812-4.748 4-5.078 4-8.199zM18.5 4a1.5 1.5 0 113 0 1.5 1.5 0 01-3 0zm-.548 8c-.212-.992-.547-1.724-.952-2.334V12h.952z"></path>
  </symbol>
  <symbol xmlns="http://www.w3.org/2000/svg" viewBox="0 0 512 512" id="notification">
    <path d="M467.819 431.851l-36.651-61.056a181.486 181.486 0 01-25.835-93.312V224c0-82.325-67.008-149.333-149.333-149.333S106.667 141.675 106.667 224v53.483c0 32.875-8.939 65.131-25.835 93.312l-36.651 61.056a10.665 10.665 0 00-.149 10.731 10.704 10.704 0 009.301 5.419h405.333c3.84 0 7.403-2.069 9.301-5.419a10.665 10.665 0 00-.148-10.731zm-395.648-5.184l26.944-44.907A202.631 202.631 0 00128 277.483V224c0-70.592 57.408-128 128-128s128 57.408 128 128v53.483c0 36.736 9.984 72.789 28.864 104.277l26.965 44.907H72.171z"></path>
    <path d="M256 0c-23.531 0-42.667 19.136-42.667 42.667v42.667C213.333 91.221 218.112 96 224 96s10.667-4.779 10.667-10.667V42.667c0-11.776 9.557-21.333 21.333-21.333s21.333 9.557 21.333 21.333v42.667C277.333 91.221 282.112 96 288 96s10.667-4.779 10.667-10.667V42.667C298.667 19.136 279.531 0 256 0zm46.165 431.936c-3.008-5.077-9.515-6.741-14.613-3.819-5.099 2.987-6.805 9.536-3.819 14.613 2.773 4.715 4.288 10.368 4.288 15.936 0 17.643-14.357 32-32 32s-32-14.357-32-32c0-5.568 1.515-11.221 4.288-15.936 2.965-5.099 1.259-11.627-3.819-14.613-5.141-2.923-11.627-1.259-14.613 3.819-4.715 8.064-7.211 17.301-7.211 26.731C202.667 488.085 226.581 512 256 512s53.333-23.915 53.376-53.333c0-9.43-2.496-18.667-7.211-26.731z"></path>
  </symbol>
  <symbol xmlns="http://www.w3.org/2000/svg" viewBox="0 0 24 24" id="qr-code">
    <path d="M21 21v3h3v-3h-1v-1h-1v1h-1zm2 1v1h-1v-1h1zM0 24h8v-8H0v8zm1-7h6v6H1v-6zm20 3v-1h1v1h-1zM2 18h4v4H2v-4zm8-3v2H9v-2h1zm2-8h1v1h-1V7zm1-1h1v1h-1V6zm1 2V7h1v1h-1zm0-2h1V0h-3v1H9v1h3v1h2v3zm-1-4V1h1v1h-1zM6 6H2V2h4v4zm6 0h-1V4H9V3h3v1h1v1h-1v1zM8 0H0v8h8V0zM7 7H1V1h6v6zm3 0H9V6h2v2h-1V7zm-3 3v1H6v-1h1zm15 6h2v3h-1v-1h-2v1h-1v-1h-1v-1h1v-1h1v1h1v-1zm-4 2h-1v1h-1v-1h-1v-1h1v-1h-2v-1h-1v1h-1v1h-2v1H9v6h5v-1h-1v-2h-1v2h-2v-1h1v-1h-1v-1h3v-1h2v2h-1v1h1v2h1v-2h1v1h1v-1h1v-2h1v-1h-2v-1zm-1 3h-1v-1h1v1zm6-6v-2h1v2h-1zm-9 5v1h-1v-1h1zm5 3v-1h1v2h-2v-1h1zM16 0v8h8V0h-8zm7 7h-6V1h6v6zm-1-1h-4V2h4v4zm1 4h1v2h-1v1h-2V9h1v2h1v-1zm-4 6v-3h1v3h-1zM6 9v1H4v1h1v1H2v-1h1v-1H1v1H0V9h6zm-1 4v-1h1v3H5v-1H4v1H3v-1H2v1H0v-1h1v-1h4zm-4-1v1H0v-1h1zm19-2h-1V9h1v1zM7 14h1v1H7v-1zm15 2h-1v-1h1v1zm-5 1v-1h1v1h-1zm-1-1h1v-3h2v-1h1v-1h-1v-1h-2V9h-1v1h-1V9h-1v1h-1V9h-1v1h-1v1h-1v-1h1V9H7v1h2v1H7v1h1v2h1v-1h2v2h1v-4h1v2h3v1h-2v1h2v1zm1-5h1v1h-1v-1zm-2 1h-1v-1h1v1z"></path>
  </symbol>
  <symbol xmlns="http://www.w3.org/2000/svg" viewBox="0 0 512 512" id="scan-qr-code">
    <path d="M30 30h90V0H0v120h30zM392 0v30h90v90h30V0zm90 482h-90v30h120V392h-30zM30 392H0v120h120v-30H30zm0 0"></path>
    <path d="M61 60v150h150v-90h30V90h-30V60zm120 120H91V90h90zm270 270V300h-60v-30h-30v30h-90v30h30v30h-30v30h30v60zM331 330h90v90h-90zm-180-60h60v-30H61v30h60v30H91v30h30v60H91v30h30v30h150v-30h-30v-30h-30v30h-60v-30h30v-30h-30zm0 0"></path>
    <path d="M121 120h30v30h-30zm240 0h30v30h-30zm0 0"></path>
    <path d="M391 210h60V60H301v150h60v30h30zm-60-30V90h90v90zm120 90v-30h-60v30zm-90 90h30v30h-30zm-120-30h30v30h-30zm-60 30h30v-60h-30zm30-90h30v30h-30zM91 330H61v60h30v-60zm-30 90h30v30H61zM241 60h30v30h-30zm0 120h30v-60h-30zm30 60v-30h-30v60h120v-30zm0 0"></path>
  </symbol>
  <symbol fill="transparent" stroke="#FFF" stroke-linecap="round" stroke-linejoin="round" stroke-width="2" xmlns="http://www.w3.org/2000/svg" viewBox="0 0 24 24" id="share">
    <circle cx="18" cy="5" r="3"></circle>
    <circle cx="6" cy="12" r="3"></circle>
    <circle cx="18" cy="19" r="3"></circle>
    <path d="M8.59 13.51l6.83 3.98m-.01-10.98l-6.82 3.98"></path>
  </symbol>
  <symbol xmlns="http://www.w3.org/2000/svg" viewBox="0 0 192.904 192.904" id="search">
    <path d="M190.707 180.101l-47.078-47.077c11.702-14.072 18.752-32.142 18.752-51.831C162.381 36.423 125.959 0 81.191 0 36.422 0 0 36.423 0 81.193c0 44.767 36.422 81.187 81.191 81.187 19.688 0 37.759-7.049 51.831-18.751l47.079 47.078a7.474 7.474 0 005.303 2.197 7.498 7.498 0 005.303-12.803zM15 81.193C15 44.694 44.693 15 81.191 15c36.497 0 66.189 29.694 66.189 66.193 0 36.496-29.692 66.187-66.189 66.187C44.693 147.38 15 117.689 15 81.193z"></path>
  </symbol>
  <symbol xmlns="http://www.w3.org/2000/svg" viewBox="0 0 48 48" id="signature">
    <path fill="#FFCA28" d="M24 4l7 13 14 2-10 10 2 15-13-7-13 7 2-15L3 19l14-2z"></path>
    <path fill="#F9A825" d="M24 25l7-8-7-13zm21-6l-21 6 11 4zm-8 25L24 25v12zM13 29l-2 15 13-19zM3 19l21 6-7-8z"></path>
  </symbol>
  <symbol xmlns="http://www.w3.org/2000/svg" viewBox="0 0 48 48" id="star">
    <path fill="#FFCA28" d="M24 4l7 13 14 2-10 10 2 15-13-7-13 7 2-15L3 19l14-2z"/>
    <path fill="#F9A825" d="M24 25l7-8-7-13zm21-6l-21 6 11 4zm-8 25L24 25v12zM13 29l-2 15 13-19zM3 19l21 6-7-8z"/>
  </symbol>
</svg>