<svg width="0" height="0" style="display: none;">
  <symbol xmlns="http://www.w3.org/2000/svg" viewBox="0 0 512 512" id="bell">
    <path d="M450.201 407.453c-1.505-.977-12.832-8.912-24.174-32.917-20.829-44.082-25.201-106.18-25.201-150.511 0-.193-.004-.384-.011-.576-.227-58.589-35.31-109.095-85.514-131.756V57.036C315.301 25.586 289.757 0 258.359 0h-4.719c-31.398 0-56.942 25.586-56.942 57.036v34.655c-50.372 22.734-85.525 73.498-85.525 132.334 0 44.331-4.372 106.428-25.201 150.511-11.341 24.004-22.668 31.939-24.174 32.917-6.342 2.935-9.469 9.715-8.01 16.586 1.473 6.939 7.959 11.723 15.042 11.723h109.947C179.391 477.903 213.785 512 256 512s76.609-34.097 77.223-76.238H443.17c7.082 0 13.569-4.784 15.042-11.723 1.457-6.871-1.669-13.652-8.011-16.586zM226.699 57.036c0-14.881 12.086-26.987 26.942-26.987h4.719c14.856 0 26.942 12.106 26.942 26.987v24.917a144.658 144.658 0 00-29.306-2.987A144.695 144.695 0 00226.7 81.95V57.036zM256 481.951c-25.673 0-46.614-20.617-47.223-46.188h94.445c-.608 25.57-21.549 46.188-47.222 46.188zm60.4-76.239H103.015c2.595-4.044 5.236-8.623 7.861-13.798 20.104-39.643 30.298-96.129 30.298-167.889 0-63.417 51.509-115.01 114.821-115.01s114.821 51.593 114.821 115.06c0 .185.003.369.01.553.057 71.472 10.25 127.755 30.298 167.286 2.625 5.176 5.267 9.754 7.861 13.798z"></path>
  </symbol>
  <symbol xmlns="http://www.w3.org/2000/svg" viewBox="0 0 502.664 502.664" id="code">
    <path d="M153.821 358.226L0 274.337v-46.463l153.821-83.414v54.574L46.636 250.523l107.185 53.431v54.272zm26.273 29.358L282.103 115.08h32.227L212.084 387.584h-31.99zm168.749-29.358v-54.272l107.164-52.999-107.164-52.59v-53.927l153.821 83.522v46.183l-153.821 84.083z"></path>
  </symbol>
  <symbol xmlns="http://www.w3.org/2000/svg" viewBox="0 0 24 24" id="help-1">
    <path d="M12 2c5.514 0 10 4.486 10 10s-4.486 10-10 10S2 17.514 2 12 6.486 2 12 2zm0-2C5.373 0 0 5.373 0 12s5.373 12 12 12 12-5.373 12-12S18.627 0 12 0zm1.25 17a1.25 1.25 0 11-2.5 0 1.25 1.25 0 012.5 0zm1.393-9.998c-.608-.616-1.515-.955-2.551-.955-2.18 0-3.59 1.55-3.59 3.95h2.011c0-1.486.829-2.013 1.538-2.013.634 0 1.307.421 1.364 1.226.062.847-.39 1.277-.962 1.821-1.412 1.343-1.438 1.993-1.432 3.468h2.005c-.013-.664.03-1.203.935-2.178.677-.73 1.519-1.638 1.536-3.022.011-.924-.284-1.719-.854-2.297z"></path>
  </symbol>
  <symbol xmlns="http://www.w3.org/2000/svg" viewBox="0 0 24 24" id="help-2">
    <path d="M12 3c5.514 0 10 3.592 10 8.007 0 4.917-5.145 7.961-9.91 7.961-1.937 0-3.383-.397-4.394-.644-1 .613-1.595 1.037-4.272 1.82.535-1.373.723-2.748.602-4.265-.838-1-2.025-2.4-2.025-4.872C2 6.592 6.486 3 12 3zm0-2C5.662 1 0 5.226 0 11.007c0 2.05.738 4.063 2.047 5.625.055 1.83-1.023 4.456-1.993 6.368 2.602-.47 6.301-1.508 7.978-2.536 1.418.345 2.775.503 4.059.503 7.084 0 11.91-4.837 11.91-9.961C24 5.195 18.299 1 12 1zm1.024 13.975a1.024 1.024 0 11-2.049.001 1.024 1.024 0 012.049-.001zm1.141-8.192C13.667 6.278 12.924 6 12.075 6c-1.786 0-2.941 1.271-2.941 3.237h1.647c0-1.217.68-1.649 1.261-1.649.519 0 1.07.345 1.117 1.004.052.694-.319 1.046-.788 1.493-1.157 1.1-1.179 1.633-1.173 2.842h1.643c-.01-.544.025-.986.766-1.785.555-.598 1.245-1.342 1.259-2.477.008-.758-.233-1.409-.701-1.882z"></path>
  </symbol>
  <symbol xmlns="http://www.w3.org/2000/svg" viewBox="0 0 24 24" id="i18n">
    <g>
      <path d="M23.964 23.964h-2.77L20.13 20.98h-4.85l-1.07 2.984h-2.684l4.916-12.932h2.59l.617 1.617.616 1.616 2.466 6.466 1.233 3.233zm-4.549-5.042l-1.696-4.878-1.703 4.878h3.4zm-4.671-12.23l-2.065-5.504L18.065.089l-.97 1.859c2.983 2.405 4.094 5.615 4.508 8.09-1.727-2.899-3.806-4.455-5.855-5.294l-1.004 1.948zM6.89 17.417l1.974 5.537-5.401 1.01 1-1.842C1.52 19.67.463 16.497.09 14.016c1.68 2.925 3.73 4.46 5.764 5.332l1.037-1.931z"></path><text font-family="Sans-serif" font-size="24" font-weight="bold" stroke-width="0" text-anchor="middle" transform="matrix(.50823 0 0 .57108 -1.324 -4.203)" x="13.684" y="27.952">文</text>
    </g>
  </symbol>
  <symbol xmlns="http://www.w3.org/2000/svg" viewBox="0 0 24 24" id="i18n2">
    <path d="M24 24h-2.784l-1.07-3h-4.875l-1.077 3h-2.697l4.941-13h2.604L24 24zm-4.573-5.069l-1.705-4.903-1.712 4.903h3.417zM10.175 6.127c.126-.486.201-.852.271-1.212l-2.199-.428c-.036.185-.102.533-.22 1a9.527 9.527 0 00-2.332-.041c.019-.537.052-1.063.098-1.569h2.456V1.794H6.088c.106-.531.198-.849.288-1.149L4.229 0c-.158.526-.29 1.042-.422 1.794H1.356v2.083H3.54a29.083 29.083 0 00-.103 2.077C1.024 6.84 0 8.529 0 10.061c0 1.809 1.427 3.399 3.684 3.194 2.802-.255 4.673-2.371 5.77-4.974 1.134.654 1.608 1.753 1.181 2.771-.396.941-1.561 1.838-3.785 1.792v2.242c2.469.038 4.898-.899 5.85-3.166.93-2.214-.132-4.635-2.525-5.793zM7.283 7.658c-.349.774-.809 1.544-1.395 2.15A22.506 22.506 0 015.704 7.7a7.561 7.561 0 011.579-.042zm-3.788.724c.062.947.169 1.818.317 2.596-1.996.365-2.076-1.603-.317-2.596zm11.236-1.745l-2.075-5.533L18.07 0l-.976 1.868C20.093 4.286 21.21 7.513 21.626 10 19.89 7.087 17.8 5.522 15.741 4.679l-1.01 1.958zM6.836 17.418l1.985 5.566L3.391 24l1.006-1.852C1.437 19.683.376 16.494 0 14c1.689 2.94 3.749 4.483 5.794 5.36l1.042-1.942zm10.795-6.029"></path>
  </symbol>
  <symbol xmlns="http://www.w3.org/2000/svg" viewBox="0 0 24 24" id="i18n3">
    <g fill="#fff"><text font-family="Sans-serif" font-size="238" font-weight="bold" stroke="#fff" stroke-width="0" text-anchor="middle" transform="matrix(.05719 0 0 .05826 -119.936 -81.73)" x="2219.239" y="1632.772">文</text><text font-family="Sans-serif" font-size="196" font-weight="bold" stroke="#d822c3" stroke-width="0" text-anchor="middle" transform="matrix(.08414 0 0 .08083 66.625 8.956)" x="-586.091" y="162.541">A</text>
      <path d="M17.472 1.571l-.307.536.802.449c2.03 1.136 3.683 3.061 4.258 4.962.104.34.142.644.085.673-.13.067-2.597.009-2.777-.066-.073-.03-.187-.255-.251-.5-.277-1.041-1.5-2.516-2.559-3.083l-.428-.23-.127.52c-.13.541-.197.638-.384.56-.12-.049-2.873-3.478-2.925-3.641-.039-.124.593-.26 2.794-.605.956-.15 1.825-.235 1.932-.19.17.07.157.144-.113.615zM6.767 22.258l.256-.568-.81-.366c-2.052-.928-3.798-2.684-4.5-4.526-.126-.33-.186-.63-.133-.665.12-.08 2.514-.275 2.694-.219.073.023.2.236.281.474.347 1.014 1.644 2.363 2.711 2.822l.433.186.082-.534c.086-.554.144-.658.33-.6.12.038 3.046 3.185 3.108 3.343.048.12-.553.321-2.658.891-.915.248-1.75.423-1.856.39-.171-.054-.164-.129.062-.628z"></path>
    </g>
  </symbol>
  <symbol xmlns="http://www.w3.org/2000/svg" viewBox="0 0 24 24" id="info">
    <path d="M12 2c5.514 0 10 4.486 10 10s-4.486 10-10 10S2 17.514 2 12 6.486 2 12 2zm0-2C5.373 0 0 5.373 0 12s5.373 12 12 12 12-5.373 12-12S18.627 0 12 0zm-.001 5.75c.69 0 1.251.56 1.251 1.25s-.561 1.25-1.251 1.25a1.25 1.25 0 010-2.5zM14 18h-4v-1c.484-.179 1-.201 1-.735v-4.467c0-.534-.516-.618-1-.797v-1h3v6.265c0 .535.517.558 1 .735V18z"></path>
  </symbol>
  <symbol xmlns="http://www.w3.org/2000/svg" viewBox="0 0 24 24" id="install">
    <path fill="none" d="M0 0h24v24H0V0z"></path>
    <path d="M18 1.01L8 1c-1.1 0-2 .9-2 2v3h2V5h10v14H8v-1H6v3c0 1.1.9 2 2 2h10c1.1 0 2-.9 2-2V3c0-1.1-.9-1.99-2-1.99zM10 15h2V8H5v2h3.59L3 15.59 4.41 17 10 11.41z"></path>
    <path fill="none" d="M0 0h24v24H0V0z"></path>
  </symbol>
  <symbol xmlns="http://www.w3.org/2000/svg" viewBox="0 0 24 24" id="map">
    <path d="M17.492 15.432c-.433 0-.855-.087-1.253-.259l.467-1.082a1.986 1.986 0 001.437.052l.388 1.112a3.108 3.108 0 01-1.039.177zM6.57 15.41c-.373 0-.741-.066-1.093-.195l.407-1.105a1.984 1.984 0 001.44-.026l.447 1.09a3.143 3.143 0 01-1.201.236zm8.67-.783l-1.659-.945.583-1.024 1.66.945-.584 1.024zm-6.455-.02l-.605-1.011 1.639-.981.605 1.011-1.639.981zm3.918-1.408a1.981 1.981 0 00-1.438-.034l-.401-1.108a3.156 3.156 0 012.292.056l-.453 1.086zm7.327-.163a.968.968 0 100 1.936.968.968 0 000-1.936zm-16.061 0a.968.968 0 10-.001 1.937.968.968 0 00.001-1.937zM22 12.204v6.683l-4 2.479V17h-1v4.141l-4-2.885V15h-2v3.255L7 21.14V17H6v4.365l-4-2.479V5.592l4 2.479V12h1V8.073l4-2.886V10h2V5.187l1.577 1.138A5.66 5.66 0 0114 3.801l.019-.345L12 2 6.455 6 0 2v18l6.455 4L12 20l5.545 4L24 20V8.382l-.039.047c-.831.982-1.614 1.918-1.961 3.775zm2-8.403C24 1.702 22.1 0 20 0s-4 1.702-4 3.801c0 3.121 3.188 3.451 4 8.199.812-4.748 4-5.078 4-8.199zM18.5 4a1.5 1.5 0 113 0 1.5 1.5 0 01-3 0zm-.548 8c-.212-.992-.547-1.724-.952-2.334V12h.952z"></path>
  </symbol>
  <symbol xmlns="http://www.w3.org/2000/svg" viewBox="0 0 512 512" id="notification">
    <path d="M467.819 431.851l-36.651-61.056a181.486 181.486 0 01-25.835-93.312V224c0-82.325-67.008-149.333-149.333-149.333S106.667 141.675 106.667 224v53.483c0 32.875-8.939 65.131-25.835 93.312l-36.651 61.056a10.665 10.665 0 00-.149 10.731 10.704 10.704 0 009.301 5.419h405.333c3.84 0 7.403-2.069 9.301-5.419a10.665 10.665 0 00-.148-10.731zm-395.648-5.184l26.944-44.907A202.631 202.631 0 00128 277.483V224c0-70.592 57.408-128 128-128s128 57.408 128 128v53.483c0 36.736 9.984 72.789 28.864 104.277l26.965 44.907H72.171z"></path>
    <path d="M256 0c-23.531 0-42.667 19.136-42.667 42.667v42.667C213.333 91.221 218.112 96 224 96s10.667-4.779 10.667-10.667V42.667c0-11.776 9.557-21.333 21.333-21.333s21.333 9.557 21.333 21.333v42.667C277.333 91.221 282.112 96 288 96s10.667-4.779 10.667-10.667V42.667C298.667 19.136 279.531 0 256 0zm46.165 431.936c-3.008-5.077-9.515-6.741-14.613-3.819-5.099 2.987-6.805 9.536-3.819 14.613 2.773 4.715 4.288 10.368 4.288 15.936 0 17.643-14.357 32-32 32s-32-14.357-32-32c0-5.568 1.515-11.221 4.288-15.936 2.965-5.099 1.259-11.627-3.819-14.613-5.141-2.923-11.627-1.259-14.613 3.819-4.715 8.064-7.211 17.301-7.211 26.731C202.667 488.085 226.581 512 256 512s53.333-23.915 53.376-53.333c0-9.43-2.496-18.667-7.211-26.731z"></path>
  </symbol>
  <symbol xmlns="http://www.w3.org/2000/svg" viewBox="0 0 24 24" id="qr-code">
    <path d="M21 21v3h3v-3h-1v-1h-1v1h-1zm2 1v1h-1v-1h1zM0 24h8v-8H0v8zm1-7h6v6H1v-6zm20 3v-1h1v1h-1zM2 18h4v4H2v-4zm8-3v2H9v-2h1zm2-8h1v1h-1V7zm1-1h1v1h-1V6zm1 2V7h1v1h-1zm0-2h1V0h-3v1H9v1h3v1h2v3zm-1-4V1h1v1h-1zM6 6H2V2h4v4zm6 0h-1V4H9V3h3v1h1v1h-1v1zM8 0H0v8h8V0zM7 7H1V1h6v6zm3 0H9V6h2v2h-1V7zm-3 3v1H6v-1h1zm15 6h2v3h-1v-1h-2v1h-1v-1h-1v-1h1v-1h1v1h1v-1zm-4 2h-1v1h-1v-1h-1v-1h1v-1h-2v-1h-1v1h-1v1h-2v1H9v6h5v-1h-1v-2h-1v2h-2v-1h1v-1h-1v-1h3v-1h2v2h-1v1h1v2h1v-2h1v1h1v-1h1v-2h1v-1h-2v-1zm-1 3h-1v-1h1v1zm6-6v-2h1v2h-1zm-9 5v1h-1v-1h1zm5 3v-1h1v2h-2v-1h1zM16 0v8h8V0h-8zm7 7h-6V1h6v6zm-1-1h-4V2h4v4zm1 4h1v2h-1v1h-2V9h1v2h1v-1zm-4 6v-3h1v3h-1zM6 9v1H4v1h1v1H2v-1h1v-1H1v1H0V9h6zm-1 4v-1h1v3H5v-1H4v1H3v-1H2v1H0v-1h1v-1h4zm-4-1v1H0v-1h1zm19-2h-1V9h1v1zM7 14h1v1H7v-1zm15 2h-1v-1h1v1zm-5 1v-1h1v1h-1zm-1-1h1v-3h2v-1h1v-1h-1v-1h-2V9h-1v1h-1V9h-1v1h-1V9h-1v1h-1v1h-1v-1h1V9H7v1h2v1H7v1h1v2h1v-1h2v2h1v-4h1v2h3v1h-2v1h2v1zm1-5h1v1h-1v-1zm-2 1h-1v-1h1v1z"></path>
  </symbol>
  <!-- <symbol
    viewBox="0 0 24 24"
    xmlns="http://www.w3.org/2000/svg"
    id="scan-qr-code"
  >
    <path
      fill-rule="evenodd"
      clip-rule="evenodd"
      d="M9 3H3V9H5V5H9V3ZM3 21V15H5V19H9V21H3ZM15 3V5H19V9H21V3H15ZM19 15H21V21H15V19H19V15ZM7 7H11V11H7V7ZM7 13H11V17H7V13ZM17 7H13V11H17V7ZM13 13H17V17H13V13Z"
      fill="currentColor"
    />
  </symbol> -->
  <symbol xmlns="http://www.w3.org/2000/svg" viewBox="0 0 512 512" id="scan-qr-code">
    <path d="M30 30h90V0H0v120h30zM392 0v30h90v90h30V0zm90 482h-90v30h120V392h-30zM30 392H0v120h120v-30H30zm0 0"></path>
    <path d="M61 60v150h150v-90h30V90h-30V60zm120 120H91V90h90zm270 270V300h-60v-30h-30v30h-90v30h30v30h-30v30h30v60zM331 330h90v90h-90zm-180-60h60v-30H61v30h60v30H91v30h30v60H91v30h30v30h150v-30h-30v-30h-30v30h-60v-30h30v-30h-30zm0 0"></path>
    <path d="M121 120h30v30h-30zm240 0h30v30h-30zm0 0"></path>
    <path d="M391 210h60V60H301v150h60v30h30zm-60-30V90h90v90zm120 90v-30h-60v30zm-90 90h30v30h-30zm-120-30h30v30h-30zm-60 30h30v-60h-30zm30-90h30v30h-30zM91 330H61v60h30v-60zm-30 90h30v30H61zM241 60h30v30h-30zm0 120h30v-60h-30zm30 60v-30h-30v60h120v-30zm0 0"></path>
  </symbol>
  <symbol fill="transparent" stroke="#FFF" stroke-linecap="round" stroke-linejoin="round" stroke-width="2" xmlns="http://www.w3.org/2000/svg" viewBox="0 0 24 24" id="share">
    <circle cx="18" cy="5" r="3"></circle>
    <circle cx="6" cy="12" r="3"></circle>
    <circle cx="18" cy="19" r="3"></circle>
    <path d="M8.59 13.51l6.83 3.98m-.01-10.98l-6.82 3.98"></path>
  </symbol>
  <symbol xmlns="http://www.w3.org/2000/svg" viewBox="0 0 192.904 192.904" id="search">
    <path d="M190.707 180.101l-47.078-47.077c11.702-14.072 18.752-32.142 18.752-51.831C162.381 36.423 125.959 0 81.191 0 36.422 0 0 36.423 0 81.193c0 44.767 36.422 81.187 81.191 81.187 19.688 0 37.759-7.049 51.831-18.751l47.079 47.078a7.474 7.474 0 005.303 2.197 7.498 7.498 0 005.303-12.803zM15 81.193C15 44.694 44.693 15 81.191 15c36.497 0 66.189 29.694 66.189 66.193 0 36.496-29.692 66.187-66.189 66.187C44.693 147.38 15 117.689 15 81.193z"></path>
  </symbol>
  <symbol xmlns="http://www.w3.org/2000/svg" viewBox="182.898 299.378 924.385 285.759" id="signature">
    <path stroke="#000" d="M218.05 401.02c1.89.03 3.62-1.19 7.22-3.37 3.6-2.18 5.87-4.03 10.77-7.53 4.91-3.5 8.13-5.82 13.76-9.99 5.63-4.18 8.66-6.44 14.39-10.89 5.73-4.44 8.72-6.81 14.26-11.35 5.54-4.54 8.41-6.92 13.46-11.33 5.04-4.4 7.49-6.65 11.77-10.7 4.28-4.05 6.21-6.08 9.62-9.55 3.41-3.46 5.13-4.93 7.42-7.78 2.3-2.86 3.32-4.08 4.06-6.48.74-2.4.57-3.71-.34-5.54-.91-1.83-2.08-2.97-4.21-3.61-2.14-.64-4.01-.88-6.46.39-2.46 1.27-3.31 2.87-5.82 5.95-2.51 3.07-3.57 5.07-6.73 9.44-3.17 4.36-4.99 6.83-9.08 12.38-4.09 5.56-6.42 8.68-11.37 15.39-4.94 6.7-7.72 10.47-13.36 18.13-5.63 7.65-8.77 11.92-14.82 20.16-6.05 8.24-9.35 12.72-15.44 21.04-6.09 8.33-9.28 12.74-15 20.58-5.71 7.85-8.62 11.88-13.59 18.65-4.97 6.77-7.34 10.02-11.25 15.21-3.91 5.19-6.01 7.17-8.29 10.72-2.28 3.56-3.17 4.79-3.12 7.05.06 2.26 1.31 3.44 3.4 4.26 2.09.82 3.88.98 7.06-.16 3.19-1.14 4.76-3.1 8.88-5.56 4.12-2.45 6.66-4.15 11.73-6.7 5.06-2.56 8.06-3.93 13.59-6.07 5.53-2.14 8.57-3.15 14.05-4.64 5.47-1.48 8.31-2.02 13.34-2.79 5.03-.76 7.43-.86 11.83-1.04 4.39-.17 6.28.02 10.15.18 3.86.16 5.57.53 9.17.61 3.61.08 5.28.23 8.83-.19 3.55-.42 5.31-.72 8.94-1.91 3.63-1.18 5.46-2.01 9.23-4.01 3.76-2 5.59-3.28 9.58-5.99 3.99-2.7 6.13-4.34 10.36-7.51 4.23-3.18 6.49-5.01 10.79-8.35 4.3-3.34 6.55-5.21 10.69-8.34s6.3-4.78 10.03-7.32c3.72-2.54 5.66-3.59 8.59-5.39 2.93-1.79 4.39-2.26 6.06-3.58 1.66-1.32 2.05-1.93 2.28-3.03.23-1.09-.23-1.69-1.13-2.46-.91-.77-1.89-1.42-3.4-1.39-1.5.04-2.38.3-4.12 1.57-1.74 1.28-2.6 2.48-4.58 4.82-1.98 2.34-2.91 3.96-5.34 6.89-2.44 2.93-3.93 4.45-6.84 7.76-2.9 3.32-4.66 5.21-7.69 8.82-3.04 3.6-4.73 5.61-7.47 9.21-2.75 3.61-4.23 5.45-6.25 8.8-2.02 3.34-3.24 4.92-3.85 7.94-.62 3.02-.31 4.73.78 7.13 1.09 2.41 2.26 3.69 4.67 4.87 2.4 1.19 4.34 1.68 7.34 1.06 3.01-.62 4.55-1.88 7.67-4.16 3.13-2.28 4.63-3.98 7.95-7.22 3.32-3.24 5.19-5.19 8.66-8.98 3.47-3.78 5.38-6 8.69-9.95 3.3-3.96 5-6.16 7.82-9.82 2.81-3.66 4.97-5.48 6.23-8.48 1.26-3 1.02-4.86.06-6.51-.97-1.66-2.72-2.28-4.88-1.76-2.16.53-3.97 1.63-5.93 4.38-1.96 2.75-2.58 5.42-3.89 9.36-1.3 3.95-1.93 6.41-2.63 10.37-.7 3.96-1.43 6.01-.86 9.42.56 3.41 1.51 5.21 3.69 7.62 2.19 2.41 3.94 3.72 7.25 4.43 3.31.7 5.41.22 9.31-.9 3.9-1.13 5.94-2.35 10.21-4.72 4.26-2.36 6.59-4.01 11.11-7.11 4.53-3.11 7.01-5.07 11.51-8.41s6.94-5.35 10.98-8.29c4.04-2.94 6.58-4.29 9.2-6.41 2.63-2.12 3.51-3.13 3.93-4.16.41-1.03-.66-1.59-1.86-.98-1.21.61-2.53 1.48-4.17 4.02-1.63 2.54-2.25 5.02-4 8.66-1.75 3.64-2.86 6.09-4.76 9.54-1.91 3.45-3.86 4.9-4.75 7.72-.9 2.82-.62 4.48.27 6.37.89 1.9 2.07 2.77 4.19 3.1 2.12.32 4.09.3 6.4-1.47 2.3-1.77 2.86-4.09 5.13-7.39 2.27-3.31 3.57-5.57 6.23-9.14 2.66-3.56 4.34-5.59 7.08-8.7 2.75-3.1 4.3-4.58 6.63-6.84 2.34-2.26 3.44-3.12 5.04-4.47 1.6-1.36 1.91-1.9 2.98-2.31 1.07-.4 1.26-.13 2.35.28 1.08.42 1.52.99 3.08 1.79 1.55.8 2.51 1.42 4.7 2.2 2.18.78 3.58 1.17 6.23 1.7 2.65.53 4.19.66 7.03.94 2.84.27 4.4.31 7.16.43 2.75.12 4.33.25 6.61.17 2.28-.09 3.56-.4 4.79-.61 1.23-.2 1.46-.75 1.36-.42-.09.33-.86.49-1.82 2.06-.96 1.57-1.4 3.06-2.97 5.8-1.58 2.75-2.72 4.85-4.91 7.94-2.19 3.08-4.26 4.69-6.03 7.49-1.76 2.79-2.7 4.26-2.8 6.49-.1 2.22.7 3.59 2.3 4.64 1.6 1.05 3.37 1.57 5.7.59 2.34-.99 3.42-2.68 5.98-5.5 2.55-2.83 3.86-5.15 6.78-8.63 2.93-3.48 4.72-5.56 7.85-8.77s5.15-4.93 7.81-7.3c2.67-2.36 4.16-3.15 5.51-4.53 1.35-1.37 1.25-2.11 1.23-2.35-.03-.23-.82.02-1.35 1.17-.52 1.15-1.43 2.37-1.28 4.58.15 2.21.55 4.01 2.04 6.47s2.78 3.96 5.41 5.82c2.63 1.87 4.3 2.99 7.74 3.51 3.44.51 5.44.02 9.45-.92 4.01-.94 6.15-1.85 10.58-3.77 4.44-1.92 6.93-3.31 11.58-5.81 4.64-2.5 7.21-4.13 11.63-6.68 4.43-2.56 7.25-3.9 10.49-6.09 3.23-2.19 4.84-3.3 5.67-4.88.84-1.58-.11-2.89-1.48-3.03-1.38-.14-3.16.14-5.38 2.33-2.22 2.18-3.36 4.7-5.72 8.58-2.36 3.87-3.89 6.52-6.08 10.79-2.18 4.27-3.45 6.52-4.86 10.56-1.4 4.05-2.39 6.11-2.15 9.67.24 3.57 1.18 5.58 3.37 8.15 2.18 2.56 4.03 3.96 7.55 4.68 3.53.73 5.74.06 10.09-1.05 4.34-1.11 6.74-2.19 11.64-4.49 4.9-2.31 7.61-3.91 12.86-7.04 5.25-3.13 8.16-5.09 13.37-8.6 5.21-3.52 7.95-5.6 12.67-8.96 4.71-3.36 7.5-5.21 10.9-7.82 3.41-2.61 5.15-3.7 6.13-5.23.97-1.54-.21-2.92-1.26-2.46-1.04.45-2.05 1.35-3.96 4.73-1.91 3.38-2.81 6.4-5.59 12.18a630.43 630.43 0 01-8.3 16.7c-3.72 7.22-5.94 11.35-10.29 19.43-4.35 8.07-6.77 12.5-11.46 20.94-4.69 8.44-7.19 12.97-11.99 21.27-4.81 8.31-7.31 12.65-12.02 20.25-4.71 7.61-7.12 11.45-11.53 17.79-4.41 6.34-6.63 9.32-10.53 13.91-3.9 4.58-6.03 6.46-8.98 9.01-2.96 2.56-4.43 2.92-5.79 3.76-1.36.84-.63 1.24-1.02.43s.25-3.79-.91-4.48c-1.16-.68-4.22-.54-4.88 1.07-.66 1.61-.18 5.24 1.59 6.98 1.78 1.73 4.32 2.43 7.29 1.7 2.96-.73 4.31-2.18 7.53-5.34 3.21-3.16 4.8-5.44 8.54-10.45 3.74-5 5.85-8.04 10.15-14.57 4.29-6.54 6.66-10.41 11.31-18.11 4.66-7.69 7.15-12.05 11.96-20.38 4.8-8.33 7.31-12.86 12.07-21.27 4.77-8.42 7.21-12.83 11.75-20.81 4.53-7.98 6.82-12.06 10.93-19.08 4.12-7.02 6.28-10.48 9.63-16.02 3.35-5.54 5.47-7.83 7.11-11.69 1.64-3.86 1.92-5.55 1.1-7.63-.82-2.08-2.7-3.2-5.22-2.77-2.52.44-3.88 2.21-7.38 4.94-3.49 2.74-5.62 5.18-10.1 8.73-4.48 3.55-7.19 5.58-12.3 9s-8.06 5.29-13.23 8.09c-5.18 2.8-7.97 4.17-12.64 5.93-4.67 1.76-7.16 2.3-10.73 2.86-3.57.56-5 .11-7.11-.08-2.12-.18-2.64.05-3.45-.84-.82-.88-.73-1.47-.65-3.59.08-2.12-.04-3.74 1.05-7 1.1-3.26 2.18-5.55 4.43-9.3 2.25-3.75 4.2-5.97 6.82-9.47 2.63-3.49 4.92-5.04 6.3-8.01 1.38-2.98 1.37-4.86.61-6.86-.77-2-2.12-3.22-4.45-3.14-2.32.09-3.82 1.45-7.18 3.56-3.37 2.11-5.47 4.31-9.65 7.01-4.17 2.7-6.76 4.23-11.24 6.49-4.49 2.26-7.06 3.43-11.19 4.81-4.13 1.39-6.3 1.8-9.47 2.12-3.16.32-4.41-.14-6.37-.51s-2.51-.45-3.41-1.34c-.9-.89-.72-1.63-1.11-3.11-.39-1.47-.05-2.46-.84-4.27-.8-1.81-1.51-3.2-3.15-4.76-1.64-1.56-2.79-2.5-5.04-3.03-2.25-.54-3.67-.78-6.22.37-2.55 1.16-3.68 2.71-6.51 5.4-2.84 2.69-4.44 4.76-7.66 8.03-3.23 3.28-5.15 5.23-8.48 8.34-3.32 3.11-5.5 4.64-8.16 7.22-2.65 2.58-4.23 3.63-5.13 5.69-.89 2.07-.23 3.57.66 4.62.88 1.06 2.04 1.39 3.77.67 1.73-.73 2.79-1.83 4.88-4.3 2.08-2.46 3.24-4.77 5.54-8.02 2.3-3.26 4.02-5.02 5.95-8.26 1.93-3.24 3.21-4.85 3.71-7.95.5-3.1.02-5-1.22-7.54-1.23-2.54-2.62-3.73-4.96-5.16-2.33-1.42-3.99-1.49-6.7-1.98s-4.13-.28-6.84-.47c-2.71-.2-4.16-.25-6.7-.51-2.55-.26-3.79-.39-6.03-.8-2.24-.41-3.15-.78-5.18-1.27-2.02-.48-2.92-.85-4.93-1.15-2.01-.3-3-.43-5.12-.37-2.13.06-3.24.02-5.51.68-2.27.67-3.55 1.02-5.86 2.66-2.31 1.65-3.25 2.93-5.68 5.56-2.43 2.62-3.66 4.34-6.46 7.57-2.8 3.23-4.48 5.27-7.53 8.58-3.04 3.3-4.94 5.16-7.7 7.97-2.76 2.81-4.81 3.78-6.09 6.07-1.29 2.29-.83 3.95-.33 5.36.51 1.4 1.44 1.94 2.86 1.66 1.41-.29 2.7-.87 4.24-3.08 1.53-2.21 1.66-4.52 3.44-7.97 1.77-3.44 3.38-5.62 5.43-9.26 2.06-3.63 3.85-5.6 4.84-8.91 1-3.32 1.02-5.31.13-7.65-.89-2.34-2.23-3.75-4.58-4.06-2.35-.31-4.03.46-7.18 2.49-3.16 2.04-4.76 4.46-8.6 7.7s-6.21 5.22-10.62 8.5c-4.41 3.28-6.95 5.14-11.42 7.9-4.47 2.76-6.91 4.14-10.93 5.89-4.02 1.76-6.14 2.21-9.16 2.87-3.01.67-4.14.51-5.91.47-1.76-.04-2.26.16-2.91-.67-.65-.84-.44-1.48-.36-3.51.09-2.04-.05-3.64.79-6.68.84-3.05 1.89-5.25 3.42-8.55 1.52-3.3 3.27-5.11 4.21-7.95s.98-4.5.48-6.24c-.5-1.75-1.53-2.63-2.99-2.47-1.46.16-2.58.85-4.3 3.25-1.71 2.41-2.01 5.08-4.27 8.77-2.26 3.7-3.91 5.89-7.03 9.71-3.12 3.82-5.09 5.95-8.59 9.39-3.49 3.44-5.48 5.23-8.88 7.79-3.4 2.56-5.36 3.5-8.12 5.01-2.76 1.51-4.07 1.66-5.68 2.55-1.61.9-1.82 1.56-2.37 1.92-.54.36-.54.51-.35-.12.19-.63.54-1.14 1.28-3.03s.92-3.45 2.42-6.42c1.51-2.98 2.67-4.98 5.11-8.44 2.43-3.46 4.09-5.45 7.07-8.86 2.98-3.4 4.76-5.2 7.85-8.17 3.08-2.96 4.66-4.36 7.56-6.65 2.9-2.29 4.49-3.07 6.92-4.8 2.43-1.73 3.7-2.2 5.23-3.85 1.52-1.65 2.06-2.57 2.38-4.39.32-1.82-.02-3.23-.8-4.7-.79-1.47-1.55-2.28-3.13-2.68-1.57-.39-2.59-.32-4.76.7-2.16 1.02-3.25 2.21-6.07 4.4-2.82 2.2-4.47 3.69-8.03 6.56-3.57 2.88-5.71 4.58-9.79 7.82-4.09 3.25-6.35 5.11-10.65 8.39-4.29 3.28-6.58 5.04-10.82 8.01-4.24 2.98-6.45 4.48-10.37 6.86-3.93 2.37-5.76 3.41-9.28 5.02-3.51 1.62-5.1 2.14-8.29 3.06-3.18.92-4.53 1.11-7.63 1.53-3.11.42-4.5.43-7.91.57-3.4.14-5.16-.01-9.1.13-3.93.14-5.99.13-10.57.58-4.58.44-7.09.67-12.32 1.63-5.22.96-8.14 1.59-13.81 3.15-5.66 1.56-8.77 2.61-14.52 4.65-5.76 2.04-8.84 3.38-14.24 5.55-5.39 2.16-8.28 3.42-12.73 5.29-4.44 1.87-6.9 2.39-9.49 4.06-2.59 1.68-3.03 3.22-3.45 4.33-.43 1.12.32 2.06 1.31 1.25s1.52-1.97 3.63-5.31 3.41-5.99 6.92-11.39 5.84-8.72 10.63-15.6c4.79-6.89 7.67-10.94 13.32-18.83 5.65-7.89 8.83-12.3 14.91-20.62 6.09-8.31 9.4-12.78 15.51-20.97 6.11-8.19 9.29-12.42 15.05-19.97 5.76-7.55 8.6-11.27 13.76-17.78 5.16-6.51 7.6-9.56 12.03-14.77 4.44-5.21 6.45-7.58 10.14-11.27 3.69-3.68 5.56-4.98 8.3-7.17 2.75-2.19 4.11-2.41 5.42-3.78 1.31-1.38 1.1-2.2 1.15-3.09.05-.9-.33-1.43-.89-1.39-.57.05-.91.22-1.93 1.61-1.01 1.39-1.35 2.61-3.14 5.34-1.8 2.72-2.91 4.65-5.83 8.29-2.92 3.63-4.77 5.73-8.78 9.88-4.02 4.15-6.4 6.42-11.31 10.86-4.9 4.44-7.72 6.85-13.21 11.35-5.48 4.5-8.45 6.85-14.22 11.15-5.76 4.3-8.86 6.42-14.6 10.35-5.74 3.93-9.08 6.04-14.11 9.28-5.03 3.24-7.63 4.53-11.05 6.93-3.41 2.41-5.28 3.36-6.04 5.09-.76 1.73.37 3.52 2.27 3.56m653.25-48.17c-.34-1.4-.99-2.14-2.66-2.93-1.68-.79-3.04-1.38-5.71-1.02-2.67.37-4.34 1-7.66 2.85-3.31 1.85-4.81 3.29-8.92 6.4-4.11 3.11-6.45 4.8-11.63 9.13-5.18 4.34-8.28 6.88-14.26 12.54-5.98 5.66-9.47 9.05-15.64 15.76-6.17 6.71-9.62 10.6-15.23 17.77-5.61 7.16-8.5 11.1-12.81 18.06-4.31 6.96-6.25 10.54-8.74 16.73-2.48 6.18-3.44 9.12-3.68 14.2-.23 5.08.14 7.74 2.5 11.19 2.37 3.45 4.77 4.92 9.32 6.06 4.55 1.14 7.48.84 13.43-.36 5.95-1.2 9.34-2.5 16.33-5.66 6.98-3.15 10.9-5.32 18.6-10.12 7.69-4.79 11.89-7.75 19.86-13.83 7.96-6.08 12.17-9.64 19.96-16.57 7.8-6.92 11.8-10.79 19-18.06 7.2-7.26 10.75-11.16 16.99-18.27 6.24-7.1 9.21-10.82 14.22-17.27 5.01-6.45 7.19-9.61 10.82-14.98 3.63-5.36 5.29-7.71 7.32-11.86 2.02-4.15 3.18-6.24 2.8-8.88-.37-2.65-2.33-4.31-4.68-4.34-2.34-.02-4.02 1-7.04 4.23-3.02 3.22-4.35 6.13-8.08 11.9-3.73 5.77-6.07 9.68-10.57 16.95-4.51 7.27-7.23 11.66-11.97 19.41-4.74 7.74-7.38 12-11.74 19.31a885.67 885.67 0 00-10.06 17.21c-3.48 6.09-5.26 8.81-7.33 13.24-2.08 4.43-3.31 6.13-3.06 8.9.26 2.77 1.87 4.28 4.34 4.96 2.48.68 4.54.25 8.02-1.56 3.48-1.8 5.26-4.11 9.39-7.46 4.14-3.35 6.68-5.78 11.28-9.28 4.6-3.49 7.38-5.56 11.72-8.2 4.35-2.63 6.86-3.62 10-4.98 3.14-1.35 4.36-1.53 5.69-1.79 1.32-.26 1.12-.43.93.49-.2.91-1.25 1.75-1.91 4.09-.65 2.34-.73 4.25-1.37 7.59-.65 3.35-1.33 5.5-1.84 9.12-.51 3.63-1.32 5.7-.73 9.02.58 3.32 1.45 5.19 3.65 7.58 2.21 2.38 3.95 3.83 7.39 4.34 3.44.51 5.58-.32 9.82-1.79 4.23-1.48 6.5-2.81 11.35-5.6 4.85-2.78 7.66-4.67 12.89-8.33 5.22-3.67 8.2-5.94 13.22-9.99 5.02-4.05 7.69-6.37 11.87-10.24 4.19-3.88 6.28-5.72 9.05-9.15 2.77-3.43 4.24-4.99 4.8-8 .57-3.02-.13-4.97-1.96-7.08-1.84-2.11-3.95-3.55-7.21-3.47-3.26.08-5.37 1.48-9.09 3.85-3.72 2.38-5.74 4.36-9.5 8.02-3.77 3.66-5.97 5.99-9.33 10.29-3.35 4.3-5.16 6.83-7.45 11.21-2.29 4.38-3.43 6.62-3.98 10.7-.56 4.08-.48 6.47 1.22 9.69 1.69 3.22 3.62 4.91 7.24 6.4 3.63 1.49 6.1 1.44 10.86 1.05 4.76-.39 7.43-1.22 12.94-3 5.5-1.78 8.62-3.16 14.58-5.9 5.96-2.74 9.3-4.56 15.21-7.8s9.06-5.31 14.35-8.41c5.28-3.1 8.08-4.77 12.05-7.1 3.98-2.33 6.19-2.98 7.81-4.54 1.63-1.56 1.22-2.81.32-3.26-.91-.46-2.79-.55-4.85.99-2.06 1.54-3.09 3.61-5.46 6.72-2.37 3.12-3.94 5.5-6.38 8.87-2.45 3.37-4.57 4.88-5.85 7.98-1.27 3.1-1.38 5.08-.52 7.52.85 2.44 2.2 4.06 4.8 4.7 2.6.64 4.41.04 8.2-1.5 3.78-1.53 5.91-3.47 10.72-6.18 4.82-2.71 7.89-4.6 13.36-7.36 5.47-2.75 8.76-4.38 13.98-6.41 5.21-2.02 8.26-2.84 12.08-3.71 3.83-.87 5.37-.63 7.03-.62 1.65.01 1.48-.27 1.23.66-.25.94-1.46 1.72-2.51 4.01-1.04 2.28-1.6 4.22-2.71 7.41-1.1 3.19-2.16 5.19-2.82 8.54-.65 3.35-.93 5.38-.47 8.23.46 2.85 1.46 4.42 2.78 6.02 1.32 1.59 2.57 1.95 3.82 1.96 1.25 0 1.94-1.01 2.44-1.94.5-.94-.02-1.46.07-2.74.09-1.28.07-1.83.36-3.66.28-1.84.31-2.89 1.06-5.5.74-2.62 1.63-4.34 2.68-7.58 1.06-3.23 2.39-5.24 2.59-8.58.2-3.34-.13-5.45-1.6-8.1-1.47-2.65-2.67-4.27-5.76-5.13-3.08-.86-5.18-.26-9.65.85-4.48 1.11-7.29 2.46-12.7 4.69-5.41 2.23-8.7 3.89-14.36 6.46s-8.96 4.2-13.95 6.39c-4.99 2.19-7.74 3.04-11.02 4.56-3.27 1.51-4.37 2.08-5.34 3-.97.92-.42 1.81.48 1.6.9-.2 2.2-.61 4-2.64 1.8-2.02 2.63-4.31 4.99-7.47 2.36-3.16 4.36-5.18 6.8-8.33 2.44-3.16 4.46-4.59 5.39-7.45.92-2.85.5-5.03-.75-6.82-1.25-1.78-2.79-2.74-5.5-2.09-2.7.65-4.13 2.69-8.02 5.35-3.9 2.65-6.35 4.66-11.45 7.94-5.09 3.28-8.22 5.31-14.02 8.46-5.8 3.16-9.14 4.89-14.97 7.34-5.82 2.45-9 3.59-14.17 4.91-5.17 1.33-7.8 1.63-11.67 1.71-3.86.08-5.43-.49-7.66-1.29-2.23-.8-2.62-1.12-3.48-2.7-.85-1.59-1.19-2.45-.8-5.24.39-2.79.87-4.93 2.75-8.71 1.89-3.78 3.52-6.34 6.67-10.17 3.15-3.84 5.43-6.01 9.08-9.01 3.64-3.01 6.06-4.28 9.14-6.01 3.09-1.72 4.62-1.78 6.29-2.61 1.67-.84 1.84-1.57 2.06-1.58.21 0-.12.02-.98 1.57s-1.12 3.11-3.33 6.18-3.92 5.3-7.73 9.16c-3.81 3.87-6.45 6.22-11.32 10.15-4.88 3.92-7.88 6.14-13.05 9.47-5.17 3.34-8.11 5.01-12.8 7.21-4.7 2.2-7.18 2.93-10.68 3.79-3.49.86-4.91.51-6.79.53-1.89.03-2.15.38-2.64-.41-.48-.78-.01-1.45.21-3.5s.29-3.67.91-6.76c.62-3.09 1.41-5.17 2.19-8.67.78-3.51 1.92-5.56 1.71-8.86-.21-3.3-.98-5.3-2.78-7.65-1.8-2.34-3.25-3.6-6.23-4.06-2.97-.45-4.82.19-8.65 1.79-3.84 1.6-5.98 3.3-10.51 6.21-4.53 2.92-7.3 5-12.12 8.37-4.82 3.37-7.7 5.52-11.98 8.48-4.28 2.97-6.77 4.27-9.43 6.34-2.66 2.08-3.29 3.23-3.86 4.04-.58.8.26 1.46.99-.01s.91-3.19 2.67-7.35c1.76-4.16 2.99-7.29 6.13-13.44 3.15-6.15 5.33-10 9.59-17.31 4.26-7.31 6.91-11.57 11.73-19.23 4.82-7.65 7.6-12.01 12.38-19.04 4.78-7.03 7.44-10.77 11.52-16.1 4.09-5.32 6.49-7.39 8.9-10.51 2.42-3.13 2.95-4.09 3.18-5.11.23-1.02-1.1-1.45-2.01.01-.92 1.45-.88 3.41-2.54 7.26-1.67 3.84-2.61 6.56-5.78 11.98-3.18 5.42-5.3 8.62-10.08 15.11-4.77 6.48-7.69 10.21-13.8 17.32-6.11 7.11-9.63 11-16.75 18.23-7.13 7.22-11.12 11.07-18.88 17.9-7.76 6.83-11.97 10.34-19.91 16.24-7.95 5.91-12.17 8.78-19.83 13.28-7.65 4.5-11.63 6.48-18.43 9.22-6.8 2.74-10.22 3.62-15.56 4.49-5.34.87-7.71.6-11.14-.16-3.43-.76-4.37-1.36-6.02-3.64-1.65-2.28-2.3-3.63-2.23-7.76.08-4.13.5-7.06 2.62-12.9 2.11-5.85 3.89-9.49 7.97-16.32s6.92-10.77 12.43-17.82c5.52-7.05 8.96-10.91 15.14-17.44 6.18-6.54 9.69-9.86 15.76-15.22 6.06-5.36 9.24-7.77 14.57-11.6 5.33-3.82 7.87-5.33 12.1-7.52 4.23-2.18 6.11-2.56 9.06-3.39 2.95-.83 3.9-.41 5.68-.75 1.78-.34 2.06-.41 3.2-.93 1.14-.53 1.8-.53 2.5-1.69.7-1.15 1.32-2.67.99-4.08"/>
  </symbol>
  <symbol xmlns="http://www.w3.org/2000/svg" viewBox="0 0 48 48" id="star">
    <path fill="#FFCA28" d="M24 4l7 13 14 2-10 10 2 15-13-7-13 7 2-15L3 19l14-2z"/>
    <path fill="#F9A825" d="M24 25l7-8-7-13zm21-6l-21 6 11 4zm-8 25L24 25v12zM13 29l-2 15 13-19zM3 19l21 6-7-8z"/>
  </symbol>
  <!-- <symbol
    viewBox="0 0 24 24"
    xmlns="http://www.w3.org/2000/svg"
    id="printer"
  >
    <path
      fill-rule="evenodd"
      clip-rule="evenodd"
      d="M8 4H16V6H8V4ZM18 6H22V18H18V22H6V18H2V6H6V2H18V6ZM20 16H18V14H6V16H4V8H20V16ZM8 16H16V20H8V16ZM8 10H6V12H8V10Z"
      fill="currentColor"
    />
  </symbol> -->
  <symbol xmlns="http://www.w3.org/2000/svg" viewBox="0 0 512 512" xml:space="preserve" id="printer">
    <g>
      <g>
        <path d="M482,182.58V135c0-24.813-20.187-45-45-45h-23.787L327.617,4.404c-0.018-0.018-0.039-0.035-0.057-0.054
          c-2.659-2.638-6.352-4.277-10.328-4.339C317.154,0.01,317.079,0,317.001,0H105c-8.284,0-15,6.716-15,15v75H75
          c-24.813,0-45,20.187-45,45v47.58C12.541,188.772,0,205.445,0,225v182c0,24.813,20.187,45,45,45h45v45c0,8.284,6.716,15,15,15h302
          c8.284,0,15-6.716,15-15v-45h45c24.813,0,45-20.187,45-45V225C512,205.445,499.459,188.772,482,182.58z M422,120h15
          c8.271,0,15,6.729,15,15v45h-30V120z M332,51.213L370.787,90H332V51.213z M120,30h182v75c0,8.284,6.716,15,15,15h75v60H120V30z
          M60,135c0-8.271,6.729-15,15-15h15v60H60V135z M392,482H120V332h272V482z M482,407c0,8.271-6.729,15-15,15h-45v-90h15
          c8.284,0,15-6.716,15-15s-6.716-15-15-15c-12.246,0-344.772,0-362,0c-8.284,0-15,6.716-15,15s6.716,15,15,15h15v90H45
          c-8.271,0-15-6.729-15-15V225c0-8.271,6.729-15,15-15c18.142,0,401.331,0,422,0c8.271,0,15,6.729,15,15V407z"/>
      </g>
    </g>
    <g>
      <g>
        <path d="M347,362H165c-8.284,0-15,6.716-15,15s6.716,15,15,15h182c8.284,0,15-6.716,15-15S355.284,362,347,362z"/>
      </g>
    </g>
    <g>
      <g>
        <path d="M347,422H165c-8.284,0-15,6.716-15,15s6.716,15,15,15h182c8.284,0,15-6.716,15-15S355.284,422,347,422z"/>
      </g>
    </g>
    <g>
      <g>
        <path d="M105,240H75c-8.284,0-15,6.716-15,15s6.716,15,15,15h30c8.284,0,15-6.716,15-15S113.284,240,105,240z"/>
      </g>
    </g>
  </symbol>
  <symbol
    viewBox="0 0 24 24"
    xmlns="http://www.w3.org/2000/svg"
    id="link"
  >
    <path
      d="M14.8284 12L16.2426 13.4142L19.071 10.5858C20.6331 9.02365 20.6331 6.49099 19.071 4.9289C17.509 3.3668 14.9763 3.3668 13.4142 4.9289L10.5858 7.75732L12 9.17154L14.8284 6.34311C15.6095 5.56206 16.8758 5.56206 17.6568 6.34311C18.4379 7.12416 18.4379 8.39049 17.6568 9.17154L14.8284 12Z"
      fill="currentColor"
    />
    <path
      d="M12 14.8285L13.4142 16.2427L10.5858 19.0711C9.02372 20.6332 6.49106 20.6332 4.92896 19.0711C3.36686 17.509 3.36686 14.9764 4.92896 13.4143L7.75739 10.5858L9.1716 12L6.34317 14.8285C5.56212 15.6095 5.56212 16.8758 6.34317 17.6569C7.12422 18.4379 8.39055 18.4379 9.1716 17.6569L12 14.8285Z"
      fill="currentColor"
    />
    <path
      d="M14.8285 10.5857C15.219 10.1952 15.219 9.56199 14.8285 9.17147C14.4379 8.78094 13.8048 8.78094 13.4142 9.17147L9.1716 13.4141C8.78107 13.8046 8.78107 14.4378 9.1716 14.8283C9.56212 15.2188 10.1953 15.2188 10.5858 14.8283L14.8285 10.5857Z"
      fill="currentColor"
    />
  </symbol>
</svg>
