<svg height="474pt" viewBox="0 -76 474.063 474" width="474pt" xmlns="http://www.w3.org/2000/svg" xmlns:xlink="http://www.w3.org/1999/xlink"><linearGradient id="a"><stop offset="0" stop-color="#00efd1"/><stop offset="1" stop-color="#00acea"/></linearGradient><linearGradient id="b" gradientUnits="userSpaceOnUse" x1="237.034" x2="237.034" xlink:href="#a" y1="-82.581824" y2="412.186176"/><linearGradient id="c" gradientUnits="userSpaceOnUse" x1="175.865" x2="175.865" xlink:href="#a" y1="-82.581824" y2="412.186176"/><linearGradient id="d" gradientUnits="userSpaceOnUse" x1="298.203" x2="298.203" xlink:href="#a" y1="-82.581824" y2="412.186176"/><linearGradient id="e" gradientUnits="userSpaceOnUse" x1="237.037869" x2="237.037869" xlink:href="#a" y1="-82.581454" y2="412.186546"/><path d="m448.320312 159.183594c-16.289062-16.394532-38.472656-25.582032-61.585937-25.507813-2.386719 0-4.851563.03125-7.363281.167969-3.800782-74.429688-65.570313-133.8125-140.953125-133.8125-31.050781-.09375-61.25 10.152344-85.828125 29.125-22.652344 17.445312-39.53125 41.304688-48.441406 68.46875-60.078126 9.730469-104.2070318 61.636719-104.1406255 122.5v.28125.324219c0 .125-.0078125.410156-.0078125.535156.00390625 55.296875 44.988281 100.441406 100.28125 100.441406h273.507812c55.289063 0 100.273438-45.144531 100.273438-100.4375 0-.707031-.085938-1.414062-.257812-2.097656-.417969-22.539063-9.550782-44.039063-25.484376-59.988281zm-74.53125 146.523437h-273.507812c-46.320312 0-84.03125-37.726562-84.273438-83.988281.007813-.175781.011719-.640625.011719-.820312 0-.308594-.015625-.191407-.039062-1.191407h.023437c0-54 40.941406-100.777343 95.234375-107.125 3.195313-.328125 5.875-2.566406 6.765625-5.65625 15.425782-53.734375 64.507813-90.804687 120.410156-90.945312 69 0 125.140626 56.144531 125.140626 125.121093 0 .5 0 1.007813-.011719 1.511719-.0625 2.429688.984375 4.757813 2.84375 6.324219 1.863281 1.5625 4.332031 2.199219 6.71875 1.722656 20.941406-3.9375 42.550781 1.667969 58.9375 15.289063 16.386719 13.625 25.84375 33.847656 25.792969 55.160156-.003907.675781.070312 1.347656.214843 2.007813-.996093 45.617187-38.410156 82.589843-84.261719 82.589843zm0 0" fill="url(#b)"/><path d="m193.832031 144.777344-47.25 47.25 47.25 47.25 11.3125-11.3125-35.933593-35.9375 35.933593-35.933594zm0 0" fill="url(#c)"/><path d="m268.921875 156.09375 35.9375 35.933594-35.9375 35.9375 11.3125 11.3125 47.25-47.25-47.25-47.25zm0 0" fill="url(#d)"/><path d="m211.59375 255.167969 35.441406-130.46875 15.441406 4.191406-35.441406 130.472656zm0 0" fill="url(#e)"/></svg>