<?xml version="1.0"?>
<svg width="24" height="24" xmlns="http://www.w3.org/2000/svg" xmlns:svg="http://www.w3.org/2000/svg">
 <g class="layer">
  <title>Layer 1</title>
  <path d="m24.04762,24.04762l-2.784,0l-1.07,-3l-4.875,0l-1.077,3l-2.697,0l4.941,-13l2.604,0l0.61975,1.625l0.61975,1.625l2.479,6.5c0.41316,1.08333 0.82633,2.16667 1.2395,3.25zm-4.573,-5.069l-1.705,-4.903l-1.712,4.903l3.417,0zm-4.696,-12.294l-2.075,-5.533l5.414,-1.104l-0.976,1.868c2.999,2.418 4.116,5.645 4.532,8.132c-1.736,-2.913 -3.826,-4.478 -5.885,-5.321l-1.01,1.958zm-7.895,10.781l1.985,5.566l-5.43,1.016l1.006,-1.852c-2.96,-2.465 -4.021,-5.654 -4.397,-8.148c1.689,2.94 3.749,4.483 5.794,5.36l1.042,-1.942z" fill="#ffffff" id="svg_1"/>
  <text fill="#ffffff" font-family="Sans-serif" font-size="24" font-weight="bold" id="svg_3" stroke-width="0" text-anchor="middle" transform="matrix(0.508229 0 0 0.57108 -1.32354 -4.20313)" x="14.831641" xml:space="preserve" y="27.368334">文</text>
 </g>
</svg>