<svg xmlns="http://www.w3.org/2000/svg" viewBox="0 0 405.335 405.335" fill="#FFF"><circle cx="42.88" cy="362.669" r="42.667"/><path d="M85.585 219.56a149.316 149.316 0 00-42.705-6.225 149.32 149.32 0 00-42.667 6.187v45.44c54.016-23.51 116.863 1.219 140.373 55.235a106.666 106.666 0 010 85.139h45.44c23.565-79.037-21.405-162.211-100.441-185.776z"/><path d="M88.13 110.527a254.586 254.586 0 00-45.25-3.859 256.014 256.014 0 00-42.667 3.84v42.667c115.424-23.645 228.161 50.757 251.806 166.18a213.344 213.344 0 01-.073 85.98h42.667c24.39-138.427-68.055-270.418-206.483-294.808z"/><path d="M88.5 2.738A361.02 361.02 0 0042.88.002 362.943 362.943 0 00.213 2.775v42.667a319.894 319.894 0 0142.667-2.773c176.731 0 320 143.269 320 320a320.128 320.128 0 01-3.2 42.667h42.667C426.854 207.495 286.341 27.246 88.5 2.738z"/></svg>