<svg xmlns="http://www.w3.org/2000/svg" width="0" height="0" style="display: none;">
  <symbol fill="currentColor" viewBox="0 0 24 24" id="github">
    <path d="M12 .297c-6.63 0-12 5.373-12 12 0 5.303 3.438 9.8 8.205 11.385.6.113.82-.258.82-.577 0-.285-.01-1.04-.015-2.04-3.338.724-4.042-1.61-4.042-1.61C4.422 18.07 3.633 17.7 3.633 17.7c-1.087-.744.084-.729.084-.729 1.205.084 1.838 1.236 1.838 1.236 1.07 1.835 2.809 1.305 3.495.998.108-.776.417-1.305.76-1.605-2.665-.3-5.466-1.332-5.466-5.93 0-1.31.465-2.38 1.235-3.22-.135-.303-.54-1.523.105-3.176 0 0 1.005-.322 3.3 1.23.96-.267 1.98-.399 3-.405 1.02.006 2.04.138 3 .405 2.28-1.552 3.285-1.23 3.285-1.23.645 1.653.24 2.873.12 3.176.765.84 1.23 1.91 1.23 3.22 0 4.61-2.805 5.625-5.475 5.92.42.36.81 1.096.81 2.22 0 1.606-.015 2.896-.015 3.286 0 .315.21.69.825.57C20.565 22.092 24 17.592 24 12.297c0-6.627-5.373-12-12-12"></path>
  </symbol>
  <symbol fill="currentColor" viewBox="0 0 30 30" id="linkedin">
    <path d="M9 25H4V10h5v15zM6.501 8a2.5 2.5 0 110-5.001A2.5 2.5 0 016.5 8zM27 25h-4.807v-7.3c0-1.741-.033-3.98-2.499-3.98-2.503 0-2.888 1.896-2.888 3.854V25H12V9.989h4.614v2.051h.065c.642-1.18 2.211-2.424 4.551-2.424 4.87 0 5.77 3.109 5.77 7.151V25z"></path>
  </symbol>
  <symbol fill="currentColor" viewBox="0 0 32 32" id="outlook">
    <path d="M28 5H4a4 4 0 00-4 4v13a4 4 0 004 4h24a4 4 0 004-4V9a4 4 0 00-4-4zM2 10.25l6.999 5.25L2 20.75v-10.5zM30 22c0 1.104-.898 2-2 2H4c-1.103 0-2-.896-2-2l7.832-5.875 4.368 3.277a3 3 0 003.599 0l4.369-3.277L30 22zm0-1.25l-7-5.25 7-5.25v10.5zm-12.801-2.148a1.98 1.98 0 01-1.199.4 1.99 1.99 0 01-1.2-.4L10.665 15.5l-.833-.625L2 9.001V9c0-1.103.897-2 2-2h24c1.102 0 2 .897 2 2l-12.801 9.602z"></path>
  </symbol>
  <symbol fill="currentColor" viewBox="0 0 24 24" id="skype">
    <path d="M12.069 18.874c-4.023 0-5.82-1.979-5.82-3.464 0-.765.561-1.296 1.333-1.296 1.723 0 1.273 2.477 4.487 2.477 1.641 0 2.55-.895 2.55-1.811 0-.551-.269-1.16-1.354-1.429l-3.576-.895c-2.88-.724-3.403-2.286-3.403-3.751 0-3.047 2.861-4.191 5.549-4.191 2.471 0 5.393 1.373 5.393 3.199 0 .784-.688 1.24-1.453 1.24-1.469 0-1.198-2.037-4.164-2.037-1.469 0-2.292.664-2.292 1.617s1.153 1.258 2.157 1.487l2.637.587c2.891.649 3.624 2.346 3.624 3.944 0 2.476-1.902 4.324-5.722 4.324m11.084-4.882l-.029.135-.044-.24c.015.045.044.074.059.12.12-.675.181-1.363.181-2.052a11.32 11.32 0 00-3.325-8.016 11.481 11.481 0 00-3.595-2.426c-1.318-.631-2.801-.93-4.328-.93-.72 0-1.444.07-2.143.204l.119.06-.239-.033.119-.025A6.667 6.667 0 006.731 0c-1.789 0-3.47.698-4.736 1.967A6.68 6.68 0 00.032 6.716c0 1.143.292 2.265.844 3.258l.02-.124.041.239-.06-.115a11.411 11.411 0 00.712 6.371 10.929 10.929 0 002.427 3.609 11.326 11.326 0 003.595 2.442c1.394.6 2.877.898 4.404.898.659 0 1.334-.06 1.977-.179l-.119-.062.24.046-.135.03a6.642 6.642 0 003.294.871 6.64 6.64 0 004.733-1.963 6.683 6.683 0 001.962-4.749 6.772 6.772 0 00-.853-3.266"></path>
  </symbol>
  <symbol fill="currentColor" viewBox="0 0 48 48" id="so">
    <path fill="#607D8B" d="M9 28h3v14H9z"></path>
    <path fill="#607D8B" d="M9 39h26v3H9z"></path>
    <path fill="#607D8B" d="M32 28h3v14h-3zm-17 6h14v3H15z"></path>
    <path fill="#A68A6E" d="M15.08 28.26L29 29.758l-.32 2.982-13.92-1.498z"></path>
    <path fill="#EF6C00" d="M36.87 6l2.134 13.835-2.966.458-2.133-13.836z"></path>
    <path fill="#FF9800" d="M28.47 8.237l6.831 12.218-2.62 1.464-6.83-12.218z"></path>
    <path fill="#D38B28" d="M20.501 14.551l11.5 7.982-1.712 2.465-11.5-7.982z"></path>
    <path fill="#C09553" d="M16.9 21.218l13.172 4.739-1.016 2.823-13.172-4.738z"></path>
  </symbol>
  <symbol fill="currentColor" viewBox="0 0 120 120" id="so2">
    <path d="M84.4 93.8V70.6h7.7v30.9H22.6V70.6h7.7v23.2z" fill="#bcbbbb"></path>
    <path d="M38.8 68.4l37.8 7.9 1.6-7.6-37.8-7.9-1.6 7.6zm5-18l35 16.3 3.2-7-35-16.4-3.2 7.1zm9.7-17.2l29.7 24.7 4.9-5.9-29.7-24.7-4.9 5.9zm19.2-18.3l-6.2 4.6 23 31 6.2-4.6-23-31zM38 86h38.6v-7.7H38V86z" fill="#f48023"></path>
  </symbol>
  <symbol fill="currentColor" viewBox="0 0 24 24" id="twitter">
    <path d="M23.954 4.569a10 10 0 01-2.825.775 4.958 4.958 0 002.163-2.723c-.951.555-2.005.959-3.127 1.184a4.92 4.92 0 00-8.384 4.482C7.691 8.094 4.066 6.13 1.64 3.161a4.822 4.822 0 00-.666 2.475c0 1.71.87 3.213 2.188 4.096a4.904 4.904 0 01-2.228-.616v.061a4.923 4.923 0 003.946 4.827 4.996 4.996 0 01-2.212.085 4.937 4.937 0 004.604 3.417 9.868 9.868 0 01-6.102 2.105c-.39 0-.779-.023-1.17-.067a13.995 13.995 0 007.557 2.209c9.054 0 13.999-7.496 13.999-13.986 0-.209 0-.42-.015-.63a9.936 9.936 0 002.46-2.548l-.047-.02z"/>
  </symbol>
  <symbol fill="currentColor" viewBox="0 0 24 24" id="wechat">
    <path d="M23.541 12.748c-.609-1.38-1.758-2.476-3.092-3.151-2.354-1.192-5.281-1.185-7.629.03-1.631.837-2.993 2.337-3.379 4.162-.318 1.344-.033 2.791.68 3.961 1.061 1.762 2.979 2.887 4.971 3.248 1.443.293 2.936.119 4.338-.285.842.326 1.592.854 2.408 1.246a52.471 52.471 0 00-.676-2.102c.916-.65 1.746-1.461 2.244-2.479.744-1.415.789-3.171.135-4.63zm-9.924-9.466c-2.495-1.404-5.602-1.615-8.286-.645-1.764.635-3.36 1.815-4.346 3.42-.895 1.45-1.23 3.258-.799 4.917.433 1.84 1.711 3.383 3.262 4.413-.3.85-.585 1.699-.855 2.555.975-.51 1.95-1.043 2.926-1.561 1.17.375 2.415.559 3.66.518a6.159 6.159 0 01-.255-2.951c.225-1.371.975-2.625 1.994-3.554 1.726-1.615 4.171-2.296 6.496-2.131-.436-2.135-1.936-3.939-3.824-4.98h.027zm1.733 9.989c-.209.652-1.156.848-1.615.352-.506-.459-.309-1.418.355-1.623.734-.31 1.582.537 1.26 1.271zm4.795.092c-.256.586-1.141.723-1.576.27-.209-.191-.27-.479-.344-.73.104-.458.42-.933.93-.955.705-.098 1.336.773.975 1.416h.015zM12.99 6.909c.008.961-1.275 1.561-1.995.909-.747-.535-.535-1.837.342-2.106.785-.315 1.713.344 1.651 1.185l.002.012zm-6.059.244c-.172.835-1.291 1.238-1.946.678-.759-.535-.546-1.861.345-2.131.873-.336 1.865.55 1.601 1.453z"/>
  </symbol>
  <symbol fill="currentColor" viewBox="0 0 54 54" id="slack">
    <g fill="none" fill-rule="evenodd"><path d="M19.712.133a5.381 5.381 0 0 0-5.376 5.387 5.381 5.381 0 0 0 5.376 5.386h5.376V5.52A5.381 5.381 0 0 0 19.712.133m0 14.365H5.376A5.381 5.381 0 0 0 0 19.884a5.381 5.381 0 0 0 5.376 5.387h14.336a5.381 5.381 0 0 0 5.376-5.387 5.381 5.381 0 0 0-5.376-5.386" fill="#36C5F0"></path><path d="M53.76 19.884a5.381 5.381 0 0 0-5.376-5.386 5.381 5.381 0 0 0-5.376 5.386v5.387h5.376a5.381 5.381 0 0 0 5.376-5.387m-14.336 0V5.52A5.381 5.381 0 0 0 34.048.133a5.381 5.381 0 0 0-5.376 5.387v14.364a5.381 5.381 0 0 0 5.376 5.387 5.381 5.381 0 0 0 5.376-5.387" fill="#2EB67D"></path><path d="M34.048 54a5.381 5.381 0 0 0 5.376-5.387 5.381 5.381 0 0 0-5.376-5.386h-5.376v5.386A5.381 5.381 0 0 0 34.048 54m0-14.365h14.336a5.381 5.381 0 0 0 5.376-5.386 5.381 5.381 0 0 0-5.376-5.387H34.048a5.381 5.381 0 0 0-5.376 5.387 5.381 5.381 0 0 0 5.376 5.386" fill="#ECB22E"></path><path d="M0 34.249a5.381 5.381 0 0 0 5.376 5.386 5.381 5.381 0 0 0 5.376-5.386v-5.387H5.376A5.381 5.381 0 0 0 0 34.25m14.336-.001v14.364A5.381 5.381 0 0 0 19.712 54a5.381 5.381 0 0 0 5.376-5.387V34.25a5.381 5.381 0 0 0-5.376-5.387 5.381 5.381 0 0 0-5.376 5.387" fill="#E01E5A"></path></g>
  </symbol>
  <symbol fill="currentColor" viewBox="0 0 24 24" id="telegram">
    <path d="m9.417 15.181-.397 5.584c.568 0 .814-.244 1.109-.537l2.663-2.545 5.518 4.041c1.012.564 1.725.267 1.998-.931l3.622-16.972.001-.001c.321-1.496-.541-2.081-1.527-1.714l-21.29 8.151c-1.453.564-1.431 1.374-.247 1.741l5.443 1.693 12.643-7.911c.595-.394 1.136-.176.691.218z"/>
  </symbol>
  <symbol fill="currentColor" viewBox="0 0 24 24" id="telegramCircle">
    <circle cx="12" cy="12" fill="#039be5" r="12"/>
    <path d="m5.491 11.74 11.57-4.461c.537-.194 1.006.131.832.943l.001-.001-1.97 9.281c-.146.658-.537.818-1.084.508l-3-2.211-1.447 1.394c-.16.16-.295.295-.605.295l.213-3.053 5.56-5.023c.242-.213-.054-.333-.373-.121l-6.871 4.326-2.962-.924c-.643-.204-.657-.643.136-.953z"/>
  </symbol>
</svg>
