<svg xmlns="http://www.w3.org/2000/svg" viewBox="0 0 512 512" fill="#FFF"><path d="M450.201 407.453c-1.505-.977-12.832-8.912-24.174-32.917-20.829-44.082-25.201-106.18-25.201-150.511 0-.193-.004-.384-.011-.576-.227-58.589-35.31-109.095-85.514-131.756V57.036C315.301 25.586 289.757 0 258.359 0h-4.719c-31.398 0-56.942 25.586-56.942 57.036v34.655c-50.372 22.734-85.525 73.498-85.525 132.334 0 44.331-4.372 106.428-25.201 150.511-11.341 24.004-22.668 31.939-24.174 32.917-6.342 2.935-9.469 9.715-8.01 16.586 1.473 6.939 7.959 11.723 15.042 11.723h109.947C179.391 477.903 213.785 512 256 512s76.609-34.097 77.223-76.238H443.17c7.082 0 13.569-4.784 15.042-11.723 1.457-6.871-1.669-13.652-8.011-16.586zM226.699 57.036c0-14.881 12.086-26.987 26.942-26.987h4.719c14.856 0 26.942 12.106 26.942 26.987v24.917a144.658 144.658 0 00-29.306-2.987A144.695 144.695 0 00226.7 81.95V57.036zM256 481.951c-25.673 0-46.614-20.617-47.223-46.188h94.445c-.608 25.57-21.549 46.188-47.222 46.188zm60.4-76.239H103.015c2.595-4.044 5.236-8.623 7.861-13.798 20.104-39.643 30.298-96.129 30.298-167.889 0-63.417 51.509-115.01 114.821-115.01s114.821 51.593 114.821 115.06c0 .185.003.369.01.553.057 71.472 10.25 127.755 30.298 167.286 2.625 5.176 5.267 9.754 7.861 13.798z"/></svg>