<svg xmlns="http://www.w3.org/2000/svg" viewBox="0 0 512 512" fill="#FFF"><path d="M467 61H45C20.187 61 0 81.187 0 106v300c0 24.813 20.187 45 45 45h422c24.813 0 45-20.187 45-45V106c0-24.813-20.187-45-45-45zm15 345c0 8.271-6.729 15-15 15H45c-8.271 0-15-6.729-15-15V106c0-8.271 6.729-15 15-15h422c8.271 0 15 6.729 15 15v300z"/><path d="M150 241c-49.626 0-90 40.374-90 90v15c0 24.813 20.187 45 45 45h90c24.813 0 45-20.187 45-45v-15c0-49.626-40.374-90-90-90zm60 105c0 8.271-6.729 15-15 15h-90c-8.271 0-15-6.729-15-15v-15c0-33.084 26.916-60 60-60s60 26.916 60 60v15zM150 121c-33.084 0-60 26.916-60 60s26.916 60 60 60 60-26.916 60-60-26.916-60-60-60zm0 90c-16.542 0-30-13.458-30-30s13.458-30 30-30 30 13.458 30 30-13.458 30-30 30zM437 331H287c-8.284 0-15 6.716-15 15s6.716 15 15 15h150c8.284 0 15-6.716 15-15s-6.716-15-15-15zM437 271H287c-8.284 0-15 6.716-15 15s6.716 15 15 15h150c8.284 0 15-6.716 15-15s-6.716-15-15-15zM437 211H287c-8.284 0-15 6.716-15 15s6.716 15 15 15h150c8.284 0 15-6.716 15-15s-6.716-15-15-15zM407 151h-90c-8.284 0-15 6.716-15 15s6.716 15 15 15h90c8.284 0 15-6.716 15-15s-6.716-15-15-15z"/></svg>