<svg id="Capa_1" enable-background="new 0 0 512 512" height="512" viewBox="0 0 512 512" fill="#FFF" width="512" xmlns="http://www.w3.org/2000/svg"><g><path d="m256 67.421-25.937 113.656 25.937 44.924 25.937-44.924z"/><path d="m333.854 241 85.461-79.29-111.397 34.366-25.937 44.924z"/><path d="m208.009 142.878 32.495-142.878c-34.921 2.092-68.559 11.705-99.265 27.229z"/><path d="m230.063 330.923 25.937 113.656 25.937-113.656-25.937-44.924z"/><path d="m271.496 0 32.495 142.878 66.77-115.649c-30.706-15.524-64.344-25.137-99.265-27.229z"/><path d="m0 271c2.025 34.927 11.547 68.576 27.005 99.305l107.033-99.305z"/><path d="m377.962 271 107.033 99.305c15.458-30.729 24.98-64.378 27.005-99.305z"/><path d="m134.038 241-107.034-99.305c-15.458 30.729-24.979 64.378-27.004 99.305z"/><path d="m178.146 241h51.873l-25.937-44.924-111.397-34.366z"/><path d="m329.971 157.878 139.406-43.007c-9.406-14.108-20.284-27.402-32.565-39.683-12.41-12.41-25.857-23.383-40.13-32.857z"/><path d="m182.029 354.123-139.406 43.006c9.406 14.107 20.284 27.402 32.565 39.683 12.41 12.41 25.857 23.383 40.13 32.857z"/><path d="m230.019 271h-51.873l-85.461 79.29 111.397-34.366z"/><path d="m377.962 241h134.038c-2.025-34.927-11.546-68.576-27.004-99.305z"/><path d="m329.971 354.123 66.711 115.546c14.273-9.474 27.719-20.446 40.13-32.857 12.281-12.281 23.159-25.576 32.565-39.683z"/><path d="m182.029 157.878-66.711-115.547c-14.273 9.474-27.719 20.446-40.13 32.857-12.282 12.281-23.159 25.576-32.565 39.683z"/><path d="m240.504 512-32.495-142.878-66.77 115.649c30.706 15.524 64.344 25.137 99.265 27.229z"/><path d="m303.991 369.122-32.495 142.878c34.921-2.092 68.559-11.705 99.265-27.229z"/><path d="m333.854 271h-51.873l25.937 44.924 111.397 34.366z"/></g></svg>