<?xml version="1.0"?>
<svg width="24" height="24" xmlns="http://www.w3.org/2000/svg" xmlns:svg="http://www.w3.org/2000/svg">
 <!-- Created with SVG-edit - https://github.com/SVG-Edit/svgedit-->
 <g class="layer" display="inline">
  <title>Layer 1</title>
  <text fill="#ffffff" font-family="Sans-serif" font-size="238" font-weight="bold" id="svg_2" stroke="#ffffff" stroke-width="0" text-anchor="middle" transform="matrix(0.0571877 0 0 0.0582592 -119.936 -81.7292)" x="2219.238741" xml:space="preserve" y="1632.771701">文</text>
  <text fill="#ffffff" font-family="Sans-serif" font-size="196" font-weight="bold" id="svg_3" stroke="#d822c3" stroke-width="0" text-anchor="middle" transform="matrix(0.0841351 0 0 0.0808339 66.6247 8.95596)" x="-586.091355" xml:space="preserve" y="162.541031">A</text>
  <path d="m19.28814,6.582104l0.077553,-0.612282l-0.912648,-0.106553c-2.31062,-0.269756 -4.575547,-1.413636 -5.836638,-2.947739c-0.226251,-0.275232 -0.377686,-0.540406 -0.33652,-0.589275c0.094425,-0.112111 2.395321,-1.00466 2.5899,-1.00466c0.079376,0 0.270052,0.164152 0.423723,0.364783c0.65539,0.855651 2.351521,1.748101 3.545716,1.865627l0.484162,0.047651l-0.083246,-0.529161c-0.08642,-0.549339 -0.062115,-0.664693 0.140041,-0.664693c0.129267,0 3.988157,2.109565 4.098472,2.240541c0.083687,0.099356 -0.447069,0.467949 -2.347368,1.630167c-0.825442,0.504831 -1.595278,0.917877 -1.710751,0.917877c-0.184821,0 -0.200667,-0.073283 -0.132397,-0.612282l0,-0.000001l0,0z" fill="#ffffff" id="svg_7" stroke="#ffffff" stroke-width="0" transform="rotate(-157.43 17.8801 4.25799)"/>
  <path d="m7.529928,21.957819l0.075029,-0.61789l-0.882934,-0.107529c-2.235393,-0.272226 -4.426581,-1.426583 -5.646614,-2.974736c-0.218885,-0.277753 -0.36539,-0.545355 -0.325564,-0.594672c0.091351,-0.113138 2.317336,-1.013861 2.50558,-1.013861c0.076791,0 0.26126,0.165656 0.409928,0.368124c0.634052,0.863488 2.274962,1.764111 3.430278,1.882714l0.468399,0.048087l-0.080536,-0.534007c-0.083606,-0.55437 -0.060093,-0.67078 0.135482,-0.67078c0.125058,0 3.858315,2.128885 3.965038,2.26106c0.080962,0.100266 -0.432513,0.472235 -2.270945,1.645096c-0.798568,0.509454 -1.543341,0.926284 -1.655054,0.926284c-0.178804,0 -0.194133,-0.073954 -0.128087,-0.61789l0,-0.000001l0,0z" fill="#ffffff" id="svg_4" stroke="#ffffff" stroke-width="0" transform="rotate(17.3853 6.16769 19.6124)"/>
 </g>
</svg>