<?xml version="1.0"?>
<svg width="24" height="24" xmlns="http://www.w3.org/2000/svg" xmlns:svg="http://www.w3.org/2000/svg">
 <g class="layer">
  <title>Layer 1</title>
  <path d="m23.964287,23.964287l-2.7695,0l-1.064427,-2.984375l-4.849609,0l-1.071391,2.984375l-2.682953,0l4.915266,-12.932292l2.590438,0l0.616522,1.616536l0.616522,1.616536l2.466089,6.466146c0.411008,1.077688 0.822026,2.155385 1.233044,3.233073zm-4.549182,-5.042599l-1.69612,-4.877464l-1.703083,4.877464l3.399203,0zm-4.671542,-12.229969l-2.064193,-5.504182l5.385802,-1.09825l-0.970917,1.858271c2.98338,2.405406 4.094563,5.615599 4.508396,8.089646c-1.726958,-2.897828 -3.806073,-4.454677 -5.854349,-5.293287l-1.00474,1.947802zm-7.85388,10.724849l1.974661,5.537011l-5.401719,1.010708l1.00076,-1.842354c-2.944583,-2.452162 -4.000057,-5.624552 -4.374099,-8.105563c1.680203,2.924688 3.729474,4.459651 5.763823,5.332083l1.036573,-1.931885z" fill="#ffffff" id="svg_1"/>
  <text fill="#ffffff" font-family="Sans-serif" font-size="24" font-weight="bold" id="svg_3" stroke-width="0" text-anchor="middle" transform="matrix(0.508229 0 0 0.57108 -1.32354 -4.20313)" x="13.683865" xml:space="preserve" y="27.952023">文</text>
 </g>
</svg>