<svg width="24" height="24" xmlns="http://www.w3.org/2000/svg"><g class="layer"><text fill="#fff" font-family="Sans-serif" font-size="238" font-weight="bold" stroke="#fff" stroke-width="0" text-anchor="middle" transform="matrix(.05719 0 0 .05826 -119.936 -81.73)" x="2219.239" y="1632.772">文</text><text fill="#fff" font-family="Sans-serif" font-size="196" font-weight="bold" stroke="#d822c3" stroke-width="0" text-anchor="middle" transform="matrix(.08414 0 0 .08083 66.625 8.956)" x="-586.091" y="162.541">A</text><path d="M17.472 1.571l-.307.536.802.449c2.03 1.136 3.683 3.061 4.258 4.962.104.34.142.644.085.673-.13.067-2.597.009-2.777-.066-.073-.03-.187-.255-.251-.5-.277-1.041-1.5-2.516-2.559-3.083l-.428-.23-.127.52c-.13.541-.197.638-.384.56-.12-.049-2.873-3.478-2.925-3.641-.039-.124.593-.26 2.794-.605.956-.15 1.825-.235 1.932-.19.17.07.157.144-.113.615zM6.767 22.258l.256-.568-.81-.366c-2.052-.928-3.798-2.684-4.5-4.526-.126-.33-.186-.63-.133-.665.12-.08 2.514-.275 2.694-.219.073.023.2.236.281.474.347 1.014 1.644 2.363 2.711 2.822l.433.186.082-.534c.086-.554.144-.658.33-.6.12.038 3.046 3.185 3.108 3.343.048.12-.553.321-2.658.891-.915.248-1.75.423-1.856.39-.171-.054-.164-.129.062-.628z" fill="#fff"/></g></svg>