<svg xmlns="http://www.w3.org/2000/svg" viewBox="0 0 480 480"><linearGradient id="a" gradientUnits="userSpaceOnUse" x1="-26.875" y1="619.13" x2="-26.875" y2="554.625" gradientTransform="matrix(8 0 0 -8 455 4941)"><stop offset="0" stop-color="#fc5c7d"/><stop offset=".129" stop-color="#f35e85"/><stop offset=".343" stop-color="#d9659b"/><stop offset=".616" stop-color="#b070bf"/><stop offset=".934" stop-color="#777ff0"/><stop offset="1" stop-color="#6a82fb"/></linearGradient><path d="M472 344h-40V32c0-17.673-14.327-32-32-32H80C62.327 0 48 14.327 48 32v320H8a8 8 0 00-8 8v64a8 8 0 008 8h40v16c0 17.673 14.327 32 32 32h368c17.673 0 32-14.327 32-32v-96a8 8 0 00-8-8zM80 16h320c8.837 0 16 7.163 16 16v32H64V32c0-8.837 7.163-16 16-16zm232 352v16H88v-16h224zm54.112 24L328 411.056v-38.112L366.112 392zM88 400h224v16H88v-16zm-16 16H56v-48h16v48zm-56-48h24v48H16v-48zm48 80v-16h256a7.82 7.82 0 003.544-.92v.08l64-32a8 8 0 000-14.32l-64-32v.08A7.82 7.82 0 00320 352H64V80h352v368a31.675 31.675 0 004.448 16H80c-8.837 0-16-7.164-16-16zm400 0c0 8.837-7.163 16-16 16s-16-7.163-16-16v-88h32v88z" fill="url(#a)"/><linearGradient id="b" gradientUnits="userSpaceOnUse" x1="-38.875" y1="619.13" x2="-38.875" y2="554.625" gradientTransform="matrix(8 0 0 -8 455 4941)"><stop offset="0" stop-color="#fc5c7d"/><stop offset=".129" stop-color="#f35e85"/><stop offset=".343" stop-color="#d9659b"/><stop offset=".616" stop-color="#b070bf"/><stop offset=".934" stop-color="#777ff0"/><stop offset="1" stop-color="#6a82fb"/></linearGradient><path d="M96 216h96a8 8 0 008-8v-96a8 8 0 00-8-8H96a8 8 0 00-8 8v96a8 8 0 008 8zm8-96h80v80h-80v-80z" fill="url(#b)"/><linearGradient id="c" gradientUnits="userSpaceOnUse" x1="-18.375" y1="619.13" x2="-18.375" y2="554.625" gradientTransform="matrix(8 0 0 -8 455 4941)"><stop offset="0" stop-color="#fc5c7d"/><stop offset=".129" stop-color="#f35e85"/><stop offset=".343" stop-color="#d9659b"/><stop offset=".616" stop-color="#b070bf"/><stop offset=".934" stop-color="#777ff0"/><stop offset="1" stop-color="#6a82fb"/></linearGradient><path d="M224 136h168v16H224v-16z" fill="url(#c)"/><linearGradient id="d" gradientUnits="userSpaceOnUse" x1="-18.375" y1="619.13" x2="-18.375" y2="554.625" gradientTransform="matrix(8 0 0 -8 455 4941)"><stop offset="0" stop-color="#fc5c7d"/><stop offset=".129" stop-color="#f35e85"/><stop offset=".343" stop-color="#d9659b"/><stop offset=".616" stop-color="#b070bf"/><stop offset=".934" stop-color="#777ff0"/><stop offset="1" stop-color="#6a82fb"/></linearGradient><path d="M224 168h168v16H224v-16z" fill="url(#d)"/><linearGradient id="e" gradientUnits="userSpaceOnUse" x1="-20.375" y1="619.13" x2="-20.375" y2="554.625" gradientTransform="matrix(8 0 0 -8 455 4941)"><stop offset="0" stop-color="#fc5c7d"/><stop offset=".129" stop-color="#f35e85"/><stop offset=".343" stop-color="#d9659b"/><stop offset=".616" stop-color="#b070bf"/><stop offset=".934" stop-color="#777ff0"/><stop offset="1" stop-color="#6a82fb"/></linearGradient><path d="M224 200h136v16H224v-16z" fill="url(#e)"/><linearGradient id="f" gradientUnits="userSpaceOnUse" x1="-14.375" y1="619.13" x2="-14.375" y2="554.625" gradientTransform="matrix(8 0 0 -8 455 4941)"><stop offset="0" stop-color="#fc5c7d"/><stop offset=".129" stop-color="#f35e85"/><stop offset=".343" stop-color="#d9659b"/><stop offset=".616" stop-color="#b070bf"/><stop offset=".934" stop-color="#777ff0"/><stop offset="1" stop-color="#6a82fb"/></linearGradient><path d="M288 104h104v16H288v-16z" fill="url(#f)"/><linearGradient id="g" gradientUnits="userSpaceOnUse" x1="-26.875" y1="619.13" x2="-26.875" y2="554.625" gradientTransform="matrix(8 0 0 -8 455 4941)"><stop offset="0" stop-color="#fc5c7d"/><stop offset=".129" stop-color="#f35e85"/><stop offset=".343" stop-color="#d9659b"/><stop offset=".616" stop-color="#b070bf"/><stop offset=".934" stop-color="#777ff0"/><stop offset="1" stop-color="#6a82fb"/></linearGradient><path d="M384 240H96a8 8 0 00-8 8v64a8 8 0 008 8h288a8 8 0 008-8v-64a8 8 0 00-8-8zm-8 64H104v-48h272v48z" fill="url(#g)"/><linearGradient id="h" gradientUnits="userSpaceOnUse" x1="-23.875" y1="619.13" x2="-23.875" y2="554.625" gradientTransform="matrix(8 0 0 -8 455 4941)"><stop offset="0" stop-color="#fc5c7d"/><stop offset=".129" stop-color="#f35e85"/><stop offset=".343" stop-color="#d9659b"/><stop offset=".616" stop-color="#b070bf"/><stop offset=".934" stop-color="#777ff0"/><stop offset="1" stop-color="#6a82fb"/></linearGradient><path d="M256 104h16v16h-16v-16z" fill="url(#h)"/><linearGradient id="i" gradientUnits="userSpaceOnUse" x1="-45.875" y1="619.13" x2="-45.875" y2="554.625" gradientTransform="matrix(8 0 0 -8 455 4941)"><stop offset="0" stop-color="#fc5c7d"/><stop offset=".129" stop-color="#f35e85"/><stop offset=".343" stop-color="#d9659b"/><stop offset=".616" stop-color="#b070bf"/><stop offset=".934" stop-color="#777ff0"/><stop offset="1" stop-color="#6a82fb"/></linearGradient><path d="M80 32h16v16H80V32z" fill="url(#i)"/><linearGradient id="j" gradientUnits="userSpaceOnUse" x1="-41.875" y1="619.13" x2="-41.875" y2="554.625" gradientTransform="matrix(8 0 0 -8 455 4941)"><stop offset="0" stop-color="#fc5c7d"/><stop offset=".129" stop-color="#f35e85"/><stop offset=".343" stop-color="#d9659b"/><stop offset=".616" stop-color="#b070bf"/><stop offset=".934" stop-color="#777ff0"/><stop offset="1" stop-color="#6a82fb"/></linearGradient><path d="M112 32h16v16h-16V32z" fill="url(#j)"/><linearGradient id="k" gradientUnits="userSpaceOnUse" x1="-37.875" y1="619.13" x2="-37.875" y2="554.625" gradientTransform="matrix(8 0 0 -8 455 4941)"><stop offset="0" stop-color="#fc5c7d"/><stop offset=".129" stop-color="#f35e85"/><stop offset=".343" stop-color="#d9659b"/><stop offset=".616" stop-color="#b070bf"/><stop offset=".934" stop-color="#777ff0"/><stop offset="1" stop-color="#6a82fb"/></linearGradient><path d="M144 32h16v16h-16V32z" fill="url(#k)"/></svg>