<svg xmlns="http://www.w3.org/2000/svg" viewBox="0 0 512 512" fill="#FFF"><path d="M494.41 134.669c-23.42-23.42-62.352-23.499-85.85 0l-16.572 16.568V75.21c0-24.812-20.057-44.998-44.711-44.998H330.99V14.999C330.99 6.716 324.275 0 315.991 0s-14.999 6.716-14.999 14.999v15.212h-29.999V14.999c0-8.283-6.716-14.999-15-14.999-8.284 0-14.999 6.716-14.999 14.999v15.212h-29.999V14.999C210.995 6.716 204.279 0 195.996 0c-8.284 0-14.999 6.716-14.999 14.999v15.212h-29.999V14.999C150.997 6.716 144.282 0 135.998 0s-14.999 6.716-14.999 14.999v15.212H91V14.999C91 6.716 84.284 0 76 0c-8.284 0-14.999 6.716-14.999 14.999v15.212H46C20.636 30.211.003 50.333.003 75.066v392.035c0 24.87 21.088 44.882 45.979 44.898l301.285-.02h.03c24.851 0 44.691-19.803 44.691-44.666V321.331c34.686-34.374 68.358-67.748 102.422-101.813 23.449-23.448 23.451-61.398 0-84.849zM361.989 467.315c0 8.255-6.394 14.767-14.703 14.767h-.01l-301.283.02c-8.518-.005-15.989-7.015-15.989-14.999L30 75.067c0-7.915 7.477-15.056 16-15.056h15v14.986c0 8.284 6.716 14.999 14.999 14.999s14.999-6.716 14.999-14.999V60.011h29.999v14.986c0 8.284 6.716 14.999 14.999 14.999 8.284 0 14.999-6.716 14.999-14.999V60.011h29.999v14.986c0 8.284 6.716 14.999 14.999 14.999s14.999-6.716 14.999-14.999V60.011h29.999v14.986c0 8.284 6.716 14.999 14.999 14.999 8.284 0 14.999-6.716 14.999-14.999V60.011h29.999v14.986c0 8.284 6.716 14.999 14.999 14.999 8.284 0 14.999-6.716 14.999-14.999V60.011h16.286c8.25 0 14.712 6.789 14.712 15.199v106.005c-30.546 30.517-60.301 60.222-89.987 89.873H76c-8.284 0-14.999 6.716-14.999 14.999 0 8.284 6.716 14.899 14.999 14.899h165.974c-17.855 17.842-28.646 28.734-30.011 30.099H76c-8.284 0-14.999 6.716-14.999 14.999 0 8.284 6.716 14.999 14.999 14.999h122.473l-10 29.999H76c-8.284 0-14.999 6.716-14.999 14.999S67.717 421.083 76 421.083h102.474l-4.684 14.051c-3.919 11.759 7.331 22.854 18.973 18.973l95.455-31.819a15 15 0 005.863-3.624c22.936-22.936 45.624-45.487 67.907-67.592v116.243zM261.333 399.63l-49.597 16.532 16.532-49.597 33.065 33.065zm25.901-16.523l-42.432-42.432c47.107-47.091 92.373-92.264 139.655-139.501l43.193 42.525c-19.825 19.703-114.399 113.451-140.416 139.408zm185.964-184.801a17795.69 17795.69 0 01-24.281 24.233l-43.239-42.57c7.965-7.96 15.986-15.979 24.095-24.088 11.741-11.741 31.7-11.726 43.425 0 11.695 11.696 11.695 30.729 0 42.425z"/><path d="M185.98 151.094H76c-8.284 0-14.999 6.716-14.999 14.999s6.716 15 14.999 15h109.98c8.284 0 14.999-6.716 14.999-14.999s-6.715-15-14.999-15zM248.175 211.092H76c-8.284 0-14.999 6.716-14.999 14.999 0 8.284 6.716 14.999 14.999 14.999h172.174c8.284 0 14.999-6.716 14.999-14.999.001-8.284-6.715-14.999-14.998-14.999z"/></svg>