<svg xmlns="http://www.w3.org/2000/svg" id="canvas" style="&#10;    display: none;&#10;    display: block;&#10;" viewBox="182.898 299.378 924.385 285.759"><path d="M 218.05,401.02 C 219.94 401.05, 221.67 399.83, 225.27 397.65 C 228.87 395.47, 231.14 393.62, 236.04 390.12 C 240.95 386.62, 244.17 384.30, 249.80 380.13 C 255.43 375.95, 258.46 373.69, 264.19 369.24 C 269.92 364.80, 272.91 362.43, 278.45 357.89 C 283.99 353.35, 286.86 350.97, 291.91 346.56 C 296.95 342.16, 299.40 339.91, 303.68 335.86 C 307.96 331.81, 309.89 329.78, 313.30 326.31 C 316.71 322.85, 318.43 321.38, 320.72 318.53 C 323.02 315.67, 324.04 314.45, 324.78 312.05 C 325.52 309.65, 325.35 308.34, 324.44 306.51 C 323.53 304.68, 322.36 303.54, 320.23 302.90 C 318.09 302.26, 316.22 302.02, 313.77 303.29 C 311.31 304.56, 310.46 306.16, 307.95 309.24 C 305.44 312.31, 304.38 314.31, 301.22 318.68 C 298.05 323.04, 296.23 325.51, 292.14 331.06 C 288.05 336.62, 285.72 339.74, 280.77 346.45 C 275.83 353.15, 273.05 356.92, 267.41 364.58 C 261.78 372.23, 258.64 376.50, 252.59 384.74 C 246.54 392.98, 243.24 397.46, 237.15 405.78 C 231.06 414.11, 227.87 418.52, 222.15 426.36 C 216.44 434.21, 213.53 438.24, 208.56 445.01 C 203.59 451.78, 201.22 455.03, 197.31 460.22 C 193.40 465.41, 191.30 467.39, 189.02 470.94 C 186.74 474.50, 185.85 475.73, 185.90 477.99 C 185.96 480.25, 187.21 481.43, 189.30 482.25 C 191.39 483.07, 193.18 483.23, 196.36 482.09 C 199.55 480.95, 201.12 478.99, 205.24 476.53 C 209.36 474.08, 211.90 472.38, 216.97 469.83 C 222.03 467.27, 225.03 465.90, 230.56 463.76 C 236.09 461.62, 239.13 460.61, 244.61 459.12 C 250.08 457.64, 252.92 457.10, 257.95 456.33 C 262.98 455.57, 265.38 455.47, 269.78 455.29 C 274.17 455.12, 276.06 455.31, 279.93 455.47 C 283.79 455.63, 285.50 456.00, 289.10 456.08 C 292.71 456.16, 294.38 456.31, 297.93 455.89 C 301.48 455.47, 303.24 455.17, 306.87 453.98 C 310.50 452.80, 312.33 451.97, 316.10 449.97 C 319.86 447.97, 321.69 446.69, 325.68 443.98 C 329.67 441.28, 331.81 439.64, 336.04 436.47 C 340.27 433.29, 342.53 431.46, 346.83 428.12 C 351.13 424.78, 353.38 422.91, 357.52 419.78 C 361.66 416.65, 363.82 415.00, 367.55 412.46 C 371.27 409.92, 373.21 408.87, 376.14 407.07 C 379.07 405.28, 380.53 404.81, 382.20 403.49 C 383.86 402.17, 384.25 401.56, 384.48 400.46 C 384.71 399.37, 384.25 398.77, 383.35 398.00 C 382.44 397.23, 381.46 396.58, 379.95 396.61 C 378.45 396.65, 377.57 396.91, 375.83 398.18 C 374.09 399.46, 373.23 400.66, 371.25 403.00 C 369.27 405.34, 368.34 406.96, 365.91 409.89 C 363.47 412.82, 361.98 414.34, 359.07 417.65 C 356.17 420.97, 354.41 422.86, 351.38 426.47 C 348.34 430.07, 346.65 432.08, 343.91 435.68 C 341.16 439.29, 339.68 441.13, 337.66 444.48 C 335.64 447.82, 334.42 449.40, 333.81 452.42 C 333.19 455.44, 333.50 457.15, 334.59 459.55 C 335.68 461.96, 336.85 463.24, 339.26 464.42 C 341.66 465.61, 343.60 466.10, 346.60 465.48 C 349.61 464.86, 351.15 463.60, 354.27 461.32 C 357.40 459.04, 358.90 457.34, 362.22 454.10 C 365.54 450.86, 367.41 448.91, 370.88 445.12 C 374.35 441.34, 376.26 439.12, 379.57 435.17 C 382.87 431.21, 384.57 429.01, 387.39 425.35 C 390.20 421.69, 392.36 419.87, 393.62 416.87 C 394.88 413.87, 394.64 412.01, 393.68 410.36 C 392.71 408.70, 390.96 408.08, 388.80 408.60 C 386.64 409.13, 384.83 410.23, 382.87 412.98 C 380.91 415.73, 380.29 418.40, 378.98 422.34 C 377.68 426.29, 377.05 428.75, 376.35 432.71 C 375.65 436.67, 374.92 438.72, 375.49 442.13 C 376.05 445.54, 377.00 447.34, 379.18 449.75 C 381.37 452.16, 383.12 453.47, 386.43 454.18 C 389.74 454.88, 391.84 454.40, 395.74 453.28 C 399.64 452.15, 401.68 450.93, 405.95 448.56 C 410.21 446.20, 412.54 444.55, 417.06 441.45 C 421.59 438.34, 424.07 436.38, 428.57 433.04 C 433.07 429.70, 435.51 427.69, 439.55 424.75 C 443.59 421.81, 446.13 420.46, 448.75 418.34 C 451.38 416.22, 452.26 415.21, 452.68 414.18 C 453.09 413.15, 452.02 412.59, 450.82 413.20 C 449.61 413.81, 448.29 414.68, 446.65 417.22 C 445.02 419.76, 444.40 422.24, 442.65 425.88 C 440.90 429.52, 439.79 431.97, 437.89 435.42 C 435.98 438.87, 434.03 440.32, 433.14 443.14 C 432.24 445.96, 432.52 447.62, 433.41 449.51 C 434.30 451.41, 435.48 452.28, 437.60 452.61 C 439.72 452.93, 441.69 452.91, 444.00 451.14 C 446.30 449.37, 446.86 447.05, 449.13 443.75 C 451.40 440.44, 452.70 438.18, 455.36 434.61 C 458.02 431.05, 459.70 429.02, 462.44 425.91 C 465.19 422.81, 466.74 421.33, 469.07 419.07 C 471.41 416.81, 472.51 415.95, 474.11 414.60 C 475.71 413.24, 476.02 412.70, 477.09 412.29 C 478.16 411.89, 478.35 412.16, 479.44 412.57 C 480.52 412.99, 480.96 413.56, 482.52 414.36 C 484.07 415.16, 485.03 415.78, 487.22 416.56 C 489.40 417.34, 490.80 417.73, 493.45 418.26 C 496.10 418.79, 497.64 418.92, 500.48 419.20 C 503.32 419.47, 504.88 419.51, 507.64 419.63 C 510.39 419.75, 511.97 419.88, 514.25 419.80 C 516.53 419.71, 517.81 419.40, 519.04 419.19 C 520.27 418.99, 520.50 418.44, 520.40 418.77 C 520.31 419.10, 519.54 419.26, 518.58 420.83 C 517.62 422.40, 517.18 423.89, 515.61 426.63 C 514.03 429.38, 512.89 431.48, 510.70 434.57 C 508.51 437.65, 506.44 439.26, 504.67 442.06 C 502.91 444.85, 501.97 446.32, 501.87 448.55 C 501.77 450.77, 502.57 452.14, 504.17 453.19 C 505.77 454.24, 507.54 454.76, 509.87 453.78 C 512.21 452.79, 513.29 451.10, 515.85 448.28 C 518.40 445.45, 519.71 443.13, 522.63 439.65 C 525.56 436.17, 527.35 434.09, 530.48 430.88 C 533.61 427.67, 535.63 425.95, 538.29 423.58 C 540.96 421.22, 542.45 420.43, 543.80 419.05 C 545.15 417.68, 545.05 416.94, 545.03 416.70 C 545.00 416.47, 544.21 416.72, 543.68 417.87 C 543.16 419.02, 542.25 420.24, 542.40 422.45 C 542.55 424.66, 542.95 426.46, 544.44 428.92 C 545.93 431.38, 547.22 432.88, 549.85 434.74 C 552.48 436.61, 554.15 437.73, 557.59 438.25 C 561.03 438.76, 563.03 438.27, 567.04 437.33 C 571.05 436.39, 573.19 435.48, 577.62 433.56 C 582.06 431.64, 584.55 430.25, 589.20 427.75 C 593.84 425.25, 596.41 423.62, 600.83 421.07 C 605.26 418.51, 608.08 417.17, 611.32 414.98 C 614.55 412.79, 616.16 411.68, 616.99 410.10 C 617.83 408.52, 616.88 407.21, 615.51 407.07 C 614.13 406.93, 612.35 407.21, 610.13 409.40 C 607.91 411.58, 606.77 414.10, 604.41 417.98 C 602.05 421.85, 600.52 424.50, 598.33 428.77 C 596.15 433.04, 594.88 435.29, 593.47 439.33 C 592.07 443.38, 591.08 445.44, 591.32 449.00 C 591.56 452.57, 592.50 454.58, 594.69 457.15 C 596.87 459.71, 598.72 461.11, 602.24 461.83 C 605.77 462.56, 607.98 461.89, 612.33 460.78 C 616.67 459.67, 619.07 458.59, 623.97 456.29 C 628.87 453.98, 631.58 452.38, 636.83 449.25 C 642.08 446.12, 644.99 444.16, 650.20 440.65 C 655.41 437.13, 658.15 435.05, 662.87 431.69 C 667.58 428.33, 670.37 426.48, 673.77 423.87 C 677.18 421.26, 678.92 420.17, 679.90 418.64 C 680.87 417.10, 679.69 415.72, 678.64 416.18 C 677.60 416.63, 676.59 417.53, 674.68 420.91 C 672.77 424.29, 671.87 427.31, 669.09 433.09 C 666.31 438.86, 664.50 442.56, 660.79 449.79 C 657.07 457.01, 654.85 461.14, 650.50 469.22 C 646.15 477.29, 643.73 481.72, 639.04 490.16 C 634.35 498.60, 631.85 503.13, 627.05 511.43 C 622.24 519.74, 619.74 524.08, 615.03 531.68 C 610.32 539.29, 607.91 543.13, 603.50 549.47 C 599.09 555.81, 596.87 558.79, 592.97 563.38 C 589.07 567.96, 586.94 569.84, 583.99 572.39 C 581.03 574.95, 579.56 575.31, 578.20 576.15 C 576.84 576.99, 577.57 577.39, 577.18 576.58 C 576.79 575.77, 577.43 572.79, 576.27 572.10 C 575.11 571.42, 572.05 571.56, 571.39 573.17 C 570.73 574.78, 571.21 578.41, 572.98 580.15 C 574.76 581.88, 577.30 582.58, 580.27 581.85 C 583.23 581.12, 584.58 579.67, 587.80 576.51 C 591.01 573.35, 592.60 571.07, 596.34 566.06 C 600.08 561.06, 602.19 558.02, 606.49 551.49 C 610.78 544.95, 613.15 541.08, 617.80 533.38 C 622.46 525.69, 624.95 521.33, 629.76 513.00 C 634.56 504.67, 637.07 500.14, 641.83 491.73 C 646.60 483.31, 649.04 478.90, 653.58 470.92 C 658.11 462.94, 660.40 458.86, 664.51 451.84 C 668.63 444.82, 670.79 441.36, 674.14 435.82 C 677.49 430.28, 679.61 427.99, 681.25 424.13 C 682.89 420.27, 683.17 418.58, 682.35 416.50 C 681.53 414.42, 679.65 413.30, 677.13 413.73 C 674.61 414.17, 673.25 415.94, 669.75 418.67 C 666.26 421.41, 664.13 423.85, 659.65 427.40 C 655.17 430.95, 652.46 432.98, 647.35 436.40 C 642.24 439.82, 639.29 441.69, 634.12 444.49 C 628.94 447.29, 626.15 448.66, 621.48 450.42 C 616.81 452.18, 614.32 452.72, 610.75 453.28 C 607.18 453.84, 605.75 453.39, 603.64 453.20 C 601.52 453.02, 601.00 453.25, 600.19 452.36 C 599.37 451.48, 599.46 450.89, 599.54 448.77 C 599.62 446.65, 599.50 445.03, 600.59 441.77 C 601.69 438.51, 602.77 436.22, 605.02 432.47 C 607.27 428.72, 609.22 426.50, 611.84 423.00 C 614.47 419.51, 616.76 417.96, 618.14 414.99 C 619.52 412.01, 619.51 410.13, 618.75 408.13 C 617.98 406.13, 616.63 404.91, 614.30 404.99 C 611.98 405.08, 610.48 406.44, 607.12 408.55 C 603.75 410.66, 601.65 412.86, 597.47 415.56 C 593.30 418.26, 590.71 419.79, 586.23 422.05 C 581.74 424.31, 579.17 425.48, 575.04 426.86 C 570.91 428.25, 568.74 428.66, 565.57 428.98 C 562.41 429.30, 561.16 428.84, 559.20 428.47 C 557.24 428.10, 556.69 428.02, 555.79 427.13 C 554.89 426.24, 555.07 425.50, 554.68 424.02 C 554.29 422.55, 554.63 421.56, 553.84 419.75 C 553.04 417.94, 552.33 416.55, 550.69 414.99 C 549.05 413.43, 547.90 412.49, 545.65 411.96 C 543.40 411.42, 541.98 411.18, 539.43 412.33 C 536.88 413.49, 535.75 415.04, 532.92 417.73 C 530.08 420.42, 528.48 422.49, 525.26 425.76 C 522.03 429.04, 520.11 430.99, 516.78 434.10 C 513.46 437.21, 511.28 438.74, 508.62 441.32 C 505.97 443.90, 504.39 444.95, 503.49 447.01 C 502.60 449.08, 503.26 450.58, 504.15 451.63 C 505.03 452.69, 506.19 453.02, 507.92 452.30 C 509.65 451.57, 510.71 450.47, 512.80 448.00 C 514.88 445.54, 516.04 443.23, 518.34 439.98 C 520.64 436.72, 522.36 434.96, 524.29 431.72 C 526.22 428.48, 527.50 426.87, 528.00 423.77 C 528.50 420.67, 528.02 418.77, 526.78 416.23 C 525.55 413.69, 524.16 412.50, 521.82 411.07 C 519.49 409.65, 517.83 409.58, 515.12 409.09 C 512.41 408.60, 510.99 408.81, 508.28 408.62 C 505.57 408.42, 504.12 408.37, 501.58 408.11 C 499.03 407.85, 497.79 407.72, 495.55 407.31 C 493.31 406.90, 492.40 406.53, 490.37 406.04 C 488.35 405.56, 487.45 405.19, 485.44 404.89 C 483.43 404.59, 482.44 404.46, 480.32 404.52 C 478.19 404.58, 477.08 404.54, 474.81 405.20 C 472.54 405.87, 471.26 406.22, 468.95 407.86 C 466.64 409.51, 465.70 410.79, 463.27 413.42 C 460.84 416.04, 459.61 417.76, 456.81 420.99 C 454.01 424.22, 452.33 426.26, 449.28 429.57 C 446.24 432.87, 444.34 434.73, 441.58 437.54 C 438.82 440.35, 436.77 441.32, 435.49 443.61 C 434.20 445.90, 434.66 447.56, 435.16 448.97 C 435.67 450.37, 436.60 450.91, 438.02 450.63 C 439.43 450.34, 440.72 449.76, 442.26 447.55 C 443.79 445.34, 443.92 443.03, 445.70 439.58 C 447.47 436.14, 449.08 433.96, 451.13 430.32 C 453.19 426.69, 454.98 424.72, 455.97 421.41 C 456.97 418.09, 456.99 416.10, 456.10 413.76 C 455.21 411.42, 453.87 410.01, 451.52 409.70 C 449.17 409.39, 447.49 410.16, 444.34 412.19 C 441.18 414.23, 439.58 416.65, 435.74 419.89 C 431.90 423.13, 429.53 425.11, 425.12 428.39 C 420.71 431.67, 418.17 433.53, 413.70 436.29 C 409.23 439.05, 406.79 440.43, 402.77 442.18 C 398.75 443.94, 396.63 444.39, 393.61 445.05 C 390.60 445.72, 389.47 445.56, 387.70 445.52 C 385.94 445.48, 385.44 445.68, 384.79 444.85 C 384.14 444.01, 384.35 443.37, 384.43 441.34 C 384.52 439.30, 384.38 437.70, 385.22 434.66 C 386.06 431.61, 387.11 429.41, 388.64 426.11 C 390.16 422.81, 391.91 421.00, 392.85 418.16 C 393.79 415.32, 393.83 413.66, 393.33 411.92 C 392.83 410.17, 391.80 409.29, 390.34 409.45 C 388.88 409.61, 387.76 410.30, 386.04 412.70 C 384.33 415.11, 384.03 417.78, 381.77 421.47 C 379.51 425.17, 377.86 427.36, 374.74 431.18 C 371.62 435.00, 369.65 437.13, 366.15 440.57 C 362.66 444.01, 360.67 445.80, 357.27 448.36 C 353.87 450.92, 351.91 451.86, 349.15 453.37 C 346.39 454.88, 345.08 455.03, 343.47 455.92 C 341.86 456.82, 341.65 457.48, 341.10 457.84 C 340.56 458.20, 340.56 458.35, 340.75 457.72 C 340.94 457.09, 341.29 456.58, 342.03 454.69 C 342.77 452.80, 342.95 451.24, 344.45 448.27 C 345.96 445.29, 347.12 443.29, 349.56 439.83 C 351.99 436.37, 353.65 434.38, 356.63 430.97 C 359.61 427.57, 361.39 425.77, 364.48 422.80 C 367.56 419.84, 369.14 418.44, 372.04 416.15 C 374.94 413.86, 376.53 413.08, 378.96 411.35 C 381.39 409.62, 382.66 409.15, 384.19 407.50 C 385.71 405.85, 386.25 404.93, 386.57 403.11 C 386.89 401.29, 386.55 399.88, 385.77 398.41 C 384.98 396.94, 384.22 396.13, 382.64 395.73 C 381.07 395.34, 380.05 395.41, 377.88 396.43 C 375.72 397.45, 374.63 398.64, 371.81 400.83 C 368.99 403.03, 367.34 404.52, 363.78 407.39 C 360.21 410.27, 358.07 411.97, 353.99 415.21 C 349.90 418.46, 347.64 420.32, 343.34 423.60 C 339.05 426.88, 336.76 428.64, 332.52 431.61 C 328.28 434.59, 326.07 436.09, 322.15 438.47 C 318.22 440.84, 316.39 441.88, 312.87 443.49 C 309.36 445.11, 307.77 445.63, 304.58 446.55 C 301.40 447.47, 300.05 447.66, 296.95 448.08 C 293.84 448.50, 292.45 448.51, 289.04 448.65 C 285.64 448.79, 283.88 448.64, 279.94 448.78 C 276.01 448.92, 273.95 448.91, 269.37 449.36 C 264.79 449.80, 262.28 450.03, 257.05 450.99 C 251.83 451.95, 248.91 452.58, 243.24 454.14 C 237.58 455.70, 234.47 456.75, 228.72 458.79 C 222.96 460.83, 219.88 462.17, 214.48 464.34 C 209.09 466.50, 206.20 467.76, 201.75 469.63 C 197.31 471.50, 194.85 472.02, 192.26 473.69 C 189.67 475.37, 189.23 476.91, 188.81 478.02 C 188.38 479.14, 189.13 480.08, 190.12 479.27 C 191.11 478.46, 191.64 477.30, 193.75 473.96 C 195.86 470.62, 197.16 467.97, 200.67 462.57 C 204.18 457.17, 206.51 453.85, 211.30 446.97 C 216.09 440.08, 218.97 436.03, 224.62 428.14 C 230.27 420.25, 233.45 415.84, 239.53 407.52 C 245.62 399.21, 248.93 394.74, 255.04 386.55 C 261.15 378.36, 264.33 374.13, 270.09 366.58 C 275.85 359.03, 278.69 355.31, 283.85 348.80 C 289.01 342.29, 291.45 339.24, 295.88 334.03 C 300.32 328.82, 302.33 326.45, 306.02 322.76 C 309.71 319.08, 311.58 317.78, 314.32 315.59 C 317.07 313.40, 318.43 313.18, 319.74 311.81 C 321.05 310.43, 320.84 309.61, 320.89 308.72 C 320.94 307.82, 320.56 307.29, 320.00 307.33 C 319.43 307.38, 319.09 307.55, 318.07 308.94 C 317.06 310.33, 316.72 311.55, 314.93 314.28 C 313.13 317.00, 312.02 318.93, 309.10 322.57 C 306.18 326.20, 304.33 328.30, 300.32 332.45 C 296.30 336.60, 293.92 338.87, 289.01 343.31 C 284.11 347.75, 281.29 350.16, 275.80 354.66 C 270.32 359.16, 267.35 361.51, 261.58 365.81 C 255.82 370.11, 252.72 372.23, 246.98 376.16 C 241.24 380.09, 237.90 382.20, 232.87 385.44 C 227.84 388.68, 225.24 389.97, 221.82 392.37 C 218.41 394.78, 216.54 395.73, 215.78 397.46 C 215.02 399.19, 216.15 400.98, 218.05 401.02" style="stroke: black; fill: black;"/><path d="M 871.30,352.85 C 870.96 351.45, 870.31 350.71, 868.64 349.92 C 866.96 349.13, 865.60 348.54, 862.93 348.90 C 860.26 349.27, 858.59 349.90, 855.27 351.75 C 851.96 353.60, 850.46 355.04, 846.35 358.15 C 842.24 361.26, 839.90 362.95, 834.72 367.28 C 829.54 371.62, 826.44 374.16, 820.46 379.82 C 814.48 385.48, 810.99 388.87, 804.82 395.58 C 798.65 402.29, 795.20 406.18, 789.59 413.35 C 783.98 420.51, 781.09 424.45, 776.78 431.41 C 772.47 438.37, 770.53 441.95, 768.04 448.14 C 765.56 454.32, 764.60 457.26, 764.36 462.34 C 764.13 467.42, 764.50 470.08, 766.86 473.53 C 769.23 476.98, 771.63 478.45, 776.18 479.59 C 780.73 480.73, 783.66 480.43, 789.61 479.23 C 795.56 478.03, 798.95 476.73, 805.94 473.57 C 812.92 470.42, 816.84 468.25, 824.54 463.45 C 832.23 458.66, 836.43 455.70, 844.40 449.62 C 852.36 443.54, 856.57 439.98, 864.36 433.05 C 872.16 426.13, 876.16 422.26, 883.36 414.99 C 890.56 407.73, 894.11 403.83, 900.35 396.72 C 906.59 389.62, 909.56 385.90, 914.57 379.45 C 919.58 373.00, 921.76 369.84, 925.39 364.47 C 929.02 359.11, 930.68 356.76, 932.71 352.61 C 934.73 348.46, 935.89 346.37, 935.51 343.73 C 935.14 341.08, 933.18 339.42, 930.83 339.39 C 928.49 339.37, 926.81 340.39, 923.79 343.62 C 920.77 346.84, 919.44 349.75, 915.71 355.52 C 911.98 361.29, 909.64 365.20, 905.14 372.47 C 900.63 379.74, 897.91 384.13, 893.17 391.88 C 888.43 399.62, 885.79 403.88, 881.43 411.19 C 877.07 418.49, 874.85 422.31, 871.37 428.40 C 867.89 434.49, 866.11 437.21, 864.04 441.64 C 861.96 446.07, 860.73 447.77, 860.98 450.54 C 861.24 453.31, 862.85 454.82, 865.32 455.50 C 867.80 456.18, 869.86 455.75, 873.34 453.94 C 876.82 452.14, 878.60 449.83, 882.73 446.48 C 886.87 443.13, 889.41 440.70, 894.01 437.20 C 898.61 433.71, 901.39 431.64, 905.73 429.00 C 910.08 426.37, 912.59 425.38, 915.73 424.02 C 918.87 422.67, 920.09 422.49, 921.42 422.23 C 922.74 421.97, 922.54 421.80, 922.35 422.72 C 922.15 423.63, 921.10 424.47, 920.44 426.81 C 919.79 429.15, 919.71 431.06, 919.07 434.40 C 918.42 437.75, 917.74 439.90, 917.23 443.52 C 916.72 447.15, 915.91 449.22, 916.50 452.54 C 917.08 455.86, 917.95 457.73, 920.15 460.12 C 922.36 462.50, 924.10 463.95, 927.54 464.46 C 930.98 464.97, 933.12 464.14, 937.36 462.67 C 941.59 461.19, 943.86 459.86, 948.71 457.07 C 953.56 454.29, 956.37 452.40, 961.60 448.74 C 966.82 445.07, 969.80 442.80, 974.82 438.75 C 979.84 434.70, 982.51 432.38, 986.69 428.51 C 990.88 424.63, 992.97 422.79, 995.74 419.36 C 998.51 415.93, 999.98 414.37, 1000.54 411.36 C 1001.11 408.34, 1000.41 406.39, 998.58 404.28 C 996.74 402.17, 994.63 400.73, 991.37 400.81 C 988.11 400.89, 986.00 402.29, 982.28 404.66 C 978.56 407.04, 976.54 409.02, 972.78 412.68 C 969.01 416.34, 966.81 418.67, 963.45 422.97 C 960.10 427.27, 958.29 429.80, 956.00 434.18 C 953.71 438.56, 952.57 440.80, 952.02 444.88 C 951.46 448.96, 951.54 451.35, 953.24 454.57 C 954.93 457.79, 956.86 459.48, 960.48 460.97 C 964.11 462.46, 966.58 462.41, 971.34 462.02 C 976.10 461.63, 978.77 460.80, 984.28 459.02 C 989.78 457.24, 992.90 455.86, 998.86 453.12 C 1004.82 450.38, 1008.16 448.56, 1014.07 445.32 C 1019.98 442.08, 1023.13 440.01, 1028.42 436.91 C 1033.70 433.81, 1036.50 432.14, 1040.47 429.81 C 1044.45 427.48, 1046.66 426.83, 1048.28 425.27 C 1049.91 423.71, 1049.50 422.46, 1048.60 422.01 C 1047.69 421.55, 1045.81 421.46, 1043.75 423.00 C 1041.69 424.54, 1040.66 426.61, 1038.29 429.72 C 1035.92 432.84, 1034.35 435.22, 1031.91 438.59 C 1029.46 441.96, 1027.34 443.47, 1026.06 446.57 C 1024.79 449.67, 1024.68 451.65, 1025.54 454.09 C 1026.39 456.53, 1027.74 458.15, 1030.34 458.79 C 1032.94 459.43, 1034.75 458.83, 1038.54 457.29 C 1042.32 455.76, 1044.45 453.82, 1049.26 451.11 C 1054.08 448.40, 1057.15 446.51, 1062.62 443.75 C 1068.09 441.00, 1071.38 439.37, 1076.60 437.34 C 1081.81 435.32, 1084.86 434.50, 1088.68 433.63 C 1092.51 432.76, 1094.05 433.00, 1095.71 433.01 C 1097.36 433.02, 1097.19 432.74, 1096.94 433.67 C 1096.69 434.61, 1095.48 435.39, 1094.43 437.68 C 1093.39 439.96, 1092.83 441.90, 1091.72 445.09 C 1090.62 448.28, 1089.56 450.28, 1088.90 453.63 C 1088.25 456.98, 1087.97 459.01, 1088.43 461.86 C 1088.89 464.71, 1089.89 466.28, 1091.21 467.88 C 1092.53 469.47, 1093.78 469.83, 1095.03 469.84 C 1096.28 469.84, 1096.97 468.83, 1097.47 467.90 C 1097.97 466.96, 1097.45 466.44, 1097.54 465.16 C 1097.63 463.88, 1097.61 463.33, 1097.90 461.50 C 1098.18 459.66, 1098.21 458.61, 1098.96 456.00 C 1099.70 453.38, 1100.59 451.66, 1101.64 448.42 C 1102.70 445.19, 1104.03 443.18, 1104.23 439.84 C 1104.43 436.50, 1104.10 434.39, 1102.63 431.74 C 1101.16 429.09, 1099.96 427.47, 1096.87 426.61 C 1093.79 425.75, 1091.69 426.35, 1087.22 427.46 C 1082.74 428.57, 1079.93 429.92, 1074.52 432.15 C 1069.11 434.38, 1065.82 436.04, 1060.16 438.61 C 1054.50 441.18, 1051.20 442.81, 1046.21 445.00 C 1041.22 447.19, 1038.47 448.04, 1035.19 449.56 C 1031.92 451.07, 1030.82 451.64, 1029.85 452.56 C 1028.88 453.48, 1029.43 454.37, 1030.33 454.16 C 1031.23 453.96, 1032.53 453.55, 1034.33 451.52 C 1036.13 449.50, 1036.96 447.21, 1039.32 444.05 C 1041.68 440.89, 1043.68 438.87, 1046.12 435.72 C 1048.56 432.56, 1050.58 431.13, 1051.51 428.27 C 1052.43 425.42, 1052.01 423.24, 1050.76 421.45 C 1049.51 419.67, 1047.97 418.71, 1045.26 419.36 C 1042.56 420.01, 1041.13 422.05, 1037.24 424.71 C 1033.34 427.36, 1030.89 429.37, 1025.79 432.65 C 1020.70 435.93, 1017.57 437.96, 1011.77 441.11 C 1005.97 444.27, 1002.63 446.00, 996.80 448.45 C 990.98 450.90, 987.80 452.04, 982.63 453.36 C 977.46 454.69, 974.83 454.99, 970.96 455.07 C 967.10 455.15, 965.53 454.58, 963.30 453.78 C 961.07 452.98, 960.68 452.66, 959.82 451.08 C 958.97 449.49, 958.63 448.63, 959.02 445.84 C 959.41 443.05, 959.89 440.91, 961.77 437.13 C 963.66 433.35, 965.29 430.79, 968.44 426.96 C 971.59 423.12, 973.87 420.95, 977.52 417.95 C 981.16 414.94, 983.58 413.67, 986.66 411.94 C 989.75 410.22, 991.28 410.16, 992.95 409.33 C 994.62 408.49, 994.79 407.76, 995.01 407.75 C 995.22 407.75, 994.89 407.77, 994.03 409.32 C 993.17 410.87, 992.91 412.43, 990.70 415.50 C 988.49 418.57, 986.78 420.80, 982.97 424.66 C 979.16 428.53, 976.52 430.88, 971.65 434.81 C 966.77 438.73, 963.77 440.95, 958.60 444.28 C 953.43 447.62, 950.49 449.29, 945.80 451.49 C 941.10 453.69, 938.62 454.42, 935.12 455.28 C 931.63 456.14, 930.21 455.79, 928.33 455.81 C 926.44 455.84, 926.18 456.19, 925.69 455.40 C 925.21 454.62, 925.68 453.95, 925.90 451.90 C 926.12 449.85, 926.19 448.23, 926.81 445.14 C 927.43 442.05, 928.22 439.97, 929.00 436.47 C 929.78 432.96, 930.92 430.91, 930.71 427.61 C 930.50 424.31, 929.73 422.31, 927.93 419.96 C 926.13 417.62, 924.68 416.36, 921.70 415.90 C 918.73 415.45, 916.88 416.09, 913.05 417.69 C 909.21 419.29, 907.07 420.99, 902.54 423.90 C 898.01 426.82, 895.24 428.90, 890.42 432.27 C 885.60 435.64, 882.72 437.79, 878.44 440.75 C 874.16 443.72, 871.67 445.02, 869.01 447.09 C 866.35 449.17, 865.72 450.32, 865.15 451.13 C 864.57 451.93, 865.41 452.59, 866.14 451.12 C 866.87 449.65, 867.05 447.93, 868.81 443.77 C 870.57 439.61, 871.80 436.48, 874.94 430.33 C 878.09 424.18, 880.27 420.33, 884.53 413.02 C 888.79 405.71, 891.44 401.45, 896.26 393.79 C 901.08 386.14, 903.86 381.78, 908.64 374.75 C 913.42 367.72, 916.08 363.98, 920.16 358.65 C 924.25 353.33, 926.65 351.26, 929.06 348.14 C 931.48 345.01, 932.01 344.05, 932.24 343.03 C 932.47 342.01, 931.14 341.58, 930.23 343.04 C 929.31 344.49, 929.35 346.45, 927.69 350.30 C 926.02 354.14, 925.08 356.86, 921.91 362.28 C 918.73 367.70, 916.61 370.90, 911.83 377.39 C 907.06 383.87, 904.14 387.60, 898.03 394.71 C 891.92 401.82, 888.40 405.71, 881.28 412.94 C 874.15 420.16, 870.16 424.01, 862.40 430.84 C 854.64 437.67, 850.43 441.18, 842.49 447.08 C 834.54 452.99, 830.32 455.86, 822.66 460.36 C 815.01 464.86, 811.03 466.84, 804.23 469.58 C 797.43 472.32, 794.01 473.20, 788.67 474.07 C 783.33 474.94, 780.96 474.67, 777.53 473.91 C 774.10 473.15, 773.16 472.55, 771.51 470.27 C 769.86 467.99, 769.21 466.64, 769.28 462.51 C 769.36 458.38, 769.78 455.45, 771.90 449.61 C 774.01 443.76, 775.79 440.12, 779.87 433.29 C 783.95 426.46, 786.79 422.52, 792.30 415.47 C 797.82 408.42, 801.26 404.56, 807.44 398.03 C 813.62 391.49, 817.13 388.17, 823.20 382.81 C 829.26 377.45, 832.44 375.04, 837.77 371.21 C 843.10 367.39, 845.64 365.88, 849.87 363.69 C 854.10 361.51, 855.98 361.13, 858.93 360.30 C 861.88 359.47, 862.83 359.89, 864.61 359.55 C 866.39 359.21, 866.67 359.14, 867.81 358.62 C 868.95 358.09, 869.61 358.09, 870.31 356.93 C 871.01 355.78, 871.63 354.26, 871.30 352.85" style="stroke: black; fill: black;"/></svg>