<svg xmlns="http://www.w3.org/2000/svg" xmlns:ns1="http://sozi.baierouge.fr" xmlns:svg="http://www.w3.org/2000/svg" xmlns:xlink="http://www.w3.org/1999/xlink" version="1.0" viewBox="0 0 234.12 233.69"><defs><linearGradient id="a" x1="248.42" x2="332.17" y1="659.03" y2="641.86" gradientTransform="matrix(3.2661 -.0602 .0248 1.3456 -513.71 -747.58)" gradientUnits="userSpaceOnUse"><stop offset="0"/><stop offset="1" stop-opacity="0"/></linearGradient></defs><g stroke="#fff" transform="translate(-252.07 184.99)"><path fill="none" stroke-width="1.9" d="M387.78-51.628c14.203-6.778 48.186-20.169 48.186-20.169s24.556 39.493 25.646 39.288c1.385-.26 11.562-9.893 11.562-9.893M385.86-51.367c-3.478 14.913.083 31.875-1.817 47.27-8.175 16.027-27.12 31.086-31.862 36.992"/><path fill="#fff" fill-rule="evenodd" d="M472.56-50.729c8.156-1.262 14.951-10.622 12.688-6.116-4.66 9.279-6.138 7.706-12.6 15.298-6.997 8.223-18.844 16.44-.088-9.182zM358.63 31.441c-5.61 2.79-10.678-1.383-6.77 2.662 8.047 8.329 20.02 17.27 28.355 12.993 9.074-4.654 4.17 4.274-21.585-15.656z"/><path fill="none" stroke-linecap="round" stroke-linejoin="round" stroke-width="2.1" d="M268.93-168.91s-8.79-3.234-11.073-.917c-2.51 2.548.758 7.811 1.61 11.73 1.328 6.105 3.319 4.052 8.09 4.782 1.368-4.694 7.184-6.923 1.373-15.595z"/></g><g stroke="#fff" transform="translate(-46.898 24.986)"><path fill="none" stroke-width="1.9" d="M133.65 46.387c27.395-4.966 38.922-11.209 38.922-11.209l45.224-25.126"/><path fill="#fff" fill-rule="evenodd" d="M49.769 5.106c-.51-5.346-2.678-4.37-2.334-7.715.688-6.696 3.034-8.08 5.8 1.557 3.012 10.49 16.653 24.814-3.466 6.158z"/><path fill="none" stroke-width="1.9" d="M131.9 46.06c-31.867 4.739-49.986 9.817-49.986 9.817s-7.55-2.898-22.727-44.26"/><path fill="#fff" fill-rule="evenodd" d="M230.91 4.787c6.066-.762 11.92-4.75 10.307-1.777-1.544 2.846-5.7 11.345-12.494 8.523-7.395-3.07-20.171 1.485 2.187-6.746z"/><path fill="none" stroke-linecap="round" stroke-linejoin="round" stroke-width="3" d="M125.15 36.984c1.592 3.027 1.524.531 4.764 2.738 7.56 13.968 54.172 69.117 52.072 71.1-8.57 8.093-46.794-55.237-52.811-72.8-.784-2.286-2.721 1.285-4.025-1.038z"/><path fill="none" stroke-linecap="round" stroke-width="1.838" d="M444.03 362.03c5.165-9.474 13.303-9.013 18.175 1.031s4.635 25.866-.53 35.34c-5.166 9.474-13.303 9.013-18.175-1.031-4.828-9.952-4.646-25.601.41-35.116" transform="matrix(1.1789 -.61539 .65217 1.1705 -668.89 -159.82)"/><path fill="none" stroke-linecap="round" stroke-width="1.621" d="M293.26 368.63c1.435-1.76 3.695-1.674 5.049.192 1.353 1.865 1.287 4.803-.148 6.563s-3.695 1.674-5.048-.192c-1.341-1.848-1.29-4.754.114-6.521" transform="matrix(1.0093 -.68604 .78285 1.0924 -481.62 -203.16)"/><path fill="none" stroke-width="1.25" d="M130.1 18.297c-4.24-2.72-11.218 2.786-9.124 7.986"/><path fill="none" stroke-linecap="round" stroke-width="1.621" d="M293.26 368.63c1.435-1.76 3.695-1.674 5.049.192 1.353 1.865 1.287 4.803-.148 6.563s-3.695 1.674-5.048-.192c-1.341-1.848-1.29-4.754.114-6.521" transform="matrix(1.0093 -.68604 .78285 1.0924 -470.12 -208.64)"/><path fill="none" stroke-width="1.25" d="M120.7 26.162c4.24 2.72 11.218-2.786 9.124-7.986"/></g></svg>