<?xml version="1.0" standalone="no"?>
<!DOCTYPE svg PUBLIC "-//W3C//DTD SVG 20010904//EN"
 "http://www.w3.org/TR/2001/REC-SVG-20010904/DTD/svg10.dtd">
<svg version="1.0" xmlns="http://www.w3.org/2000/svg"
 width="700.000000pt" height="700.000000pt" viewBox="0 0 700.000000 700.000000"
 preserveAspectRatio="xMidYMid meet">
<metadata>
Created by potrace 1.11, written by Peter Selinger 2001-2013
</metadata>
<g transform="translate(0.000000,700.000000) scale(0.100000,-0.100000)"
fill="#000000" stroke="none">
<path d="M471 6439 c-175 -34 -334 -160 -410 -324 -61 -130 -56 92 -58 -2590
-1 -2028 1 -2461 12 -2512 36 -163 161 -325 307 -397 144 -71 -133 -66 3183
-66 l3000 0 86 30 c183 62 306 183 378 375 l26 70 3 2440 c3 2715 8 2518 -66
2665 -51 104 -151 204 -252 254 -146 71 132 66 -3175 65 -1644 -1 -3010 -5
-3034 -10z m6013 -233 c117 -22 218 -116 261 -242 15 -43 17 -101 17 -484 0
-239 -1 -442 -1 -451 -1 -14 -316 -15 -3261 -15 -2932 0 -3260 2 -3261 16 0 8
-1 211 -1 450 0 385 2 441 17 484 49 141 157 231 292 244 94 10 5889 7 5937
-2z m275 -1456 c9 -37 5 -3607 -3 -3665 -21 -136 -142 -266 -271 -291 -52 -10
-5918 -10 -5969 0 -116 22 -217 115 -261 242 -16 46 -17 174 -17 1879 0 1007
1 1837 1 1845 1 13 370 15 3258 15 l3257 0 5 -25z"/>
<path d="M710 6036 c-192 -55 -324 -236 -319 -435 8 -320 307 -523 594 -404
87 36 168 116 214 208 144 291 -57 637 -374 643 -38 0 -90 -5 -115 -12z m217
-262 c58 -48 83 -103 79 -180 -2 -53 -8 -72 -32 -107 -43 -60 -96 -89 -159
-84 -66 5 -114 29 -146 75 -60 85 -53 201 17 276 40 42 81 57 146 53 46 -3 65
-9 95 -33z"/>
<path d="M1723 6035 c-152 -41 -267 -160 -309 -319 -39 -145 7 -315 114 -424
119 -121 280 -160 436 -107 262 89 375 421 225 660 -101 161 -289 237 -466
190z m186 -245 c144 -73 147 -286 6 -368 -58 -33 -140 -27 -192 14 -153 121
-82 372 105 374 23 0 60 -9 81 -20z"/>
<path d="M2735 6036 c-77 -19 -135 -54 -196 -116 -87 -89 -128 -193 -126 -323
4 -387 454 -578 725 -307 236 236 133 650 -184 743 -63 18 -155 19 -219 3z
m212 -262 c148 -117 84 -363 -97 -373 -182 -10 -271 231 -133 361 40 38 70 48
135 45 46 -3 65 -9 95 -33z"/>
<path d="M3480 4292 c-32 -5 -49 -18 -255 -197 -93 -82 -196 -171 -229 -199
-32 -28 -64 -55 -70 -61 -6 -5 -43 -37 -81 -70 -39 -33 -83 -72 -100 -86 -16
-15 -87 -76 -156 -136 -439 -379 -429 -369 -429 -432 0 -41 39 -92 80 -106 19
-6 70 -11 113 -10 l77 2 0 -91 c1 -50 1 -329 0 -621 0 -486 1 -533 17 -565 36
-70 19 -68 688 -75 330 -3 757 -8 948 -10 386 -5 400 -3 436 55 13 22 19 51
19 94 1 33 1 320 1 637 l1 576 101 -1 c117 -1 150 9 179 56 24 39 26 78 6 117
-8 15 -92 95 -187 177 -95 82 -191 165 -213 185 -39 35 -549 477 -610 529 -16
14 -34 30 -40 35 -6 6 -47 41 -91 79 -44 39 -89 78 -101 88 -25 22 -70 35
-104 30z m67 -314 c21 -18 40 -35 43 -38 3 -3 70 -61 150 -130 80 -68 147
-127 150 -130 3 -3 70 -62 150 -130 80 -68 147 -127 150 -130 3 -3 34 -31 70
-62 120 -103 130 -112 130 -118 0 -3 -403 -6 -896 -6 l-897 0 29 24 c16 14 50
43 75 66 25 22 72 64 105 91 32 28 128 111 214 185 85 74 184 160 220 190 35
30 71 62 80 70 9 8 42 38 74 65 32 28 68 58 79 68 27 23 30 22 74 -15z m748
-1543 l0 -560 -130 2 c-71 1 -154 2 -182 2 l-53 1 0 298 c0 319 -1 328 -53
366 -28 20 -40 21 -362 22 -361 1 -379 -2 -411 -52 -17 -25 -18 -56 -19 -323
l0 -296 -30 -5 c-16 -3 -110 -4 -207 -2 l-178 3 0 552 0 552 813 0 812 0 0
-560z m-604 -145 c0 -22 0 -69 0 -105 0 -36 0 -119 0 -184 l-1 -119 -177 3
c-98 1 -181 3 -184 4 -3 0 -6 100 -6 221 l0 220 184 0 183 0 1 -40z"/>
</g>
</svg>
