<svg version="1.0" xmlns="http://www.w3.org/2000/svg" width="933.333" height="933.333" viewBox="0 0 700 700"><path d="M344.1 69.1c-2 .9-4.7 2.8-6.1 4-1.4 1.3-6.8 6-12 10.4s-10.8 9.2-12.5 10.6c-3 2.7-34.1 29.1-45 38.3-3.3 2.8-6.2 5.3-6.5 5.6-.3.3-4.8 4.1-10 8.5s-9.7 8.2-10 8.5c-.4.4-8.5 7.4-23 19.6-1.4 1.2-13.7 11.7-27.5 23.4-22.9 19.5-28.2 24-35.5 30.4-1.4 1.2-6.8 5.7-12 10.1-5.2 4.4-10 8.4-10.6 9-.6.5-3.5 3-6.4 5.5-10.1 8.5-41.5 35.2-44.5 37.9-1.7 1.4-5.9 5.1-9.5 8.1-7.3 6.2-11.8 10-13.4 11.5-.6.5-3.8 3.2-7.1 6-3.3 2.7-7.3 6.2-9 7.7-1.6 1.4-4.2 3.7-5.6 5-3.6 3.1-4.9 5.9-4.9 10.3 0 4.8 2.2 8.9 6.3 11.4 6 3.7 12.9 2.4 19.2-3.5 1.1-1.1 4.7-4.2 8-6.9 6.7-5.7 11.3-9.5 12.9-11 .6-.6 17.8-15.2 38.1-32.5 20.4-17.2 38.8-33 41-34.9 2.2-2 6.2-5.4 8.9-7.6 2.7-2.2 5.4-4.5 6-5 1.2-1.1 19.5-16.7 27.6-23.5 2.9-2.5 6.9-5.9 8.9-7.6 2-1.7 7.4-6.4 12.1-10.4 4.7-3.9 10.8-9.1 13.5-11.5 2.8-2.3 23.9-20.3 47-40 23.1-19.6 43.4-36.9 45-38.4 1.7-1.4 5.7-4.9 9-7.6 3.3-2.8 6.2-5.2 6.5-5.5.3-.3 2-1.8 3.8-3.3l3.3-2.7 10.8 9.3c5.9 5 13.1 11.2 16.1 13.7 2.9 2.5 16.7 14.2 30.5 26s27.6 23.5 30.6 26c2.9 2.5 7.2 6.1 9.4 8.1 2.2 1.9 9.8 8.4 17 14.5 12.7 10.6 17.6 14.9 19.9 16.9.6.6 6.9 6 14.1 12 7.1 6.1 19.5 16.6 27.5 23.4 8 6.8 16.8 14.3 19.5 16.6 2.8 2.3 13.4 11.4 23.6 20.1 10.2 8.8 20.7 17.7 23.4 19.9 2.6 2.2 5.3 4.5 5.9 5 .6.6 9 7.7 18.6 15.9 9.6 8.1 19.2 16.3 21.2 18.2 9 8 13.9 9.8 20.3 7.4 3.3-1.3 4.8-2.7 6.9-6.7 3.1-6.1 1.6-12.1-4.4-17.3-1.4-1.2-3.6-3.1-5-4.3-1.4-1.2-4.3-3.7-6.5-5.6-2.2-1.8-6.2-5.3-9-7.6-4.5-3.9-27.7-23.7-41-35-14.4-12.3-22.5-19.3-27.5-23.5-3-2.6-10.2-8.8-16-13.7l-10.5-9v-137l-2.5-3.6c-4.6-6.7-5.2-6.8-45.5-6.5-48.6.4-44.9-2.8-45.1 38.8-.1 15.7-.2 28.6-.3 28.7-.1.3-3.5-2.5-6.5-5.2-.6-.6-10.1-8.6-21.1-18-11-9.3-21.8-18.5-24.1-20.4-2.2-2-5.3-4.7-7-6.1-8.7-7.3-16-13.5-16.4-14-.3-.3-4.5-3.9-9.5-8.1-13.4-11.3-15.9-12.2-23.4-8.8zM518 113.7c.1 6.8.1 84.9 0 89 0 2.1-.4 3.3-.8 2.8-.4-.6-6.3-5.8-13.2-11.5-12.4-10.4-15.6-13.1-21.2-18l-2.9-2.5v-31.3c0-17.1.2-31.6.5-32 .2-.4 8.8-.8 19-.8l18.6-.1v4.4z"/><path d="M343.5 147.6c-1.6.8-3.2 1.8-3.5 2.2-.3.4-3.2 2.9-6.5 5.7-3.3 2.7-6.2 5.2-6.5 5.5-.3.3-3.4 3-7 6s-6.7 5.7-7 6c-.3.3-3.4 3-7 6s-6.7 5.7-7 6c-.3.3-3.4 3-7 6-7.1 6-7.9 6.7-19 16.2-4.1 3.5-13.6 11.6-21 17.9-37.1 31.6-69.6 59.4-70 59.9-.3.3-3 2.5-6 5s-5.7 4.7-6 5c-.3.3-8.1 7.1-17.5 15-9.3 8-18.1 15.5-19.5 16.7-4.6 4-7.5 6.4-22.1 18.9-8.1 6.9-15.4 13.9-16.2 15.6-.9 1.8-1.4 4.8-1.1 7.1.7 7.6 5.5 11.9 13.3 12 5.5.1 4.3.9 23.4-15.6 1.1-.9 2.1-1.7 2.1-1.7.1 0 .2 58.5.2 129.9v130l2.4 3.4c5 7.3-13.7 6.7 215.1 6.7h206.1l3.9-2.2c7.8-4.4 7.3 6.4 7.3-138.6 0-71 .1-129.2.3-129.2.1 0 4.2 3.4 9 7.7 9.8 8.5 13.8 10.6 18.5 9.8 6.9-1.2 12.5-8.5 11.5-14.7-.9-5.2-3-7.8-14.2-17.3-6.5-5.5-12.3-10.5-12.9-11-.6-.6-9-7.7-18.6-15.9-9.6-8.2-18.8-16-20.5-17.5-5.2-4.6-11-9.5-16.5-14.1-2.9-2.5-13.7-11.6-23.9-20.4-24.2-20.6-22.5-19.1-31.1-26.6-4.2-3.6-10-8.5-13-11-2.9-2.5-5.8-5-6.4-5.5-3-2.7-9.7-8.4-14-12-2.7-2.2-5.9-4.9-7-6-1.2-1.1-4.6-4-7.6-6.5s-5.9-5-6.5-5.6c-.5-.6-3.7-3.3-7-6s-7.3-6.1-9-7.6c-17.3-15.2-41.5-35.2-43.3-35.9-3.5-1.4-8.3-1.1-11.7.7zm9.6 32.4c1.3 1.1 3.3 2.8 4.4 3.8 1.1 1 11 9.4 22 18.7 11 9.3 20.2 17.2 20.5 17.5.3.3 3.2 2.8 6.5 5.5 3.3 2.8 7.3 6.2 9 7.7 4.1 3.6 6.4 5.6 12.1 10.3 2.6 2.2 5.2 4.5 5.8 5 .6.6 5.4 4.6 10.6 9 5.2 4.4 9.7 8.2 10 8.5.3.3 7.9 6.8 17 14.5s19.9 16.9 24.1 20.5c4.1 3.6 9.9 8.5 12.8 11 6.9 5.8 9 7.6 12.1 10.3 1.4 1.2 6.4 5.5 11.3 9.5l8.7 7.4v266.4H432v-82.1c0-91.6.4-86.7-7-90.9-3.4-2-5.1-2-75-2-77.9 0-75-.2-79.4 5.7-2.1 2.8-2.1 3.6-2.6 86l-.5 83.2H160V339.2l15.7-13.3c20.3-17.3 19.4-16.4 29.4-25 9.3-8 26.6-22.8 64.4-54.9 13.2-11.3 24.5-20.9 25.1-21.5.6-.5 2.2-1.9 3.6-3 7.4-6.2 14.7-12.4 17.8-15.1 9.8-8.7 33.3-28.4 33.9-28.4.5 0 1.9.9 3.2 2zm51.5 351.7l-.1 73.8h-109l-.1-73c-.1-40.2.1-73.3.3-73.8.2-.4 24.8-.7 54.7-.7h54.3l-.1 73.7z"/></svg>