<?xml version="1.0" standalone="no"?>
<!DOCTYPE svg PUBLIC "-//W3C//DTD SVG 20010904//EN"
 "http://www.w3.org/TR/2001/REC-SVG-20010904/DTD/svg10.dtd">
<svg version="1.0" xmlns="http://www.w3.org/2000/svg"
 width="700.000000pt" height="700.000000pt" viewBox="0 0 700.000000 700.000000"
 preserveAspectRatio="xMidYMid meet">
<metadata>
Created by potrace 1.11, written by Peter Selinger 2001-2013
</metadata>
<g transform="translate(0.000000,700.000000) scale(0.100000,-0.100000)"
fill="#000000" stroke="none">
<path d="M3441 6309 c-20 -9 -47 -28 -61 -40 -14 -13 -68 -60 -120 -104 -52
-44 -108 -92 -125 -106 -30 -27 -341 -291 -450 -383 -33 -28 -62 -53 -65 -56
-3 -3 -48 -41 -100 -85 -52 -44 -97 -82 -100 -85 -4 -4 -85 -74 -230 -196 -14
-12 -137 -117 -275 -234 -229 -195 -282 -240 -355 -304 -14 -12 -68 -57 -120
-101 -52 -44 -100 -84 -106 -90 -6 -5 -35 -30 -64 -55 -101 -85 -415 -352
-445 -379 -17 -14 -59 -51 -95 -81 -73 -62 -118 -100 -134 -115 -6 -5 -38 -32
-71 -60 -33 -27 -73 -62 -90 -77 -16 -14 -42 -37 -56 -50 -36 -31 -49 -59 -49
-103 0 -48 22 -89 63 -114 60 -37 129 -24 192 35 11 11 47 42 80 69 67 57 113
95 129 110 6 6 178 152 381 325 204 172 388 330 410 349 22 20 62 54 89 76 27
22 54 45 60 50 12 11 195 167 276 235 29 25 69 59 89 76 20 17 74 64 121 104
47 39 108 91 135 115 28 23 239 203 470 400 231 196 434 369 450 384 17 14 57
49 90 76 33 28 62 52 65 55 3 3 20 18 38 33 l33 27 108 -93 c59 -50 131 -112
161 -137 29 -25 167 -142 305 -260 138 -118 276 -235 306 -260 29 -25 72 -61
94 -81 22 -19 98 -84 170 -145 127 -106 176 -149 199 -169 6 -6 69 -60 141
-120 71 -61 195 -166 275 -234 80 -68 168 -143 195 -166 28 -23 134 -114 236
-201 102 -88 207 -177 234 -199 26 -22 53 -45 59 -50 6 -6 90 -77 186 -159 96
-81 192 -163 212 -182 90 -80 139 -98 203 -74 33 13 48 27 69 67 31 61 16 121
-44 173 -14 12 -36 31 -50 43 -14 12 -43 37 -65 56 -22 18 -62 53 -90 76 -45
39 -277 237 -410 350 -144 123 -225 193 -275 235 -30 26 -102 88 -160 137
l-105 90 0 685 0 685 -25 36 c-46 67 -52 68 -455 65 -486 -4 -449 28 -451
-388 -1 -157 -2 -286 -3 -287 -1 -3 -35 25 -65 52 -6 6 -101 86 -211 180 -110
93 -218 185 -241 204 -22 20 -53 47 -70 61 -87 73 -160 135 -164 140 -3 3 -45
39 -95 81 -134 113 -159 122 -234 88z m1739 -446 c1 -68 1 -849 0 -890 0 -21
-4 -33 -8 -28 -4 6 -63 58 -132 115 -124 104 -156 131 -212 180 l-29 25 0 313
c0 171 2 316 5 320 2 4 88 8 190 8 l186 1 0 -44z"/>
<path d="M3435 5524 c-16 -8 -32 -18 -35 -22 -3 -4 -32 -29 -65 -57 -33 -27
-62 -52 -65 -55 -3 -3 -34 -30 -70 -60 -36 -30 -67 -57 -70 -60 -3 -3 -34 -30
-70 -60 -36 -30 -67 -57 -70 -60 -3 -3 -34 -30 -70 -60 -71 -60 -79 -67 -190
-162 -41 -35 -136 -116 -210 -179 -371 -316 -696 -594 -700 -599 -3 -3 -30
-25 -60 -50 -30 -25 -57 -47 -60 -50 -3 -3 -81 -71 -175 -150 -93 -80 -181
-155 -195 -167 -46 -40 -75 -64 -221 -189 -81 -69 -154 -139 -162 -156 -9 -18
-14 -48 -11 -71 7 -76 55 -119 133 -120 55 -1 43 -9 234 156 11 9 21 17 21 17
1 0 2 -585 2 -1299 l0 -1300 24 -34 c50 -73 -137 -67 2151 -67 l2061 0 39 22
c78 44 73 -64 73 1386 0 710 1 1292 3 1292 1 0 42 -34 90 -77 98 -85 138 -106
185 -98 69 12 125 85 115 147 -9 52 -30 78 -142 173 -65 55 -123 105 -129 110
-6 6 -90 77 -186 159 -96 82 -188 160 -205 175 -52 46 -110 95 -165 141 -29
25 -137 116 -239 204 -242 206 -225 191 -311 266 -42 36 -100 85 -130 110 -29
25 -58 50 -64 55 -30 27 -97 84 -140 120 -27 22 -59 49 -70 60 -12 11 -46 40
-76 65 -30 25 -59 50 -65 56 -5 6 -37 33 -70 60 -33 27 -73 61 -90 76 -173
152 -415 352 -433 359 -35 14 -83 11 -117 -7z m96 -324 c13 -11 33 -28 44 -38
11 -10 110 -94 220 -187 110 -93 202 -172 205 -175 3 -3 32 -28 65 -55 33 -28
73 -62 90 -77 41 -36 64 -56 121 -103 26 -22 52 -45 58 -50 6 -6 54 -46 106
-90 52 -44 97 -82 100 -85 3 -3 79 -68 170 -145 91 -77 199 -169 241 -205 41
-36 99 -85 128 -110 69 -58 90 -76 121 -103 14 -12 64 -55 113 -95 l87 -74 0
-1332 0 -1332 -540 0 -540 0 0 821 c0 916 4 867 -70 909 -34 20 -51 20 -750
20 -779 0 -750 2 -794 -57 -21 -28 -21 -36 -26 -860 l-5 -832 -537 0 -538 0 0
1331 0 1332 157 133 c203 173 194 164 294 250 93 80 266 228 644 549 132 113
245 209 251 215 6 5 22 19 36 30 74 62 147 124 178 151 98 87 333 284 339 284
5 0 19 -9 32 -20z m515 -3517 l-1 -738 -545 0 -545 0 -1 730 c-1 402 1 733 3
738 2 4 248 7 547 7 l543 0 -1 -737z"/>
</g>
</svg>
