<svg xmlns="http://www.w3.org/2000/svg" version="1.1" width="600px" height="600px" viewBox="0 0 200 200" style="overflow:hidden!important;">
  <g id="svga-group-wrapper">
    <g id="svga-group-backs-single"></g>
    <g id="svga-group-humanwrap-move" transform="matrix(1,0,0,1,0,0)">
      <g id="svga-group-humanwrap">
        <g id="svga-group-hair-back-move" transform="matrix(1,0,0,1,0,0)">
          <g id="svga-group-hair-back"></g>
        </g>
        <g id="svga-group-humanbody-back">
          <path id="SvgjsPath11171" d="m170 180.3-27.3-6.9-18-9.9-1.5-28.2H76.8l-1.5 28.2-18 9.9-27.3 6.9-9.1 19.7-3 20h164.2l-3-20z" fill="#f0c7b1" stroke-width="none" opacity="1" stroke="none"></path>
          <path id="SvgjsPath11172" d="m76.8 135.3-1.5 28.2-18 9.9-27.3 6.9-9.1 19.7-3 20h14.6v-20l2.7-17.7 23.8-6.4 24.7-8.3 3.5-32.3z" fill="#d19271" stroke-width="none" opacity="1" stroke="none"></path>
        </g>
        <g id="svga-group-chinshadow-single">
          <path id="SvgjsPath11464" d="m121.5 149.1 2.2-3.8-.5-10H76.8l-.8 15.9 13.8 9.6h14.8z" fill="#c27b55" stroke-width="none" opacity="1" stroke="none"></path>
        </g>
        <g id="svga-group-humanbody-front">
          <path id="SvgjsPath11173" d="m92.8 168.3 2 7.9 6.9 4.6s-8.5-3-8.7-3.6c-.2-.6-.2-8.9-.2-8.9z" fill="#d19271" stroke-width="none" opacity="1" stroke="none"></path>
        </g>
        <g id="svga-group-clothes-single">
          <path id="SvgjsPath11045" d="m179.8 179.4-4.1-1.2-3.7-3.2-17.2-6.6H45.2L28 175l-3.7 3.2-4.1 1.2-5 16V220H184.8v-24.6z" fill="#386e77" stroke-width="none" opacity="1"></path>
          <path id="SvgjsPath11046" d="M165 217.7v.2-.2zm3.5-26.6-3.1 12.6s-.3 12.2-.4 14c.1-1.8 1.6-13.8 1.6-13.8l3.3-12.2 3.9-10.9-5.3 10.3zM154 169.8l-31.2-1.4H45.2L28 175l-3.7 3.2-4.1 1.1-5 16V220h7.9v-24l4.1-11.6 5.6 6.6 4.5 14.2 1.2 14.7h.3l-.2-16.3-4.1-12.8-4.5-8.5 11.5-3.3 1.8 3.9 11.4 14.7 11.6 8.7 13.8 3.9 17.6 5.4 1.9 4.4h6.1l1.3-3.8 13.8-.6s10.1-7.8 10.7-8.3c.6-.4 11.6-7.2 11.6-7.2l8.7-4.8 7.4-10.9-1.4-10.1-3.8-4.5z" fill="#265e68" stroke-width="none" opacity="1"></path>
          <path id="SvgjsPath11047" d="m76.4 143.6-6.4-2.9s-6.2 3.7-6.8 3.5c-.6-.2-10.1.8-10.1.8l-6.8 5.4 4.1-1-9.3 9.9-1.7 11.4 3.7-7-1.9 12.6 8.3 12.2-1.2-8.3 4.5 11.4s5.8 6.4 5.6 5.8-1.5-5.4-1.5-5.4l8.1 9.5 11.8 4.1-1.9-4.1 10.7 7.6 11.6 3.3 6.4 4.1-1.9-5.8 9.3 2.9h7.4l-2.9-2.7 8.9-6.4-1.7 5.2 9.7-5.2 5.8-7.6-1.4 5.8 5.8-6 2.9-7-1.2 7.4 7.2-7.8 3.3-13.8 1.4 7.2.4-11.4-4.1-8.9 4.1 3.1-5.8-10.9-7.2-3.3 5.4.2-9.7-6h-8.5l4.5-1.9-9.5-.4-2.5 1-2.1 3.7-8.5 3.1-3.5 3.3 2.9-.2-4.5 3.1-4.3 2.7-1 1.9 2.9-.8-1.9 2.3-3.1-2.1-4.7-4.1 3.5.8-3.7-2.7H90l-8.5-4.5 3.7.4-2.9-2.3-4.1-.2-.6-3.1-1.2-1.9z" fill="#648f96" stroke-width="none" opacity="1"></path>
          <path id="SvgjsPath11048" d="m76.4 143.6-6.4-2.9s-6.2 3.7-6.8 3.5c-.6-.2-10.1.8-10.1.8l-6.8 5.4 4.1-1-9.3 9.9-1.7 11.4 3.7-7-1.9 12.6 8.3 12.2-1.2-8.3 4.5 11.4s5.8 6.4 5.6 5.8-1.5-5.4-1.5-5.4l8.1 9.5 11.8 4.1-1.9-4.1 10.7 7.6 11.6 3.3 6.4 4.1-1.9-5.8 9.3 2.9h7.4l-2.9-2.7 8.9-6.4-1.7 5.2 9.7-5.2 5.8-7.6-1.4 5.8 5.8-6 2.9-7-1.2 7.4 7.2-7.8 3.3-13.8 1.4 7.2.4-11.4-4.1-8.9 4.1 3.1-5.8-10.9-7.2-3.3 5.4.2-9.7-6h-8.5l4.5-1.9-9.5-.4-2.5 1-2.1 3.7-8.5 3.1-3.5 3.3 2.9-.2-4.5 3.1-4.3 2.7-1 1.9 2.9-.8-1.9 2.3-3.1-2.1-4.7-4.1 3.5.8-3.7-2.7H90l-8.5-4.5 3.7.4-2.9-2.3-4.1-.2-.6-3.1-1.2-1.9z" fill="#ffffff" stroke-width="none" opacity="0.85"></path>
          <path id="SvgjsPath11049" d="m52.6 155.1-2.8 9.7 3.3 12.9-2-12.6 1.5-10zm6.5 18.9s1.6 11.5 1.6 11-.5-11-.5-11l2.5-7c-.5-.1-3.6 7-3.6 7zm-2.4-11 .3 5.6.8-6.1 2.1-5.7-3.2 6.2zm-13.1 7.9 1.6 6.1-.5-6.6 1.5-5.7-2.6 6.2zm24.2 13.4 2.3 7.5 9.8 4.6-9-5.7-3.1-6.4zm-2.8-6.7-1.3 7 2 8.5-1-8.5.3-7zm23.1 6.4-10.3-3.4-3.1-7.9 2.3 9.5 11.1 1.8zm-19-7.9 1.3 6.9-.2-6.7 1.1-6.9-2.2 6.7zm21.6 28-5.4-5.9 4.8 7.2 6.9 2.3 2.3 3.4-1.3-4.6-7.3-2.4zm6.7-38.5 4.1 6.9 1.6 5.1-.3-4.6-3.1-5.7 5.7 2.5 6.4 7.5 3.9 1-3.4-2.1-6.2-7.2s-5.4-3.1-5.9-3.3-5.2-7.9-5.2-7.9-8.2-4.1-8.7-3.9l7.2 4.4 3.9 7.3zm12.4 12.3 1.6 5.6s6.9 8 6.7 7.5-5.7-7.5-5.7-8c.1-.5-2.6-5.1-2.6-5.1zm8.1 19s.3 6.6.3 7.2 1.3-6.7 1.3-6.7-3.3-6.1-3.4-6.6l1.8 6.1zm-23.6 1.8 9.6 4.6-9-5.7-4.2-6.1 3.6 7.2zm6.9-1.2 9.5 3.9 4.9 7.4-4.4-8.3-10-3zm.3 8.7s6.6 4.8 7.2 4.9c.7.2 5.7.8 5.7.8l-6.1-2.1-6.8-3.6zm-32.2-11.9 1.3 5.1 4.4 4.4-3.3-4.8-2.4-4.7zM55 177.4l-1 9.7 3.1 7.5-2-7.8-.1-9.4zm-.5-27.6-9.7 7-2.8 4.1 3.4-3 9.1-8.1zm7.4-3.2-7.4-.5-3.9 2 3.9-.8 7.4-.7zm17.8 6.8-4.4-7.4-7.7-.3 7.2 1.5 4.9 6.2zm-9.9 7.6-1.3-7 .5 8 6.9 2.1-6.1-3.1zm14.4-5 6.4 6.7-5.4-7.9s-7.4-1.5-7.9-1.5l6.9 2.7zm.3 17.1-5.4-6.4 4.2 7.5 6.4 2-5.2-3.1zm37.1-23.5c-.7.2-7.7 2.3-7.7 2.3l-1 2.4 2.3-2 6.4-2.7zm-7.3 7.3-8 4.4-1.6 3.9 2.9-3.6 6.7-4.7zm-1.8 16.2 1.2-6.2 3.1-5.4-4.4 5.2.1 6.4zm18.6-28.7-4.6 2-4.6 4.9 5.1-3.8 4.1-3.1zm7.4 5.2 8.2 1.3s-7.5-2.8-8.2-2.8-7.4.6-7.4.6l7.4.9zm10.5 7.7 5.2 4.9s-4.1-5.6-4.4-6.1c-.3-.5-11.6-2-11.6-2l10.8 3.2zm3.4 13.9-.3 9 2.1-9.3-7-8.5 5.2 8.8zm-6.2 20.3c0 .5 2-2.5 2-2.5l1.5-7.2-2.3 5.9c-.1 0-1.2 3.3-1.2 3.8zm-9.2 4.1 4.4-2.6 2.8-6.7-3.6 5.4-3.6 3.9zm-9 8.6 4.6-3.3 2.1-8-3.3 6.9-3.4 4.4zm-5.7-7.3-.2-8-5.4-8.2 4.4 8.4 1.2 7.8zm-2.1 9 3.9-6.6.2-5.1-2 5.7-2.1 6zm27.6-31.6-3.1-9.3 1.5 9.2-1.8 5.9 3.4-5.8zm-5.6 2.3-2.8 5.6-4.9 4.7 6.1-4.1 1.6-6.2zm-1.9-18.3-7-2 6.4 3.1 3.4 3.6-2.8-4.7zm-4.4 10.9-4.4-8.5 2.4 8.7v6.7l2-6.9zm-3.6-15.2-4.4-1.1-6.4 3.3 6.4-2.1h4.4zm1.8 25.9-4.4 6.9-3.8 3.3 4.4-2.4 3.8-7.8z" fill="#265e68" stroke-width="none" opacity="0.5"></path>
          <path id="SvgjsPath11050" d="m109.3 181.8-1-6.7-3.5-3.2 2 4 2.5 5.9zm3-3.2 3.5 6.2 3.5 5.9-1.5-5.7-5.5-6.4zm-17.8-10.9 4.7 3.5-2.5-3.7-3.2-7.9-4.2-2.2 3.7 3.5 1.5 6.8zm14.5 18.8 2 6.2 2.7 7.4-.7-7.4-4-6.2zm-27.9 3.9-3.7-4.4 2.7 5.9 8.2 2.5-7.2-4zm12.4-3.4 4.7 6.2 8.2 2.7-7.9-3.9-5-5zm-9.8-9.8c-.2-.1-.3-.1-.4-.1l.4.1zm0 0c1.4.7 5.7 4.1 6.5 4.1 1 0 8.7-.5 8.7-.5l-8.2-1-7-2.6zm16 7.3 5.2 5.7s4.7 5.2 4.4 4.2-3-5.7-3-5.7l-6.6-4.2zm40.7-13.8-1.5 5.9 3.5-4.9-2.5-6.7.5 5.7zm-6.3 19.9 4.3-.8 2.1-3.5-3.1 2.3-3.3 2zm-8.3 9 3.1-1.9 2.9-6.7-3.9 5.5-2.1 3.1zm4.7-24.1-1.3 7.1 2.7-6.7-2.4-9.4 1 9zm5.4-15-3.9-4-5.3.1 4.7.9 4.5 3zm-18 16.5.5-8.4 2.6-6.6-3.8 5.6.7 9.4zm30-17.8s-4.6-2.1-5.1-2l4 2.1 3.8 3.4-2.7-3.5zm-10.6-8.3-5.1.4 9.6 1.1-4.5-1.5zm-13.7 31.2.3 5.9.9-5.5-.3-6-.9 5.6zM83.8 186l5.6 2.8 4.6 3.8-3.2-4.4c0-.1-6.6-2.4-7-2.2zm-3.4 13.6s4 6.3 4.4 6.3 7.6 2.7 7.6 2.7l-7-3.6-5-5.4zm-19.1-11.9 2.7 9.2 6.6 4.8-5.9-5.6-3.4-8.4zm3.9-18.2 1.7 7.8-.7-7.8.8-4.9-1.8 4.9zM58 150.1l-4 6.8 4.8-5.5 6.6-1.2-7.4-.1zm20.7 12.4-3.2-4.3 1.9 5 7.5 4.5-6.2-5.2z" fill="#ffffff" stroke-width="none" opacity="1"></path>
        </g>
        <g id="svga-group-head" transform="matrix(1,0,0,1,0,0)">
          <g id="svga-group-ears-left-move" transform="matrix(1,0,0,1,0,0)">
            <g id="svga-group-ears-left">
              <path id="SvgjsPath11069" d="M64.4 98.1 54.2 87l-5.4 1.3 4.4 13.8-.1 8.8 4.1 8.5 3.8-.6 4.9-9.3z" fill="#f0c7b1" stroke-width="none" opacity="1" stroke="none"></path>
              <path id="SvgjsPath11070" d="m52.8 97.9-2.3-8.8L58 102l-1.4.2 2.1 5.5-.1 5.1-4-3.7-.1-10.8-2.1-4.5z" fill="#d19271" stroke-width="none" opacity="1" stroke="none"></path>
              <path id="SvgjsPath11071" d="M50.66 87.86 54.2 87l10.2 11.1 1.5 11.4-4.9 9.3-3.8.6-1.92-3.98c1.4 1.3 2.52 2.48 2.52 2.48l2.5-2s1-10.8 1.1-11.2c.1-.4-5.5-11.8-5.5-11.8l-5.24-5.04z" fill="#e1ac8f" stroke-width="none" opacity="1" stroke="none"></path>
            </g>
          </g>
          <g id="svga-group-ears-right-move" transform="matrix(1,0,0,1,0,0)">
            <g id="svga-group-ears-right">
              <path id="SvgjsPath11072" d="M135.6 98.1 145.8 87l5.4 1.3-4.4 13.8.1 8.8-4.1 8.5-3.8-.6-4.9-9.3z" fill="#f0c7b1" stroke-width="none" opacity="1" stroke="none"></path>
              <path id="SvgjsPath11073" d="m147.2 97.9 2.3-8.8L142 102l1.4.2-2.1 5.5.1 5.1 4-3.7.1-10.8 2.1-4.5z" fill="#d19271" stroke-width="none" opacity="1" stroke="none"></path>
              <path id="SvgjsPath11074" d="M149.32 87.86 145.8 87l-10.2 11.1-1.5 11.4 4.9 9.3 3.77.58 1.96-4.01c-1.4 1.3-2.54 2.53-2.54 2.53l-2.5-2s-1-10.8-1.1-11.2c-.1-.4 5.5-11.8 5.5-11.8l5.23-5.04z" fill="#e1ac8f" stroke-width="none" opacity="1" stroke="none"></path>
            </g>
          </g>
          <g id="svga-group-faceshape-wrap">
            <g id="svga-group-faceshape-single">
              <path id="SvgjsPath11454" d="M138.1 60c-6.9-11.6-19.7-19.5-19.7-19.5-7.2-1.5-18.4-2.3-18.4-2.3s-11.1.8-18.4 2.3c0 0-12.8 7.9-19.7 19.5 0 0-5.1 14.5-5.3 24.8l4.9 33.9 14.2 24.8 16.9 11.7h14.9l16.9-11.7 14.2-24.8 4.9-33.9c-.3-10.3-5.4-24.8-5.4-24.8z" fill="#f0c7b1" stroke-width="none" opacity="1" stroke="none"></path>
              <path id="SvgjsPath11455" d="m92.7 152.7-14.6-12.3s-11.4-20.9-11.8-21.7c-.4-.9-5-34.3-5-34.3.2-4.8 4.5-21.5 5-22.2 2.1-3.2 16.5-18 16.5-18l17.1-4.1 18.5.4c-7.2-1.5-18.4-2.3-18.4-2.3s-11.1.8-18.4 2.3c0 0-12.8 7.9-19.7 19.5 0 0-5.1 14.5-5.3 24.8l4.9 33.9 14.2 24.8 16.9 11.7h14.9l16.9-11.7-18 10.4-13.7-1.2z" fill="#d19271" stroke-width="none" opacity="1" stroke="none"></path>
            </g>
          </g>
          <g id="svga-group-mouth-single-move" transform="matrix(1,0,0,1,0,0)">
            <g id="svga-group-mouth-single">
              <path id="SvgjsPath11554" d="m84.99 125.5 2.75 3.94 12.37-.68 12.45.84 3.02-3.87-3.73 2.46-6.81-2.5-4.93 1.46-4.57-1.35-7.7 1.93z" fill="#da7c87" stroke-width="none" opacity="1" transform="translate(0 2)" stroke="none"></path>
              <path id="SvgjsPath11555" d="m89.12 131.92 1.15 2.64 10.05 2.86 10.83-3.61-10.89 2.15-9.41-2.31-1.73-1.73z" fill="#d19271" stroke-width="none" opacity="1" transform="translate(0 2)" stroke="none"></path>
            </g>
          </g>
          <g id="svga-group-eyes-left-move" transform="matrix(1,0,0,1,0,0)">
            <g id="svga-group-eyes-left">
              <g id="svga-group-eyesback-left">
                <path id="SvgjsPath11109" d="M92.5 96.6 88 92.7S75 92 74.7 92s-6.3 4.2-6.1 4.4c.2.2 6.5 3 9 3.5 0 0 3.8 0 7.7-.8 2.8-.8 5.7-1.9 7.2-2.5z" fill="#ffffff" stroke-width="none" opacity="1"></path>
              </g>
              <g id="svga-group-eyesiriswrapper-left" transform="matrix(1,0,0,1,0,0)">
                <g id="svga-group-eyesiriscontrol-left" transform="matrix(1,0,0,1,0,0)">
                  <g id="svga-group-eyesiris-left">
                    <path id="SvgjsPath11188" d="m76.76 97.53-.81-3.95 2.22-3.37 3.94-.81 3.37 2.22.81 3.95-2.22 3.36-3.95.81z" fill="#4e60a3" stroke-width="none" opacity="1"></path>
                    <path id="SvgjsPath11189" d="m80 97.28-1.59-1.59v-2.24L80 91.87h2.24l1.58 1.58v2.24l-1.58 1.59z" fill="#000000" stroke-width="none" opacity="1"></path>
                    <path id="SvgjsPath11190" d="m85.71 91.46-3.55-2.34-4.16.85-2.34 3.55.85 4.16 3.55 2.34 4.16-.85 2.34-3.55-.85-4.16zm-4.66 5.99.22 1.79-.58.12v-1.91h.36zm.17 0h.39l.46 1.62-.63.13-.22-1.75zm.57 0h.42l.81 1.43-.78.16-.45-1.59zm.38-.35h-2.1l-1.48-1.48v-2.1l1.48-1.48h2.1l1.48 1.48v2.1l-1.48 1.48zm-4 1.04 1.11-1.34.26.26c-.26.52-.6 1.2-.75 1.49l-.62-.41zm.99-1.46-1.14 1.36-.54-.35 1.33-1.35.35.34zm.51.51.24.24-.28 1.67-.7-.46c.11-.2.32-.61.74-1.45zm-2.89-.88-.18-.86 1.64-.23v.41l-1.46.68zm1.46-1.78-1.85-.11-.12-.57 1.97.23v.45zm0 .18v.34l-1.67.23-.14-.68 1.81.11zm.11-1.44-1.63-.38.71-1.07 1.41.97-.49.48zm-.27-2.45c.17.18.57.53 1.45 1.28l-.57.57-1.44-.99.56-.86zm2.73.87c-.06-.38-.2-1.24-.27-1.7l.74-.15v1.85h-.47zm-.18 0h-.36l-.85-1.47.95-.2c.09.6.21 1.33.26 1.67zM84 93.77l1.58-.37.14.7-1.72.12v-.45zm0-.18v-.21l-.27-.27 1.55-1.2.27 1.33-1.55.35zm-.4-.61-.37-.37 1.29-1.31.67.44-1.59 1.24zm-.49-.49-.49-.49.73-1.47 1.02.67-1.26 1.29zm-.62-.62-.17-.17h-.27l.23-1.87.93.61-.72 1.43zm.7 4.7 1.25 1.32-.39.6-1.22-1.56.36-.36zm.13-.12.24-.24 1.49.78-.5.76-1.23-1.3zm.37-.37.31-.32v-.11c.34.09 1.04.29 1.62.46l-.47.72-1.46-.75zm.31-1.69 1.76-.11.13.64-1.89-.08v-.45zm-1.89-4.68-.25 1.98h-.42V89.8l.61-.13.06.04zm-2.87.55.83 1.43h-.14l-.28.28c-.54-.47-1.25-1.08-1.47-1.3l.15-.22.91-.19zm-2.63 2.78 1.63.38v.48l-2-.23-.01-.04.38-.59zm.2 3.45 1.47-.68.41.41-1.35 1.38-.34-.23-.19-.88zm2.98 2.72.29-1.76h.45v1.94l-.35.07-.39-.25zm3.41-.37-.82-1.46.33-.33 1.24 1.59-.04.06-.71.14zm2.51-2.88c-.58-.17-1.35-.39-1.72-.49v-.46l1.93.07.09.43-.3.45z" fill="#253984" stroke-width="none" opacity="1"></path>
                    <path id="SvgjsPath11191" d="m80.63 91.91-.97-.29-.72.7.23.97.97.29.72-.7z" fill="#ffffff" stroke-width="none" opacity="1"></path>
                    <path id="SvgjsPath11192" d="m82.79 96.11-.59-.34-.59.34v.68l.59.34.59-.34z" fill="#ffffff" stroke-width="none" opacity="1"></path>
                  </g>
                </g>
              </g>
              <g id="svga-group-eyesfront-left">
                <path id="SvgjsPath11117" d="M67.1 89.3v11.9l7.9 8.4h11.2l7.9-8.4V89.3l-7.9-8.4H75l-7.9 8.4zm1.5 7c-.2-.2 5.9-4.4 6.1-4.4s13.3.8 13.3.8l4.5 3.9c-1.5.7-4.4 1.8-7.2 2.4-3.9.9-7.7.8-7.7.8-2.5-.4-8.7-3.3-9-3.5z" fill="#f0c7b1" stroke-width="none" opacity="1" stroke="none"></path>
                <path id="SvgjsPath11118" d="m93 96.8-1.2-.5-4.1-3.4-12.9-.6-4.5 3.1-1.1 1 6.3 2.8-2.9-.7-4.7-2.1 1.8-1.8 5-3 13.3.9z" fill="#000000" stroke-width="none" opacity="1" stroke="none"></path>
                <path id="SvgjsPath11119" d="m91.5 94.7-3.8-4.5-9.7-.1-2.9 1.3 3.4-.9 9.1.2z" fill="#e1ac8f" stroke-width="none" opacity="1" stroke="none"></path>
              </g>
            </g>
          </g>
          <g id="svga-group-eyes-right-move" transform="matrix(1,0,0,1,0,0)">
            <g id="svga-group-eyes-right">
              <g id="svga-group-eyesback-right">
                <path id="SvgjsPath11110" d="m107.5 96.6 4.5-3.9s13-.7 13.3-.7 6.3 4.2 6.1 4.4c-.2.2-6.5 3-9 3.5 0 0-3.8 0-7.7-.8-2.8-.8-5.7-1.9-7.2-2.5z" fill="#ffffff" stroke-width="none" opacity="1"></path>
              </g>
              <g id="svga-group-eyesiriswrapper-right" transform="matrix(1,0,0,1,0,0)">
                <g id="svga-group-eyesiriscontrol-right" transform="matrix(1,0,0,1,0,0)">
                  <g id="svga-group-eyesiris-right">
                    <path id="SvgjsPath11193" d="m114.52 97.53-.81-3.95 2.22-3.37 3.95-.81 3.36 2.22.81 3.95-2.22 3.36-3.94.81z" fill="#4e60a3" stroke-width="none" opacity="1"></path>
                    <path id="SvgjsPath11194" d="m117.76 97.28-1.58-1.59v-2.24l1.58-1.58H120l1.59 1.58v2.24L120 97.28z" fill="#000000" stroke-width="none" opacity="1"></path>
                    <path id="SvgjsPath11195" d="m123.47 91.46-3.55-2.34-4.16.85-2.34 3.55.85 4.16 3.55 2.34 4.16-.85 2.34-3.55-.85-4.16zm-4.66 5.99.22 1.79-.58.12v-1.91h.36zm.18 0h.39l.46 1.62-.63.13-.22-1.75zm.57 0h.42l.81 1.43-.78.16-.45-1.59zm.37-.35h-2.1l-1.48-1.48v-2.1l1.48-1.48h2.1l1.48 1.48v2.1l-1.48 1.48zm-4 1.04 1.11-1.34.26.26c-.26.52-.6 1.2-.75 1.49l-.62-.41zm.99-1.46-1.14 1.36-.54-.35 1.33-1.35.35.34zm.51.51.24.24-.28 1.67-.7-.46c.12-.2.32-.61.74-1.45zm-2.89-.88-.18-.86 1.64-.23v.41l-1.46.68zm1.46-1.78-1.85-.11-.12-.57 1.97.23v.45zm0 .18v.34l-1.67.23-.14-.68 1.81.11zm.11-1.44-1.63-.38.71-1.07 1.41.97-.49.48zm-.27-2.45c.17.18.57.53 1.45 1.28l-.57.57-1.44-.99.56-.86zm2.73.87c-.06-.38-.2-1.24-.27-1.7l.74-.15v1.85h-.47zm-.18 0h-.36l-.85-1.47.95-.2c.09.6.21 1.33.26 1.67zm3.37 2.08 1.58-.37.14.7-1.72.11v-.44zm0-.18v-.21l-.27-.27 1.55-1.2.27 1.33-1.55.35zm-.4-.61-.37-.37 1.29-1.31.67.44-1.59 1.24zm-.49-.49-.49-.49.73-1.47 1.02.67-1.26 1.29zm-.62-.62-.17-.17h-.27l.23-1.87.93.61-.72 1.43zm.71 4.7 1.25 1.32-.39.6-1.22-1.56.36-.36zm.12-.12.24-.24 1.49.78-.5.76-1.23-1.3zm.37-.37.31-.31v-.11c.34.09 1.04.29 1.62.46l-.47.72-1.46-.76zm.31-1.69 1.76-.11.13.64-1.89-.07v-.46zm-1.88-4.68-.25 1.98h-.42V89.8l.61-.13.06.04zm-2.88.55.83 1.43h-.14l-.28.28c-.54-.47-1.25-1.08-1.47-1.3l.15-.22.91-.19zm-2.62 2.78 1.63.38v.48l-2-.23-.01-.04.38-.59zm.19 3.45 1.47-.68.41.41-1.35 1.38-.34-.23-.19-.88zm2.98 2.72.29-1.76h.45v1.94l-.35.07-.39-.25zm3.41-.37-.82-1.46.33-.33 1.24 1.59-.04.06-.71.14zm2.52-2.88c-.58-.17-1.35-.39-1.72-.49v-.46l1.93.07.09.43-.3.45z" fill="#253984" stroke-width="none" opacity="1"></path>
                    <path id="SvgjsPath11196" d="m118.39 91.91-.96-.29-.73.7.24.97.96.29.73-.7z" fill="#ffffff" stroke-width="none" opacity="1"></path>
                    <path id="SvgjsPath11197" d="m120.55 96.11-.59-.34-.59.34v.68l.59.34.59-.34z" fill="#ffffff" stroke-width="none" opacity="1"></path>
                  </g>
                </g>
              </g>
              <g id="svga-group-eyesfront-right">
                <path id="SvgjsPath11120" d="M125 80.8h-11.2l-7.9 8.4v11.9l7.9 8.4H125l7.9-8.4V89.3l-7.9-8.5zm-2.6 19s-3.8 0-7.7-.8c-2.8-.6-5.7-1.7-7.2-2.4l4.5-3.9s13-.7 13.3-.7 6.3 4.2 6.1 4.4-6.5 3-9 3.4z" fill="#f0c7b1" stroke-width="none" opacity="1" stroke="none"></path>
                <path id="SvgjsPath11123" d="m107 96.8 1.2-.5 4.1-3.4 12.9-.6 4.5 3.1 1.1 1-6.3 2.8 2.9-.7 4.7-2.1-1.8-1.8-5-3-13.3.9z" fill="#000000" stroke-width="none" opacity="1" stroke="none"></path>
                <path id="SvgjsPath11124" d="m108.5 94.7 3.8-4.5 9.7-.1 2.9 1.3-3.4-.9-9.1.2z" fill="#e1ac8f" stroke-width="none" opacity="1" stroke="none"></path>
              </g>
            </g>
          </g>
          <g id="svga-group-facehighlight-single"></g>
          <g id="svga-group-eyebrows-left-move" transform="matrix(1,0,0,1,0,0)">
            <g id="svga-group-eyebrows-left-rotate" transform="matrix(1,1.7453292519943295e-9,-1.7453292519943295e-9,1,1.412844028436666e-7,-1.377937479674074e-7)">
              <g id="svga-group-eyebrows-left">
                <path id="SvgjsPath11023" d="m91.8 85.9-12.6-.4-13.1.4.2-1.4 2.1-4.3 5.5-4.1 10.6-.1 7.1 5.4z" fill="#2a232b" stroke-width="none" opacity="1"></path>
                <path id="SvgjsPath11024" d="m79.6 78.1-.3 3.5-1.1 2.5 1.4-6zm-7.8 7.7-.6-1.9-1.2-1.7 1.8 1.8.8 1.2 7.5-.8 2-4.1.6-2.3.3-1.7-.2 4.4-1.5 4 3.6.4 3.2-2.3.9-1.3.7-1.1c-.3 1-1 3.2-1.1 3.3-.1.2-1.1 1.2-1.8 2l-7.6-.2-7.4.3z" fill="#1b141c" stroke-width="none" opacity="1"></path>
              </g>
            </g>
          </g>
          <g id="svga-group-eyebrows-right-move" transform="matrix(1,0,0,1,0,0)">
            <g id="svga-group-eyebrows-right-rotate" transform="matrix(1,1.7453292519943295e-9,-1.7453292519943295e-9,1,1.412844028436666e-7,-2.1127209492988186e-7)">
              <g id="svga-group-eyebrows-right">
                <path id="SvgjsPath11025" d="m108.2 85.9 12.6-.4 13.1.4-.2-1.4-2.1-4.3-5.5-4.1-10.6-.1-7.1 5.4z" fill="#2a232b" stroke-width="none" opacity="1"></path>
                <path id="SvgjsPath11026" d="m120.4 78.1.3 3.5 1.1 2.5-1.4-6zm7.8 7.7.6-1.9 1.2-1.7-1.8 1.8-.8 1.2-7.5-.8-2-4.1-.6-2.3-.3-1.7.2 4.4 1.5 4-3.6.4-3.2-2.3-.9-1.3-.7-1.1c.3 1 1 3.2 1.1 3.3.1.2 1.1 1.2 1.8 2l7.6-.2 7.4.3z" fill="#1b141c" stroke-width="none" opacity="1"></path>
              </g>
            </g>
          </g>
          <g id="svga-group-beardwrap">
            <g id="svga-group-beard-single-move" transform="matrix(1,0,0,1,0,0)">
              <g id="svga-group-beard-single">
                <path id="SvgjsPath11013" d="m60.5 118.2 1.3 21 2.5 6.9.9-3.7 4.4 18.1 2.9 5.4.2-3.1 3.5 11.3 3.1 4.4.3-2 3.7 7.5 1.1-1.1 3.4 6.7 1.3-1.8L94 198l.6-2.2 1.4 2 2.3-5.1 1 4.6 4.6-7.9-1.1 7.9 6.9-7.5 2.5-4-.5 5.1 8.2-11.1 2.4-5.7-.2 5.5 7.6-13.1 3.3-12.8.4 3.9 7.9-20-1.7-18.7-2.6-2.7-4.7 1.3-5.3 13.8-13 15.1-14.1 2.8-13.6-2.6-12.1-14.3-7.5-15-4-1.1z" fill="#2a232b" stroke-width="none" opacity="1"></path>
                <path id="SvgjsPath11014" d="m138 136.6-3.6 10.1-2.1-.5s-2.9 11.8-3.7 11l-2.9 7.4-1.1-2.4-9.4 19.2-1.3-3.1-6.8 7.9-1.6-10-7.9 13.1-1.1-2.9-1.6 4.2-2.6-5.2-5.5-12.1L85 177l-6-22.9-1.3 6.6-4.2-12.1-5.8-28.7-1-2.6-4-1.1-2.2 2-1.6 19.4 6 17 1.3-7.9 3.4 13.9 2.9 5.3.2-3.1 3.6 11.3 3.1 4.4.2-2 3.8 7.5 1.1-1.1 3.3 6.6 1.3-1.8L94 198l.7-2.2 1.3 2 2.3-5 1 4.6 4.7-8-1.1 8 6.9-7.5 2.4-4-.4 5.1 8.2-11.1 2.4-5.8-.2 5.5 7.5-13.1 3.3-12.9.4 4 7.8-20.1-3.2-.9zm-38.1 12.6-13.7-2.6 9 14 2.1-.8 1 7.1 2.9-6.3 1.3 1.3 1-7.1 2.9-1.1 7.4-7.4-13.9 2.9z" fill="#1b141c" stroke-width="none" opacity="1"></path>
              </g>
            </g>
          </g>
          <g id="svga-group-mustache-single-move" transform="matrix(1,0,0,1,0,0)">
            <g id="svga-group-mustache-single">
              <path id="SvgjsPath11341" d="m102.29 119.45 15.44 1.97 10.16 5.29s-11.4 3.42-11.71 3.32c-.31-.1-11.51-1.45-11.51-1.45l-3.21-1.28-.66-.52-.59.52-3.21 1.28s-11.19 1.35-11.51 1.45c-.31.1-11.71-3.32-11.71-3.32l10.16-5.29 15.44-1.97h2.91z" fill="#2a232b" stroke-width="none" opacity="1"></path>
              <path id="SvgjsPath11342" d="m122.88 127.65-8.68-4.34-8.59-2.48c.73-.23 1.48-.46 2.18-.68l-5.5-.7h-2.92l-6.67.85c.6.17 1.44.41 2.34.66l-8.76 3.17-9.36 2.46-.57-.14s1.19-1.22 2.24-2.26l-4.83 2.52s11.4 3.42 11.71 3.32c.31-.1 11.51-1.45 11.51-1.45l3.21-1.28.59-.52.66.52 3.21 1.28s11.19 1.35 11.51 1.45c.31.1 11.71-3.32 11.71-3.32l-4.99.94zm-8.74-3.81 8.7 3.82-6.34 1.19-8.27-3.73-5.25-3.47c.77-.24 1.65-.52 2.55-.8l8.61 2.99zm-27.44.99 8.47-3.84c.5.14 1.02.28 1.53.42l-9.24 4.7-5 1.83-5.37-1.32 9.61-1.79zm-1.57 3.78-2.48-.61c1.75-.46 4.98-1.31 5.1-1.35.15-.05 6.95-4.02 9-5.21 1.02.28 1.99.54 2.7.72l-3.86 3.61-3.55 2.12-6.91.72zm16.06-2.83-.54-1.15-.47 1.08-3.98 1.75-3.54.37 4.35-2.06 2.64-3.57c.53.13.89.21.94.2.04-.01.3-.09.7-.21.76.82 2.27 2.64 2.27 2.64l4.76 3.04-3.28-.41-3.85-1.68zm7.23 2.1-4.46-3.23-2.67-2.47c.41-.13.96-.3 1.61-.5l4.81 3.91 8.7 3.28-.04.01-7.95-1z" fill="#221b23" stroke-width="none" opacity="1"></path>
            </g>
          </g>
          <g id="svga-group-nose-single-move" transform="matrix(1,0,0,1,0,0)">
            <g id="svga-group-nose-single">
              <path id="SvgjsPath12337" d="m96.12 99.91-.45 6.4-5.78 8.87 2.98 2.25 1.63-2.02 4.32 3.82h2.41l4.27-3.82 1.57 1.96 3.15-2.19-5.79-8.92-.56-6.46-3.82-1.63z" fill="#f0c7b1" stroke-width="none" opacity="1" transform="translate(0 1)"></path>
              <path id="SvgjsPath12338" d="m104.86 106.44-1.95-15.67 1.1 14.55-.86-.22 6.58 10.06-2.34 1.73-1.28-1.51.28-1.34-5.15 4.47h-2.4l-5.15-4.47.29 1.34-1.29 1.51-2.34-1.73 6.59-10.06-.86.22 1.33-22.81-2.19 23.93-5.82 8.83 3.81 2.79 1.44-2.01 4.19 3.91h2.4l4.2-3.91 1.43 2.01 3.81-2.79z" fill="#d19271" stroke-width="none" opacity="1" transform="translate(0 1)"></path>
              <path id="SvgjsPath12339" d="m96.15 113.17 2.37 1.46 3.1.06 2.55-1.16-.3-1.76-3.59-.6-3.94.66z" fill="#f8d5c3" stroke-width="none" opacity="1" transform="translate(0 1)"></path>
            </g>
          </g>
          <g id="svga-group-hair-front">
            <path id="SvgjsPath11353" d="m54.24 85.14 4.35 11.46 3.16 2.56 4.74-40.3 5.14-7.12 10.47-2.57 17.59 4.15 16.59-3.95 10.87 1.98 6.13 6.91 5.73 39.72 3.36-4.94 2.56-8.5-.59-4.94 1.19-6.91-1.58-4.75.59-7.7-2.17-4.74-.6-6.92-6.52-6.91-7.11-13.44-14.03-7.11-10.87 2.37-4.74-2.77-3.56 1.58-13.23.99-5.54 6.13-8.3 2.56-1.18 3.56-9.49 9.29-.19 11.26-2.37 7.9 1.77 2.57-3.16 7.12 1.58 5.53z" fill="#2a232b" stroke-width="none" opacity="1" stroke="none"></path>
            <path id="SvgjsPath11354" d="M138.83 80.27c-.22-.9-4.49-22.91-4.49-22.91l-6.74-7.19-11.68-2.02-16.85 3.82-12.13-10.56 1.57-11.23 9.88-7.41 4.72 2.25 11-3.9-10.87 2.37-4.74-2.77-3.56 1.58-13.24.99-5.53 6.13-8.3 2.57-1.19 3.56-9.48 9.29L57 56.1 54.63 64l1.78 2.57-3.16 7.11 1.58 5.53-.59 5.93 4.35 11.46 3.16 2.57.36-3.05-5.72-9.77v-5.39l6.53 8.22.37-3.11-7.8-12.52 2.25-4.94 6.45 9.86.85-7.2-5.05-10.3-.9-14.38 8.09-7.86-2.25 8.09 1.56 12.05 5.14-7.11-2.88-6.51 8.54-14.38 8.98-6.29-6.51 19.99 3.82 4.96 16.11 3.8 16.6-3.95 10.87 1.98 6.13 6.92L139.02 98c-.01-.02.03-16.83-.19-17.73z" fill="#1b141c" stroke-width="none" opacity="1" stroke="none"></path>
            <path id="SvgjsPath11355" d="m102.27 27.16-.99 10.36 13.49 10.19-11.68-11.02z" fill="#1b141c" stroke-width="none" opacity="1" stroke="none"></path>
            <path id="SvgjsPath11356" d="m134.23 42.76.15 9.18-.47 3.32 1.74-4.43.63-6.02z" fill="#1b141c" stroke-width="none" opacity="1" stroke="none"></path>
            <path id="SvgjsPath11357" d="M140.72 58.74c-.32.47-2.53 8.55-2.53 8.55l-1.58 2.69 2.85-2.22 2.37-8.23-1.11-.79z" fill="#1b141c" stroke-width="none" opacity="1" stroke="none"></path>
          </g>
          <g id="svga-group-glasses-single-move" transform="matrix(1,0,0,1,0,0)">
            <g id="svga-group-glasses-single">
              <path id="SvgjsPath11262" d="m63.73 96.71.48 2.99 1.69 1.9 9.92 4.08 9.3 2.37 3.33-.74 3.87-3.6 2.72-4.42 2.24-8.62-15.35-3.53H69.1l-5.3 1.29-1.09 4.21z" fill="url(#SvgjsLinearGradient11263)" opacity="1"></path>
              <path id="SvgjsPath11269" d="m85.12 108.18-.03-.01-9.3-2.38-9.98-4.11-1.72-1.93-.48-3.02-1.02-4.1.01-.03 1.1-4.28.07-.02 5.3-1.29h12.87l15.5 3.56-2.29 8.78-2.74 4.44-3.9 3.62-.03.01-3.36.76zm-19.14-6.68 9.89 4.06 9.26 2.36 3.27-.73 3.83-3.57 2.7-4.38 2.2-8.48-15.22-3.5H69.1l-5.19 1.27-1.06 4.11 1.01 4.05.47 2.95 1.65 1.86z" fill="#ffffff" stroke-width="none" opacity="1"></path>
              <path id="SvgjsPath11270" d="m136.27 96.71-.48 2.99-1.69 1.9-9.92 4.08-9.3 2.37-3.33-.74-3.87-3.6-2.72-4.42-2.24-8.62 15.35-3.53h12.83l5.3 1.29 1.09 4.21z" fill="url(#SvgjsLinearGradient11271)" opacity="1"></path>
              <path id="SvgjsPath11277" d="m111.52 107.43-.03-.01-3.9-3.62-2.74-4.44-2.29-8.78 15.5-3.56h12.87l5.3 1.29.07.02 1.1 4.28.01.03-1.02 4.1-.48 3.02-1.72 1.93-9.98 4.11-9.3 2.38-.03.01-3.36-.76zm24.16-7.79.47-2.95 1.01-4.05-1.06-4.11-5.19-1.27H118.1l-15.22 3.5 2.2 8.48 2.7 4.38 3.83 3.57 3.27.73 9.26-2.36 9.89-4.06 1.65-1.86z" fill="#ffffff" stroke-width="none" opacity="1"></path>
              <path id="SvgjsPath11278" d="m138.92 87.54-6.73-1.22-13.85.07-12.09 2.38-4.48 1.29-1.16.13h-1.22l-1.16-.13-4.48-1.29-12.09-2.38-13.85-.07-6.73 1.22-1.36 6.32.34 1.09 4.21 3.12-.54-5.16 1.09-4.14 3.12-.75 13.65-.07 11.96 2.17 1.9 1.36.27 2.58-1.22 4.82-2.86 5.17 2.58-.62 4.15-7.67 1.02-.95h1.22l1.02.95 4.15 7.67 2.58.62-2.86-5.17-1.22-4.82.27-2.58 1.9-1.36 11.96-2.17 13.65.07 3.12.75 1.09 4.14-.54 5.16 4.21-3.12.34-1.09z" fill="#26120b" stroke-width="none" opacity="1"></path>
            </g>
          </g>
        </g>
      </g>
    </g>
    <rect id="svga-credit-rect" width="200" height="15" x="0" y="185" fill="#ecf0f1" opacity="0.5" style="display: none;"></rect>
    <text id="svga-credit-text" font-family="Avenir Next, Roboto, Helvetica, Arial, sans-serif" font-size="10px" text-anchor="start" font-weight="400" size="10px" anchor="start" weight="400" fill="#333333" x="33.40447998046875" y="182.60824704170227" style="display: none;">
      <tspan id="SvgjsTspan11012" dy="13" x="33.40447998046875">Created on AvatarMaker.com</tspan>
    </text>
  </g>
  <defs id="SvgjsDefs10959">
    <linearGradient id="SvgjsLinearGradient11263" x1="79.9967" y1="87.1358" x2="79.9967" y2="108.0529" gradientUnits="userSpaceOnUse" class="svga-on-canvas-glasses-gradient-single-0-null">
      <stop id="SvgjsStop11264" stop-opacity="1" stop-color="#ffba38" offset="0.004166667"></stop>
      <stop id="SvgjsStop11265" stop-opacity="0.8314" stop-color="#f5b232" offset="0.1721"></stop>
      <stop id="SvgjsStop11266" stop-opacity="0.541" stop-color="#d99d24" offset="0.4612"></stop>
      <stop id="SvgjsStop11267" stop-opacity="0.1664" stop-color="#ac7b0c" offset="0.8343"></stop>
      <stop id="SvgjsStop11268" stop-opacity="0" stop-color="#966a00" offset="1"></stop>
    </linearGradient>
    <linearGradient id="SvgjsLinearGradient11271" x1="-22.0033" y1="87.1358" x2="-22.0033" y2="108.0529" gradientTransform="matrix(-1 0 0 1 98 0)" gradientUnits="userSpaceOnUse" class="svga-on-canvas-glasses-gradient-single-2-null">
      <stop id="SvgjsStop11272" stop-opacity="1" stop-color="#ffba38" offset="0.004166667"></stop>
      <stop id="SvgjsStop11273" stop-opacity="0.8314" stop-color="#f5b232" offset="0.1721"></stop>
      <stop id="SvgjsStop11274" stop-opacity="0.541" stop-color="#d99d24" offset="0.4612"></stop>
      <stop id="SvgjsStop11275" stop-opacity="0.1664" stop-color="#ac7b0c" offset="0.8343"></stop>
      <stop id="SvgjsStop11276" stop-opacity="0" stop-color="#966a00" offset="1"></stop>
    </linearGradient>
  </defs>
</svg>
