<svg xmlns="http://www.w3.org/2000/svg" width="24" height="24" fill="#FFF"><path d="M24 24h-2.784l-1.07-3h-4.875l-1.077 3h-2.697l4.941-13h2.604L24 24zm-4.573-5.069l-1.705-4.903-1.712 4.903h3.417zM10.175 6.127c.126-.486.201-.852.271-1.212l-2.199-.428c-.036.185-.102.533-.22 1a9.527 9.527 0 00-2.332-.041c.019-.537.052-1.063.098-1.569h2.456V1.794H6.088c.106-.531.198-.849.288-1.149L4.229 0c-.158.526-.29 1.042-.422 1.794H1.356v2.083H3.54a29.083 29.083 0 00-.103 2.077C1.024 6.84 0 8.529 0 10.061c0 1.809 1.427 3.399 3.684 3.194 2.802-.255 4.673-2.371 5.77-4.974 1.134.654 1.608 1.753 1.181 2.771-.396.941-1.561 1.838-3.785 1.792v2.242c2.469.038 4.898-.899 5.85-3.166.93-2.214-.132-4.635-2.525-5.793zM7.283 7.658c-.349.774-.809 1.544-1.395 2.15A22.506 22.506 0 015.704 7.7a7.561 7.561 0 011.579-.042zm-3.788.724c.062.947.169 1.818.317 2.596-1.996.365-2.076-1.603-.317-2.596zm11.236-1.745l-2.075-5.533L18.07 0l-.976 1.868C20.093 4.286 21.21 7.513 21.626 10 19.89 7.087 17.8 5.522 15.741 4.679l-1.01 1.958zM6.836 17.418l1.985 5.566L3.391 24l1.006-1.852C1.437 19.683.376 16.494 0 14c1.689 2.94 3.749 4.483 5.794 5.36l1.042-1.942zm10.795-6.029"/></svg>