<svg width="24" height="24" xmlns="http://www.w3.org/2000/svg"><g class="layer"><path d="M23.964 23.964h-2.77L20.13 20.98h-4.85l-1.07 2.984h-2.684l4.916-12.932h2.59l.617 1.617.616 1.616 2.466 6.466 1.233 3.233zm-4.549-5.042l-1.696-4.878-1.703 4.878h3.4zm-4.671-12.23l-2.065-5.504L18.065.089l-.97 1.859c2.983 2.405 4.094 5.615 4.508 8.09-1.727-2.899-3.806-4.455-5.855-5.294l-1.004 1.948zM6.89 17.417l1.974 5.537-5.401 1.01 1-1.842C1.52 19.67.463 16.497.09 14.016c1.68 2.925 3.73 4.46 5.764 5.332l1.037-1.931z" fill="#fff"/><text fill="#fff" font-family="Sans-serif" font-size="24" font-weight="bold" stroke-width="0" text-anchor="middle" transform="matrix(.50823 0 0 .57108 -1.324 -4.203)" x="13.684" y="27.952">文</text></g></svg>