<svg xmlns="http://www.w3.org/2000/svg" width="24" height="24" fill="#FFF"><path d="M17.492 15.432c-.433 0-.855-.087-1.253-.259l.467-1.082a1.986 1.986 0 001.437.052l.388 1.112a3.108 3.108 0 01-1.039.177zM6.57 15.41c-.373 0-.741-.066-1.093-.195l.407-1.105a1.984 1.984 0 001.44-.026l.447 1.09a3.143 3.143 0 01-1.201.236zm8.67-.783l-1.659-.945.583-1.024 1.66.945-.584 1.024zm-6.455-.02l-.605-1.011 1.639-.981.605 1.011-1.639.981zm3.918-1.408a1.981 1.981 0 00-1.438-.034l-.401-1.108a3.156 3.156 0 012.292.056l-.453 1.086zm7.327-.163a.968.968 0 100 1.936.968.968 0 000-1.936zm-16.061 0a.968.968 0 10-.001 1.937.968.968 0 00.001-1.937zM22 12.204v6.683l-4 2.479V17h-1v4.141l-4-2.885V15h-2v3.255L7 21.14V17H6v4.365l-4-2.479V5.592l4 2.479V12h1V8.073l4-2.886V10h2V5.187l1.577 1.138A5.66 5.66 0 0114 3.801l.019-.345L12 2 6.455 6 0 2v18l6.455 4L12 20l5.545 4L24 20V8.382l-.039.047c-.831.982-1.614 1.918-1.961 3.775zm2-8.403C24 1.702 22.1 0 20 0s-4 1.702-4 3.801c0 3.121 3.188 3.451 4 8.199.812-4.748 4-5.078 4-8.199zM18.5 4a1.5 1.5 0 113 0 1.5 1.5 0 01-3 0zm-.548 8c-.212-.992-.547-1.724-.952-2.334V12h.952z"/></svg>