<svg xmlns="http://www.w3.org/2000/svg" width="24" height="24" fill="#FFF"><path d="M21 21v3h3v-3h-1v-1h-1v1h-1zm2 1v1h-1v-1h1zM0 24h8v-8H0v8zm1-7h6v6H1v-6zm20 3v-1h1v1h-1zM2 18h4v4H2v-4zm8-3v2H9v-2h1zm2-8h1v1h-1V7zm1-1h1v1h-1V6zm1 2V7h1v1h-1zm0-2h1V0h-3v1H9v1h3v1h2v3zm-1-4V1h1v1h-1zM6 6H2V2h4v4zm6 0h-1V4H9V3h3v1h1v1h-1v1zM8 0H0v8h8V0zM7 7H1V1h6v6zm3 0H9V6h2v2h-1V7zm-3 3v1H6v-1h1zm15 6h2v3h-1v-1h-2v1h-1v-1h-1v-1h1v-1h1v1h1v-1zm-4 2h-1v1h-1v-1h-1v-1h1v-1h-2v-1h-1v1h-1v1h-2v1H9v6h5v-1h-1v-2h-1v2h-2v-1h1v-1h-1v-1h3v-1h2v2h-1v1h1v2h1v-2h1v1h1v-1h1v-2h1v-1h-2v-1zm-1 3h-1v-1h1v1zm6-6v-2h1v2h-1zm-9 5v1h-1v-1h1zm5 3v-1h1v2h-2v-1h1zM16 0v8h8V0h-8zm7 7h-6V1h6v6zm-1-1h-4V2h4v4zm1 4h1v2h-1v1h-2V9h1v2h1v-1zm-4 6v-3h1v3h-1zM6 9v1H4v1h1v1H2v-1h1v-1H1v1H0V9h6zm-1 4v-1h1v3H5v-1H4v1H3v-1H2v1H0v-1h1v-1h4zm-4-1v1H0v-1h1zm19-2h-1V9h1v1zM7 14h1v1H7v-1zm15 2h-1v-1h1v1zm-5 1v-1h1v1h-1zm-1-1h1v-3h2v-1h1v-1h-1v-1h-2V9h-1v1h-1V9h-1v1h-1V9h-1v1h-1v1h-1v-1h1V9H7v1h2v1H7v1h1v2h1v-1h2v2h1v-4h1v2h3v1h-2v1h2v1zm1-5h1v1h-1v-1zm-2 1h-1v-1h1v1z"/></svg>