<svg height="632" viewBox="0 -76 474.063 474" width="632" xmlns="http://www.w3.org/2000/svg" xmlns:xlink="http://www.w3.org/1999/xlink"><linearGradient id="a"><stop offset="0" stop-color="#00efd1"/><stop offset="1" stop-color="#00acea"/></linearGradient><linearGradient id="b" gradientUnits="userSpaceOnUse" x1="237.034" x2="237.034" xlink:href="#a" y1="-82.582" y2="412.186"/><linearGradient id="c" gradientUnits="userSpaceOnUse" x1="175.865" x2="175.865" xlink:href="#a" y1="-82.582" y2="412.186"/><linearGradient id="d" gradientUnits="userSpaceOnUse" x1="298.203" x2="298.203" xlink:href="#a" y1="-82.582" y2="412.186"/><linearGradient id="e" gradientUnits="userSpaceOnUse" x1="237.038" x2="237.038" xlink:href="#a" y1="-82.581" y2="412.187"/><path d="M448.32 159.184a86.43 86.43 0 00-61.586-25.508c-2.386 0-4.851.031-7.363.168C375.571 59.414 313.801.03 238.418.03a139.769 139.769 0 00-85.828 29.125 142.468 142.468 0 00-48.442 68.469C44.07 107.355-.059 159.262.008 220.125v.605c0 .125-.008.41-.008.536.004 55.297 44.988 100.441 100.281 100.441H373.79c55.29 0 100.274-45.144 100.274-100.437 0-.707-.086-1.415-.258-2.098a87.162 87.162 0 00-25.485-59.988zm-74.53 146.523H100.28c-46.32 0-84.031-37.727-84.273-83.988.008-.176.012-.64.012-.82 0-.31-.016-.192-.04-1.192h.024c0-54 40.941-100.777 95.234-107.125a7.881 7.881 0 006.766-5.656C133.43 53.19 182.512 16.12 238.414 15.98c69 0 125.14 56.145 125.14 125.122 0 .5 0 1.007-.011 1.511a8.002 8.002 0 002.844 6.325 8.012 8.012 0 006.718 1.722 71.528 71.528 0 0158.938 15.29 71.514 71.514 0 0125.793 55.16c-.004.675.07 1.347.215 2.007-.996 45.617-38.41 82.59-84.262 82.59zm0 0" fill="url(#b)"/><path d="M193.832 144.777l-47.25 47.25 47.25 47.25 11.313-11.312-35.934-35.938 35.934-35.933zm0 0" fill="url(#c)"/><path d="M268.922 156.094l35.937 35.933-35.937 35.938 11.312 11.312 47.25-47.25-47.25-47.25zm0 0" fill="url(#d)"/><path d="M211.594 255.168l35.441-130.469 15.442 4.192-35.442 130.472zm0 0" fill="url(#e)"/></svg>