<svg height="511pt" viewBox="1 -16 511.999 511" fill="#FFF" width="511pt" xmlns="http://www.w3.org/2000/svg"><path d="M67.156 27.578C53.286 27.578 42 38.863 42 52.734c0 13.868 11.285 25.153 25.152 25.153 13.871 0 25.157-11.285 25.157-25.153 0-13.87-11.286-25.156-25.153-25.156zm0 35.309C61.555 62.887 57 58.332 57 52.734c0-5.601 4.555-10.156 10.152-10.156 5.602 0 10.157 4.555 10.157 10.156 0 5.598-4.555 10.153-10.153 10.153zm0 0M126.914 27.578c-13.867 0-25.152 11.285-25.152 25.156 0 13.868 11.285 25.153 25.152 25.153 13.871 0 25.156-11.285 25.156-25.153 0-13.87-11.285-25.156-25.156-25.156zm0 35.309c-5.598 0-10.152-4.555-10.152-10.153 0-5.601 4.554-10.156 10.152-10.156 5.602 0 10.156 4.555 10.156 10.156 0 5.598-4.554 10.153-10.156 10.153zm0 0M186.676 27.578c-13.871 0-25.156 11.285-25.156 25.156 0 13.868 11.285 25.153 25.156 25.153 13.867 0 25.152-11.285 25.152-25.153 0-13.87-11.285-25.156-25.152-25.156zm0 35.309c-5.602 0-10.156-4.555-10.156-10.153 0-5.601 4.554-10.156 10.156-10.156 5.597 0 10.152 4.555 10.152 10.156 0 5.598-4.555 10.153-10.152 10.153zm0 0M459.832 52.734c0-4.144-3.355-7.5-7.5-7.5H269.668a7.497 7.497 0 00-7.5 7.5 7.5 7.5 0 007.5 7.5h182.668c4.14 0 7.496-3.359 7.496-7.5zm0 0"/><path d="M480.684.5H31.316C14.023.5 0 14.574 0 31.816v417.25a31.503 31.503 0 00.637 6.305c.078.379.164.758.258 1.137A26.382 26.382 0 001.297 458c3.855 12.93 15.855 22.383 30.02 22.383h449.367c17.265 0 31.316-14.047 31.316-31.317V31.816C512 14.57 497.973.5 480.684.5zM161.52 465.383H31.316c-7.449 0-13.75-5.02-15.695-11.856a6.376 6.376 0 01-.105-.39 16.323 16.323 0 01-.516-4.07V104.964h146.52zm319.164 0H176.52V104.965H347a7.5 7.5 0 100-15H15V31.816C15 22.84 22.297 15.5 31.316 15.5h449.368C489.64 15.5 497 22.781 497 31.816v58.149H375a7.5 7.5 0 100 15h122v344.101c0 8.997-7.32 16.317-16.316 16.317zm0 0"/><path d="M38.762 146.941h99c4.14 0 7.5-3.359 7.5-7.5s-3.36-7.5-7.5-7.5h-99a7.5 7.5 0 100 15zm0 0M38.762 193.86h99a7.5 7.5 0 100-15h-99a7.497 7.497 0 00-7.5 7.5 7.5 7.5 0 007.5 7.5zm0 0M38.762 240.773h99c4.14 0 7.5-3.359 7.5-7.5 0-4.14-3.36-7.5-7.5-7.5h-99a7.5 7.5 0 00-7.5 7.5 7.5 7.5 0 007.5 7.5zm0 0M38.762 287.688h99a7.5 7.5 0 100-15h-99a7.5 7.5 0 00-7.5 7.5c0 4.144 3.355 7.5 7.5 7.5zm0 0M207.922 235.445h104.156c8.504 0 15.422-6.918 15.422-15.422v-77.96c0-8.504-6.918-15.422-15.422-15.422H207.922c-8.504 0-15.422 6.918-15.422 15.421v77.961c0 8.504 6.918 15.422 15.422 15.422zm-.422-93.382c0-.231.188-.422.422-.422h104.156c.23 0 .422.191.422.422v77.96c0 .23-.188.422-.422.422H207.922a.425.425 0 01-.422-.422zm0 0M362.922 235.445h104.156c8.504 0 15.422-6.918 15.422-15.422v-77.96c0-8.504-6.918-15.422-15.422-15.422H362.922c-8.504 0-15.422 6.918-15.422 15.421v77.961c0 8.504 6.918 15.422 15.422 15.422zm102.762-93.804c1 0 1.816.816 1.816 1.816v75.172c0 1-.816 1.816-1.816 1.816H364.316c-1 0-1.816-.816-1.816-1.816v-75.172c0-1 .816-1.816 1.816-1.816zm0 0M467.602 390.21h-259.68c-8.504 0-15.422 6.919-15.422 15.423v16.953c0 8.504 6.918 15.422 15.422 15.422h259.68c8.503 0 15.421-6.918 15.421-15.422v-16.953c0-8.504-6.918-15.422-15.421-15.422zm.421 32.376c0 .23-.187.422-.421.422h-259.68a.42.42 0 01-.422-.422v-16.953a.42.42 0 01.422-.422h259.68c.23 0 .421.187.421.422zm0 0M207.922 369.43H246a7.5 7.5 0 100-15h-38.078a.423.423 0 01-.422-.422v-86.156c0-.23.188-.422.422-.422h259.156c.23 0 .422.191.422.422v86.156a.42.42 0 01-.422.422H274a7.5 7.5 0 100 15h193.078c8.504 0 15.422-6.918 15.422-15.422v-86.156c0-8.504-6.918-15.422-15.422-15.422H207.922c-8.504 0-15.422 6.918-15.422 15.422v86.156c0 8.504 6.918 15.422 15.422 15.422zm0 0"/></svg>