<svg height="512" fill="#FFF" width="512" xmlns="http://www.w3.org/2000/svg"><path d="M256 67.421l-25.937 113.656L256 226.001l25.937-44.924zM333.854 241l85.461-79.29-111.397 34.366L281.981 241zM208.009 142.878L240.504 0c-34.921 2.092-68.559 11.705-99.265 27.229zM230.063 330.923L256 444.579l25.937-113.656L256 285.999zM271.496 0l32.495 142.878 66.77-115.649C340.055 11.705 306.417 2.092 271.496 0zM0 271c2.025 34.927 11.547 68.576 27.005 99.305L134.038 271zM377.962 271l107.033 99.305C500.453 339.576 509.975 305.927 512 271zM134.038 241L27.004 141.695C11.546 172.424 2.025 206.073 0 241zM178.146 241h51.873l-25.937-44.924L92.685 161.71zM329.971 157.878l139.406-43.007a260.397 260.397 0 00-32.565-39.683 260.397 260.397 0 00-40.13-32.857zM182.029 354.123L42.623 397.129a260.445 260.445 0 0032.565 39.683 260.397 260.397 0 0040.13 32.857zM230.019 271h-51.873l-85.461 79.29 111.397-34.366zM377.962 241H512c-2.025-34.927-11.546-68.576-27.004-99.305zM329.971 354.123l66.711 115.546a260.386 260.386 0 0040.13-32.857 260.445 260.445 0 0032.565-39.683zM182.029 157.878L115.318 42.331a260.386 260.386 0 00-40.13 32.857 260.386 260.386 0 00-32.565 39.683zM240.504 512l-32.495-142.878-66.77 115.649c30.706 15.524 64.344 25.137 99.265 27.229zM303.991 369.122L271.496 512c34.921-2.092 68.559-11.705 99.265-27.229zM333.854 271h-51.873l25.937 44.924 111.397 34.366z"/></svg>