<svg xmlns="http://www.w3.org/2000/svg" xmlns:xlink="http://www.w3.org/1999/xlink" width="512" height="512"><linearGradient id="a" gradientUnits="userSpaceOnUse" x1="256.002" x2="256.002" y1="31.616" y2="489.508"><stop offset="0" stop-color="#00efd1"/><stop offset="1" stop-color="#00acea"/></linearGradient><linearGradient id="b" x1="256.012" x2="256.012" xlink:href="#a" y1="31.616" y2="489.508"/><path d="M484.382 240.683L398.735 167.6a10.016 10.016 0 00.265-1.581V70.457A10.619 10.619 0 00388.745 60h-47.782C335.44 60 331 64.934 331 70.457v39.569l-68.5-58.35a10.012 10.012 0 00-12.979 0L27.624 240.682a10 10 0 1012.965 15.226L256 72.425l77.088 65.687 46.07 39.192 92.254 78.6a10 10 0 0012.971-15.224zM379 80v70.7l-28-23.635V80z" fill="url(#a)"/><path d="M440.327 260.854L412.2 236.863 262.494 109.031a10 10 0 00-12.988 0L99.8 236.86l-28.127 23.994a10 10 0 00-1.119 14.1 9.8 9.8 0 0013.934 1.119L97 265.259v187.453A10.534 10.534 0 00107.328 463h297.344A10.534 10.534 0 00415 452.712V265.259l12.512 10.812a9.751 9.751 0 006.4 2.391 9.9 9.9 0 007.572-3.51 10 10 0 00-1.157-14.098zM296 443h-80V335h80zm20 0V325.294c0-5.523-4.058-10.294-9.581-10.294H205.581c-5.523 0-9.581 4.771-9.581 10.294V443h-79V248.2l139-118.41L395 248.2V443z" fill="url(#b)"/></svg>