<svg xmlns="http://www.w3.org/2000/svg" viewBox="0 0 512.007 512.007" fill="#FFF"><path d="M510.025 139.609l-85.333-102.4a8.547 8.547 0 00-6.554-3.063H93.871a8.524 8.524 0 00-6.554 3.063l-85.333 102.4a8.512 8.512 0 00-1.178 9.079 8.55 8.55 0 007.731 4.915H503.47a8.55 8.55 0 007.731-4.915 8.53 8.53 0 00-1.176-9.079zm-483.268-3.072l71.108-85.333h316.271l71.108 85.333H26.757z"/><path d="M263.898 39.402a8.535 8.535 0 00-7.885-5.265H93.88c-3.055 0-5.871 1.63-7.398 4.284s-1.519 5.905.026 8.55l59.733 102.4a8.541 8.541 0 006.272 4.164c.367.043.734.068 1.092.068a8.539 8.539 0 006.042-2.5l102.4-102.4a8.532 8.532 0 001.851-9.301zm-108.501 91.81l-46.669-80.008h126.677l-80.008 80.008z"/><path d="M511.109 141.281a8.527 8.527 0 00-7.646-4.753H8.53a8.536 8.536 0 00-7.646 4.753 8.537 8.537 0 00.87 8.96l247.467 324.267c1.613 2.116 4.122 3.362 6.784 3.362s5.171-1.246 6.767-3.362l247.467-324.267a8.54 8.54 0 00.87-8.96zM256.005 455.274L25.784 153.604h460.442l-230.221 301.67z"/><path d="M264.146 466.76l-102.4-324.267a8.538 8.538 0 00-8.141-5.965H8.538a8.536 8.536 0 00-7.646 4.753 8.537 8.537 0 00.87 8.96l247.467 324.267a8.517 8.517 0 006.784 3.362 8.297 8.297 0 003.925-.973 8.53 8.53 0 004.208-10.137zM25.784 153.604H147.35l85.811 271.736L25.784 153.604zM425.537 38.421a8.52 8.52 0 00-7.398-4.284H256.005a8.53 8.53 0 00-6.033 14.566l102.4 102.4a8.503 8.503 0 006.033 2.5c.367 0 .734-.026 1.101-.068a8.531 8.531 0 006.272-4.164l59.733-102.4a8.55 8.55 0 00.026-8.55zm-68.924 92.791l-80.009-80.008h126.677l-46.668 80.008z"/><path d="M511.126 141.299a8.527 8.527 0 00-7.646-4.753H358.413a8.53 8.53 0 00-8.141 5.965l-102.4 324.267a8.539 8.539 0 004.207 10.138 8.493 8.493 0 003.925.956 8.574 8.574 0 006.784-3.345L510.255 150.26a8.54 8.54 0 00.871-8.961zm-232.277 284.04l85.811-271.736h121.566L278.849 425.339z"/></svg>